<?xml version="1.0" encoding="UTF-8" standalone="no"?>
<!-- Created with Inkscape (http://www.inkscape.org/) -->

<svg
   xmlns:dc="http://purl.org/dc/elements/1.1/"
   xmlns:cc="http://creativecommons.org/ns#"
   xmlns:rdf="http://www.w3.org/1999/02/22-rdf-syntax-ns#"
   xmlns:svg="http://www.w3.org/2000/svg"
   xmlns="http://www.w3.org/2000/svg"
   xmlns:sodipodi="http://sodipodi.sourceforge.net/DTD/sodipodi-0.dtd"
   xmlns:inkscape="http://www.inkscape.org/namespaces/inkscape"
   version="1.1"
   id="svg2"
   xml:space="preserve"
   width="210mm"
   height="297mm"
   viewBox="0 0 793.7008 1122.5197"
   sodipodi:docname="sn_letterhead.svg"
   inkscape:version="0.92.5 (2060ec1f9f, 2020-04-08)"
   inkscape:export-filename="/home/soumya/Pictures/Paid work/shankhnaad/letterhead.png"
   inkscape:export-xdpi="300"
   inkscape:export-ydpi="300"><metadata
     id="metadata8"><rdf:RDF><cc:Work
         rdf:about=""><dc:format>image/svg+xml</dc:format><dc:type
           rdf:resource="http://purl.org/dc/dcmitype/StillImage" /><dc:title></dc:title></cc:Work></rdf:RDF></metadata><defs
     id="defs6" /><sodipodi:namedview
     pagecolor="#ffffff"
     bordercolor="#666666"
     borderopacity="1"
     objecttolerance="10"
     gridtolerance="10"
     guidetolerance="10"
     inkscape:pageopacity="0"
     inkscape:pageshadow="2"
     inkscape:window-width="1366"
     inkscape:window-height="664"
     id="namedview4"
     showgrid="false"
     showguides="true"
     inkscape:guide-bbox="true"
     inkscape:zoom="0.32"
     inkscape:cx="787.78685"
     inkscape:cy="322.92942"
     inkscape:window-x="0"
     inkscape:window-y="27"
     inkscape:window-maximized="1"
     inkscape:current-layer="g10"
     units="mm"><sodipodi:guide
       position="-72.056576,1195.796"
       orientation="0,1"
       id="guide1027"
       inkscape:locked="false" /><sodipodi:guide
       position="658.42931,990.52521"
       orientation="0,1"
       id="guide1045"
       inkscape:locked="false" /><sodipodi:guide
       position="229.45615,65.053826"
       orientation="0,1"
       id="guide1051"
       inkscape:locked="false" /><sodipodi:guide
       position="228.39549,98.994953"
       orientation="0,1"
       id="guide1053"
       inkscape:locked="false" /><sodipodi:guide
       position="468.8118,1027.4262"
       orientation="0,1"
       id="guide1116"
       inkscape:locked="false" /></sodipodi:namedview><g
     id="g10"
     inkscape:groupmode="layer"
     inkscape:label="ink_ext_XXXXXX"
     transform="matrix(1.3333333,0,0,-1.3333333,0,1122.5197)"><rect
       style="opacity:1;fill:#ffffff;fill-opacity:1;fill-rule:evenodd;stroke:none;stroke-width:1.5;stroke-linejoin:miter;stroke-miterlimit:4;stroke-dasharray:none;stroke-dashoffset:142.29919434;stroke-opacity:1;paint-order:fill markers stroke"
       id="rect1242"
       width="1544.5864"
       height="1325.8253"
       x="969.60095"
       y="-1121.8618"
       transform="scale(1,-1)"
       rx="120"
       ry="120" /><g
       id="g16" /><g
       id="g22" /><g
       id="g32" /><g
       id="g38" /><g
       id="g44" /><g
       id="g50" /><g
       id="g64" /><g
       id="g70" /><g
       id="g104" /><path
       inkscape:connector-curvature="0"
       id="path110"
       style="fill:#c8c7c7;fill-opacity:1;fill-rule:nonzero;stroke:none;stroke-width:0.1"
       d="M 534.118,726.289 H 98.1602 v 2 H 534.118 v -2"
       inkscape:export-filename="/home/soumya/Pictures/Paid work/shankhnaad/header.png"
       inkscape:export-xdpi="100"
       inkscape:export-ydpi="100" /><path
       inkscape:connector-curvature="0"
       id="path112"
       style="fill:#006680;fill-opacity:1;fill-rule:nonzero;stroke:none;stroke-width:0.1"
       d="M 122.038,726.289 H 79.3219 v 2 h 42.7161 v -2"
       inkscape:export-filename="/home/soumya/Pictures/Paid work/shankhnaad/header.png"
       inkscape:export-xdpi="100"
       inkscape:export-ydpi="100" /><path
       inkscape:connector-curvature="0"
       id="path178"
       style="fill:#006680;fill-opacity:1;fill-rule:evenodd;stroke:none;stroke-width:0.1"
       d="m 324.60461,58.676 c -0.246,-0.209 -0.538,-0.3199 -0.844,-0.3199 -0.306,0 -0.597,0.1109 -0.843,0.3199 l -2.905,2.482 -0.585,0.5 -5.502,4.702 v 7e-4 c 0,0.8813 0.63,1.6 1.405,1.6 h 16.86 c 0.775,0 1.406,-0.7187 1.406,-1.6 z m 8.992,-1.7192 -4.917,4.2012 4.917,4.202 z m -1.406,-2.6007 h -16.86 c -0.775,0 -1.405,0.7167 -1.405,1.6 l 5.502,4.7019 3.069,-2.623 c 0.375,-0.318 0.819,-0.4789 1.264,-0.4789 0.446,0 0.89,0.1609 1.265,0.4789 l 3.068,2.623 5.503,-4.7019 c 0,-0.8833 -0.631,-1.6 -1.406,-1.6 z m -18.265,11.0039 4.917,-4.202 -4.917,-4.2012 z m 18.265,4.2019 h -16.86 c -1.552,0 -2.81,-1.434 -2.81,-3.2012 V 55.9561 c 0,-1.7672 1.258,-3.2012 2.81,-3.2012 h 16.86 c 1.552,0 2.811,1.434 2.811,3.2012 v 10.4046 c 0,1.7672 -1.259,3.2012 -2.811,3.2012"
       inkscape:export-filename="/home/soumya/Pictures/Paid work/shankhnaad/footer.png"
       inkscape:export-xdpi="100"
       inkscape:export-ydpi="100" /><g
       id="g1240"
       inkscape:export-filename="/home/soumya/Pictures/Paid work/shankhnaad/footer.png"
       inkscape:export-xdpi="100"
       inkscape:export-ydpi="100"><g
         transform="translate(2.3503447,-6.2259231)"
         id="g180"><text
   transform="scale(1,-1)"
   style="font-variant:normal;font-weight:normal;font-size:9px;font-family:OpenSans;-inkscape-font-specification:OpenSans;writing-mode:lr-tb;fill:#2e2a2b;fill-opacity:1;fill-rule:nonzero;stroke:none"
   id="text186"
   x="111.7641"
   y="-64.1082"><tspan
     style="font-style:normal;font-variant:normal;font-weight:normal;font-stretch:normal;font-family:Alcubierre;-inkscape-font-specification:Alcubierre;letter-spacing:2.25px"
     x="111.7641"
     y="-64.1082"
     sodipodi:role="line"
     id="tspan184">+91 903 809 9033</tspan></text>

<text
   y="-64.1082"
   x="111.7641"
   id="text1221"
   style="font-variant:normal;font-weight:normal;font-size:9px;font-family:OpenSans;-inkscape-font-specification:OpenSans;writing-mode:lr-tb;fill:#2e2a2b;fill-opacity:1;fill-rule:nonzero;stroke:none"
   transform="scale(1,-1)"><tspan
     id="tspan1219"
     sodipodi:role="line"
     y="-64.1082"
     x="111.7641"
     style="font-style:normal;font-variant:normal;font-weight:normal;font-stretch:normal;font-family:Alcubierre;-inkscape-font-specification:Alcubierre;letter-spacing:2.25px">+91 903 809 9033</tspan></text>

<text
   transform="scale(1,-1)"
   style="font-variant:normal;font-weight:normal;font-size:9px;font-family:OpenSans;-inkscape-font-specification:OpenSans;writing-mode:lr-tb;fill:#2e2a2b;fill-opacity:1;fill-rule:nonzero;stroke:none"
   id="text1225"
   x="111.7641"
   y="-64.1082"><tspan
     style="font-style:normal;font-variant:normal;font-weight:normal;font-stretch:normal;font-family:Alcubierre;-inkscape-font-specification:Alcubierre;letter-spacing:2.25px"
     x="111.7641"
     y="-64.1082"
     sodipodi:role="line"
     id="tspan1223">+91 903 809 9033</tspan></text>

<text
   y="-64.1082"
   x="111.7641"
   id="text1229"
   style="font-variant:normal;font-weight:normal;font-size:9px;font-family:OpenSans;-inkscape-font-specification:OpenSans;writing-mode:lr-tb;fill:#2e2a2b;fill-opacity:1;fill-rule:nonzero;stroke:none"
   transform="scale(1,-1)"><tspan
     id="tspan1227"
     sodipodi:role="line"
     y="-64.1082"
     x="111.7641"
     style="font-style:normal;font-variant:normal;font-weight:normal;font-stretch:normal;font-family:Alcubierre;-inkscape-font-specification:Alcubierre;letter-spacing:2.25px">+91 903 809 9033</tspan></text>

</g></g><path
       inkscape:connector-curvature="0"
       id="path188"
       style="fill:#006680;fill-opacity:1;fill-rule:evenodd;stroke:none;stroke-width:0.1"
       d="m 97.716399,50.7531 h 0.7992 c 0.2211,0 0.4,0.1789 0.4,0.4 0,0.2211 -0.1789,0.4 -0.4,0.4 h -0.7992 c -0.2215,0 -0.4,-0.1789 -0.4,-0.4 0,-0.2211 0.1785,-0.4 0.4,-0.4 z m 1.5988,20.816 h -2.398 c -0.2215,0 -0.4,-0.18 -0.4,-0.4011 0,-0.2219 0.1785,-0.4 0.4,-0.4 h 2.398 c 0.2207,0 0.3996,0.1781 0.3996,0.4 0,0.2211 -0.1789,0.4011 -0.3996,0.4011 z M 105.312,69.9672 90.920299,69.966 v 1.602 c 0,0.441 0.3586,0.8 0.7992,0.8 L 104.512,72.3691 c 0.442,0 0.8,-0.3589 0.8,-0.8 z m 0,-16.8133 -14.391701,-8e-4 v 16.0121 l 14.391701,8e-4 z m 0,-2.4047 c 0,-0.441 -0.358,-0.8012 -0.8,-0.8012 H 91.719499 c -0.4406,0 -0.7992,0.359 -0.7992,0.8 v 1.6059 H 105.312 Z m -0.8,23.2207 H 91.719499 c -1.3246,0 -2.398,-1.075 -2.398,-2.4019 v -20.82 c 0,-1.3261 1.0734,-2.4011 2.398,-2.4011 L 104.512,48.348 c 1.325,0 2.399,1.075 2.399,2.4012 v 20.8199 c 0,1.3258 -1.074,2.4008 -2.399,2.4008"
       inkscape:export-filename="/home/soumya/Pictures/Paid work/shankhnaad/footer.png"
       inkscape:export-xdpi="100"
       inkscape:export-ydpi="100" /><path
       sodipodi:nodetypes="cccssscsscsscsscsssc"
       inkscape:connector-curvature="0"
       id="path198"
       style="fill:#006680;fill-opacity:1;fill-rule:evenodd;stroke:none;stroke-width:0.1"
       d="m 522.93931,761.71467 c -0.017,-0.0152 -0.066,-0.0531 -0.109,-0.0793 -0.007,0.023 -0.066,0.0691 -0.102,0.107 -2.931,3.3762 -7.878,9.075 -7.878,14.2903 0,4.416 3.587,8.0078 7.995,8.0078 4.409,0 7.997,-3.5918 7.997,-8.0078 0,-5.2153 -4.947,-10.9141 -7.903,-14.318 z m -0.094,23.9277 c -5.291,0 -9.595,-4.257 -9.595,-9.6097 0,-5.6063 4.798,-11.3391 8.296,-15.3692 0.014,-0.0148 0.575,-0.6441 1.269,-0.6441 h 0.061 c 0.694,0 1.255,0.6293 1.269,0.6441 3.499,4.0301 8.296,9.7629 8.296,15.3692 0,5.3527 -4.304,9.6097 -9.596,9.6097 z m 10e-4,-4.6019 c -2.644,0 -4.797,-2.1539 -4.797,-4.8028 0,-2.65 2.153,-4.805 4.797,-4.805 2.646,0 4.798,2.155 4.798,4.805 0,2.6489 -2.152,4.8028 -4.798,4.8028"
       inkscape:export-filename="/home/soumya/Pictures/Paid work/shankhnaad/header.png"
       inkscape:export-xdpi="100"
       inkscape:export-ydpi="100" /><path
       inkscape:connector-curvature="0"
       id="path200"
       style="fill:#c8c7c7;fill-opacity:1;fill-rule:nonzero;stroke:none;stroke-width:0.1"
       d="M 534.118,92.2891 H 98.1602 v 2 H 534.118 v -2"
       inkscape:export-filename="/home/soumya/Pictures/Paid work/shankhnaad/footer.png"
       inkscape:export-xdpi="100"
       inkscape:export-ydpi="100" /><path
       inkscape:connector-curvature="0"
       id="path202"
       style="fill:#006680;fill-opacity:1;fill-rule:nonzero;stroke:none;stroke-width:0.1"
       d="M 122.038,92.2891 H 79.3219 v 2 h 42.7161 v -2"
       inkscape:export-filename="/home/soumya/Pictures/Paid work/shankhnaad/footer.png"
       inkscape:export-xdpi="100"
       inkscape:export-ydpi="100" /><path
       inkscape:connector-curvature="0"
       id="path204"
       style="fill:#006680;fill-opacity:1;fill-rule:nonzero;stroke:none;stroke-width:0.09709576"
       d="M 595.62422,0.37347234 H 0 V 25.345628 H 595.62422 V 0.37347234"
       inkscape:export-filename="/home/soumya/Pictures/Paid work/shankhnaad/footer.png"
       inkscape:export-xdpi="100"
       inkscape:export-ydpi="100" /><path
       style="fill:#006680;fill-opacity:1;stroke:none;stroke-width:0.0541266"
       d="m 89.885657,806.88908 c 2.177796,0.006 3.21644,0.33835 4.659069,1.59081 2.598697,2.2372 3.934853,3.34992 8.162214,3.77969 -1.84121,-0.8476 -3.588573,-1.89342 -5.163097,-3.56869 -1.574525,-1.67526 -4.755889,-3.49885 -7.658186,-1.80181 z"
       id="path126"
       inkscape:connector-curvature="0"
       sodipodi:nodetypes="ccczc"
       inkscape:export-xdpi="100"
       inkscape:export-ydpi="100" /><path
       d="m 95.400705,767.51549 c 7.244455,3.5383 7.213875,10.38922 6.226015,14.90853 -2.594321,11.05537 -15.562305,10.83906 -11.304237,23.30749 0,0 -5.689034,-6.82437 -1.802087,-12.47927 4.708383,-5.56924 18.316574,-15.67982 6.880309,-25.73675"
       style="fill:#006680;fill-opacity:1;fill-rule:nonzero;stroke:none;stroke-width:0.00718164"
       id="path14-3"
       inkscape:connector-curvature="0"
       sodipodi:nodetypes="ccccc" /><path
       sodipodi:nodetypes="ccccc"
       inkscape:connector-curvature="0"
       id="path2439"
       style="fill:#006680;fill-opacity:1;fill-rule:nonzero;stroke:none;stroke-width:0.00550763"
       d="m 103.29649,811.26334 c 4.43465,-3.39959 5.07496,-8.51591 4.47025,-12.85803 -1.5881,-10.62192 -9.526349,-10.41409 -6.91981,-22.39365 0,0 -4.009722,6.06814 -1.630358,11.50133 2.882198,5.35086 11.080538,14.08772 4.079918,23.75035" /><path
       inkscape:export-ydpi="100"
       inkscape:export-xdpi="100"
       sodipodi:nodetypes="cccccccc"
       inkscape:connector-curvature="0"
       id="path3248"
       d="m 88.384455,808.32217 c 0.769276,-7.4e-4 1.508712,-0.0351 2.230004,0.26436 0.638633,0.26515 1.051536,0.56992 1.530291,0.97753 1.226606,1.04421 2.100266,2.34447 4.037513,2.86612 0.783909,0.15962 1.828354,0.25312 2.562762,0.1065 -1.73817,-0.41686 -2.668067,-1.03429 -3.579401,-2.0276 -1.082173,-1.20435 -2.382488,-2.58204 -4.177754,-2.77552 -0.918674,-0.0443 -1.905265,0.15464 -2.603415,0.58861 z"
       style="fill:#006680;fill-opacity:1;stroke:none;stroke-width:0.04345356" /><path
       style="opacity:1;fill:#006680;fill-opacity:1;fill-rule:evenodd;stroke:none;stroke-width:0.05641689;stroke-linejoin:miter;stroke-miterlimit:4;stroke-dasharray:none;stroke-dashoffset:142.29919434;stroke-opacity:1;paint-order:fill markers stroke"
       d="m 88.006271,814.69449 a 2.8780356,2.8779215 0 0 1 -0.762461,-3.99796 2.8780356,2.8779215 0 0 1 3.998113,-0.76243 2.8780356,2.8779215 0 0 1 0.691823,0.66879 c -1.248873,0.22186 -2.462941,0.13499 -4.070956,-0.42034 0.630334,0.67367 1.761512,1.28631 2.680202,1.6437 0.685133,0.21329 1.330093,0.28803 1.951479,0.28201 a 2.8780356,2.8779215 0 0 1 -0.490086,1.8238 2.8780356,2.8779215 0 0 1 -3.998114,0.76243 z"
       id="path3252"
       inkscape:connector-curvature="0" /><path
       sodipodi:nodetypes="ccczc"
       inkscape:connector-curvature="0"
       id="path3269"
       style="fill:#0088aa;fill-opacity:1;fill-rule:nonzero;stroke:none;stroke-width:0.01122822"
       d="m 106.16746,811.64479 c 9.72835,-6.44075 11.13304,-16.13401 9.80647,-24.3605 -3.48384,-20.12398 -18.989829,-21.69415 -13.27181,-44.39034 0,0 -8.720145,13.00883 -4.039111,23.63832 4.681051,10.62947 22.861861,26.80595 7.504451,45.11252" /><g
       id="g1122"
       inkscape:export-filename="/home/soumya/Pictures/Paid work/shankhnaad/header.png"
       inkscape:export-xdpi="100"
       inkscape:export-ydpi="100"
       style="fill:#006680"><text
   transform="scale(1,-1)"
   id="text1086"
   y="-770.88751"
   x="130.61005"
   style="font-style:normal;font-variant:normal;font-weight:normal;font-stretch:normal;font-size:44.81095505px;line-height:1.25;font-family:Gobold;-inkscape-font-specification:Gobold;letter-spacing:0px;word-spacing:0px;fill:#006680;fill-opacity:1;stroke:none;stroke-width:1.12027395"
   xml:space="preserve"><tspan
     id="tspan1088"
     style="font-style:normal;font-variant:normal;font-weight:normal;font-stretch:normal;font-family:Riesling;-inkscape-font-specification:Riesling;letter-spacing:2.25px;fill:#006680;stroke-width:1.12027395"
     y="-770.88751"
     x="130.61005"
     sodipodi:role="line">shankhnaad</tspan></text>

<text
   transform="scale(1,-1)"
   id="text1114"
   y="-749.06384"
   x="179.8618"
   style="font-style:normal;font-variant:normal;font-weight:normal;font-stretch:normal;font-size:30px;line-height:1.25;font-family:Riesling;-inkscape-font-specification:Riesling;letter-spacing:0px;word-spacing:0px;fill:#006680;fill-opacity:1;stroke:none;stroke-width:0.75"
   xml:space="preserve"><tspan
     style="font-style:normal;font-variant:normal;font-weight:normal;font-stretch:normal;line-height:37.5px;font-family:Riesling;-inkscape-font-specification:Riesling;letter-spacing:2.25px;fill:#006680;stroke-width:0.75"
     y="-749.06384"
     x="179.8618"
     id="tspan1112"
     sodipodi:role="line">global</tspan></text>

</g><g
       id="g1185"
       transform="translate(-1.4648438,2.5246019)"
       inkscape:export-filename="/home/soumya/Pictures/Paid work/shankhnaad/header.png"
       inkscape:export-xdpi="100"
       inkscape:export-ydpi="100"><g
         transform="translate(0,23.365826)"
         id="g190"><text
   transform="scale(1,-1)"
   style="font-variant:normal;font-weight:normal;font-size:5.72553158px;font-family:OpenSans;-inkscape-font-specification:OpenSans;writing-mode:lr-tb;fill:#2e2a2b;fill-opacity:1;fill-rule:nonzero;stroke:none;stroke-width:0.41608438"
   id="text196"
   x="507.90475"
   y="-755.61261"><tspan
     x="509.51505"
     sodipodi:role="line"
     id="tspan194"
     y="-755.61261"
     style="font-style:normal;font-variant:normal;font-weight:normal;font-stretch:normal;font-family:Alcubierre;-inkscape-font-specification:Alcubierre;text-align:end;letter-spacing:1.61030579px;text-anchor:end;fill:#000000;stroke-width:0.41608438">Sunflower Residency, Flat no -3B</tspan><tspan
     x="509.51505"
     sodipodi:role="line"
     y="-748.39978"
     id="tspan1035"
     style="font-style:normal;font-variant:normal;font-weight:normal;font-stretch:normal;font-family:Alcubierre;-inkscape-font-specification:Alcubierre;text-align:end;letter-spacing:1.61030579px;text-anchor:end;fill:#000000;stroke-width:0.41608438">Narendranagar, Narayanpur</tspan><tspan
     x="509.51505"
     sodipodi:role="line"
     y="-741.18695"
     id="tspan1041"
     style="font-style:normal;font-variant:normal;font-weight:normal;font-stretch:normal;font-family:Alcubierre;-inkscape-font-specification:Alcubierre;text-align:end;letter-spacing:1.61030579px;text-anchor:end;fill:#000000;stroke-width:0.41608438">Kolkata, West Bengal</tspan><tspan
     x="509.51508"
     sodipodi:role="line"
     y="-733.97412"
     style="font-style:normal;font-variant:normal;font-weight:normal;font-stretch:normal;font-family:Alcubierre;-inkscape-font-specification:Alcubierre;text-align:end;letter-spacing:1.61030579px;text-anchor:end;fill:#000000;stroke-width:0.41608438"
     id="tspan1049">INDIA - 700136</tspan></text>

</g><g
         id="g1153"
         transform="translate(0,23.365826)"><text
   y="-755.61261"
   x="507.90475"
   id="text1151"
   style="font-variant:normal;font-weight:normal;font-size:5.72553158px;font-family:OpenSans;-inkscape-font-specification:OpenSans;writing-mode:lr-tb;fill:#2e2a2b;fill-opacity:1;fill-rule:nonzero;stroke:none;stroke-width:0.41608438"
   transform="scale(1,-1)"><tspan
     style="font-style:normal;font-variant:normal;font-weight:normal;font-stretch:normal;font-family:Alcubierre;-inkscape-font-specification:Alcubierre;text-align:end;letter-spacing:1.61030579px;text-anchor:end;fill:#000000;stroke-width:0.41608438"
     y="-755.61261"
     id="tspan1143"
     sodipodi:role="line"
     x="509.51505">Sunflower Residency, Flat no -3B</tspan><tspan
     style="font-style:normal;font-variant:normal;font-weight:normal;font-stretch:normal;font-family:Alcubierre;-inkscape-font-specification:Alcubierre;text-align:end;letter-spacing:1.61030579px;text-anchor:end;fill:#000000;stroke-width:0.41608438"
     id="tspan1145"
     y="-748.39978"
     sodipodi:role="line"
     x="509.51505">Narendranagar, Narayanpur</tspan><tspan
     style="font-style:normal;font-variant:normal;font-weight:normal;font-stretch:normal;font-family:Alcubierre;-inkscape-font-specification:Alcubierre;text-align:end;letter-spacing:1.61030579px;text-anchor:end;fill:#000000;stroke-width:0.41608438"
     id="tspan1147"
     y="-741.18695"
     sodipodi:role="line"
     x="509.51505">Kolkata, West Bengal</tspan><tspan
     id="tspan1149"
     style="font-style:normal;font-variant:normal;font-weight:normal;font-stretch:normal;font-family:Alcubierre;-inkscape-font-specification:Alcubierre;text-align:end;letter-spacing:1.61030579px;text-anchor:end;fill:#000000;stroke-width:0.41608438"
     y="-733.97412"
     sodipodi:role="line"
     x="509.51508">INDIA - 700136</tspan></text>

</g><g
         transform="translate(0,23.365826)"
         id="g1165"><text
   transform="scale(1,-1)"
   style="font-variant:normal;font-weight:normal;font-size:5.72553158px;font-family:OpenSans;-inkscape-font-specification:OpenSans;writing-mode:lr-tb;fill:#2e2a2b;fill-opacity:1;fill-rule:nonzero;stroke:none;stroke-width:0.41608438"
   id="text1163"
   x="507.90475"
   y="-755.61261"><tspan
     x="509.51505"
     sodipodi:role="line"
     id="tspan1155"
     y="-755.61261"
     style="font-style:normal;font-variant:normal;font-weight:normal;font-stretch:normal;font-family:Alcubierre;-inkscape-font-specification:Alcubierre;text-align:end;letter-spacing:1.61030579px;text-anchor:end;fill:#000000;stroke-width:0.41608438">Sunflower Residency, Flat no -3B</tspan><tspan
     x="509.51505"
     sodipodi:role="line"
     y="-748.39978"
     id="tspan1157"
     style="font-style:normal;font-variant:normal;font-weight:normal;font-stretch:normal;font-family:Alcubierre;-inkscape-font-specification:Alcubierre;text-align:end;letter-spacing:1.61030579px;text-anchor:end;fill:#000000;stroke-width:0.41608438">Narendranagar, Narayanpur</tspan><tspan
     x="509.51505"
     sodipodi:role="line"
     y="-741.18695"
     id="tspan1159"
     style="font-style:normal;font-variant:normal;font-weight:normal;font-stretch:normal;font-family:Alcubierre;-inkscape-font-specification:Alcubierre;text-align:end;letter-spacing:1.61030579px;text-anchor:end;fill:#000000;stroke-width:0.41608438">Kolkata, West Bengal</tspan><tspan
     x="509.51508"
     sodipodi:role="line"
     y="-733.97412"
     style="font-style:normal;font-variant:normal;font-weight:normal;font-stretch:normal;font-family:Alcubierre;-inkscape-font-specification:Alcubierre;text-align:end;letter-spacing:1.61030579px;text-anchor:end;fill:#000000;stroke-width:0.41608438"
     id="tspan1161">INDIA - 700136</tspan></text>

</g></g><g
       id="g1217"
       inkscape:export-filename="/home/soumya/Pictures/Paid work/shankhnaad/footer.png"
       inkscape:export-xdpi="100"
       inkscape:export-ydpi="100"><g
         transform="translate(106.13337,-4.7754277)"
         id="g170"><text
   transform="scale(1,-1)"
   style="font-variant:normal;font-weight:normal;font-size:9.77635956px;font-family:OpenSans;-inkscape-font-specification:OpenSans;writing-mode:lr-tb;fill:#2e2a2b;fill-opacity:1;fill-rule:nonzero;stroke:none"
   id="text176"
   x="236.49542"
   y="-63.236736"><tspan
     style="font-style:normal;font-variant:normal;font-weight:normal;font-stretch:normal;font-family:Alcubierre;-inkscape-font-specification:Alcubierre;letter-spacing:2.25px"
     sodipodi:role="line"
     id="tspan174"
     x="236.49542"
     y="-63.236736">shankhnaadofficial@gmail.com</tspan></text>

</g><g
         id="g1191"
         transform="translate(106.13337,-4.7754277)"><text
   y="-63.236736"
   x="236.49542"
   id="text1189"
   style="font-variant:normal;font-weight:normal;font-size:9.77635956px;font-family:OpenSans;-inkscape-font-specification:OpenSans;writing-mode:lr-tb;fill:#2e2a2b;fill-opacity:1;fill-rule:nonzero;stroke:none"
   transform="scale(1,-1)"><tspan
     y="-63.236736"
     x="236.49542"
     id="tspan1187"
     sodipodi:role="line"
     style="font-style:normal;font-variant:normal;font-weight:normal;font-stretch:normal;font-family:Alcubierre;-inkscape-font-specification:Alcubierre;letter-spacing:2.25px">shankhnaadofficial@gmail.com</tspan></text>

</g><g
         transform="translate(106.13337,-4.7754277)"
         id="g1197"><text
   transform="scale(1,-1)"
   style="font-variant:normal;font-weight:normal;font-size:9.77635956px;font-family:OpenSans;-inkscape-font-specification:OpenSans;writing-mode:lr-tb;fill:#2e2a2b;fill-opacity:1;fill-rule:nonzero;stroke:none"
   id="text1195"
   x="236.49542"
   y="-63.236736"><tspan
     style="font-style:normal;font-variant:normal;font-weight:normal;font-stretch:normal;font-family:Alcubierre;-inkscape-font-specification:Alcubierre;letter-spacing:2.25px"
     sodipodi:role="line"
     id="tspan1193"
     x="236.49542"
     y="-63.236736">shankhnaadofficial@gmail.com</tspan></text>

</g><g
         id="g1203"
         transform="translate(106.13337,-4.7754277)"><text
   y="-63.236736"
   x="236.49542"
   id="text1201"
   style="font-variant:normal;font-weight:normal;font-size:9.77635956px;font-family:OpenSans;-inkscape-font-specification:OpenSans;writing-mode:lr-tb;fill:#2e2a2b;fill-opacity:1;fill-rule:nonzero;stroke:none"
   transform="scale(1,-1)"><tspan
     y="-63.236736"
     x="236.49542"
     id="tspan1199"
     sodipodi:role="line"
     style="font-style:normal;font-variant:normal;font-weight:normal;font-stretch:normal;font-family:Alcubierre;-inkscape-font-specification:Alcubierre;letter-spacing:2.25px">shankhnaadofficial@gmail.com</tspan></text>

</g></g></g></svg>