<?xml version="1.0" standalone="yes"?>
<svg xmlns="http://www.w3.org/2000/svg" width="1000" height="1080">
<path style="fill:#ffffff; stroke:none;" d="M0 0L0 1080L1000 1080L1000 0L0 0z"/>
<path style="fill:#414143; stroke:none;" d="M635 157C635.199 132.922 642.934 109.081 643 85C625.953 83.6526 609.041 79.8741 592 78.169C565.101 75.4776 538.003 73.6761 511 73.0146C415.724 70.6808 318.153 87.2852 228 118.003C195.319 129.139 162.885 142.31 132 157.753C124.91 161.298 116.504 164.268 110.109 168.966C107.108 171.171 104.956 175.246 107.032 178.852C108.865 182.037 112.757 182.08 116 181.96C124.208 181.656 132.879 179.678 141 178.41C174.362 173.199 208.337 168.791 242 166.086C284.684 162.655 327.316 159.834 370 156.911C384.643 155.908 399.298 155 414 155C418.984 155 425.18 153.673 430 154.728C435.64 155.962 441.117 160.469 446 163.4C458.002 170.605 469.866 178.151 481 186.654C485.072 189.764 489.049 193.01 493 196.27C494.979 197.903 497.214 200.315 500 200.248C502.76 200.182 505.034 197.772 507 196.127C510.916 192.849 514.902 189.678 519 186.63C533.898 175.549 550.885 162.812 568 155.417C573.184 153.178 580.415 155 586 155C602.359 155 618.672 156.955 635 157M463 182C464.529 201.346 467.989 220.655 469.83 240C473.52 278.773 474.668 319.004 472.961 358C471.076 401.028 461 443.921 461 487L539 487C539 443.926 528.924 401.032 527.039 358C525.332 319.004 526.48 278.773 530.17 240C532.012 220.644 535.472 201.364 537 182C527.541 186.495 519.049 193.991 511 200.615C508.084 203.014 504.107 208.283 500 208.284C495.972 208.285 491.853 203.14 489 200.754C480.971 194.04 472.504 186.516 463 182M460 493C460 507.054 458.653 520.991 458.039 535C456.638 567.004 455.44 599.01 454.039 631C451.997 677.646 452.004 724.348 449.961 771C448.765 798.299 449.157 825.68 447.961 853C447.298 868.14 444.271 886.031 447.519 901C450.071 912.763 461.169 919.661 472 922.856C492.172 928.807 520.253 930.047 539 918.907C553.347 910.381 553 897.839 553 883C553 858.715 552.747 834.202 551.089 810C550.407 800.037 551.397 789.976 550.961 780C549.137 738.36 548.784 696.651 546.961 655C545.516 622.013 544.406 589.001 542.961 556C542.042 535.014 540 514.035 540 493L460 493z"/>
</svg>
