<?xml version="1.0" standalone="yes"?>
<svg xmlns="http://www.w3.org/2000/svg" width="1562" height="2200">
<path style="fill:#efe8df; stroke:none;" d="M0 0L0 2200L1562 2200L1562 0L0 0z"/>
<path style="fill:#0f0703; stroke:none;" d="M200 571L200 1720L1421 1720L1421 869L1421 650L1421 593C1421 588.103 1423.12 576.582 1419.97 572.603C1417.08 568.954 1405.23 571 1401 571L1346 571L1121 571L200 571z"/>
<path style="fill:#efe8df; stroke:none;" d="M387 971C389.595 968.059 390.404 964.374 392.363 961C394.959 956.532 398.823 952.943 403 950C400.687 957.107 398.558 963.404 399.09 971C399.728 980.12 403.555 988.81 403.961 998C405.952 1043.09 406.097 1093.83 427.274 1135C435.499 1150.99 459.732 1144.56 464.32 1164C468.943 1183.59 462.845 1206.04 457.576 1225C454.348 1236.61 449.228 1252.71 456.228 1263.96C462.047 1273.31 477.645 1271.94 487 1270.2C490.614 1269.52 497.281 1267 500.682 1269.07C503.774 1270.95 502.999 1275.96 503 1279C503.004 1287.34 503.698 1295.91 505.927 1304C507.976 1311.44 512.794 1318.17 520 1321.27C523.068 1322.59 527.991 1322.18 530.397 1324.6C532.688 1326.91 531.91 1331.07 532.039 1334C532.321 1340.36 533.727 1346.64 534 1353C547.525 1353.29 554.535 1362.37 556.75 1375C559.695 1391.8 555.271 1414.59 574 1423.6C593.082 1432.77 611.785 1420.13 630 1415.38C653.698 1409.2 681.931 1408.91 705 1417.81C715.763 1421.96 726.01 1427.44 731.676 1438C736.563 1447.11 735 1458 735 1468C739.963 1465.65 744.507 1462.43 749 1459.28C751.326 1457.65 754.052 1454.83 757 1454.5C761.283 1454.01 766.486 1459.12 770 1461.13C779.179 1466.36 788.98 1469.73 799 1472.91C824.302 1480.96 852.07 1478.97 877 1471L877 1489C892.91 1480.13 901.843 1464.11 915.001 1452.17C921.778 1446.02 928.731 1439.44 936 1433.9C950.118 1423.14 965.188 1413.58 975.841 1399C990.631 1378.76 997.587 1350.5 1019 1335.62C1030.89 1327.37 1045.32 1329 1059 1329C1085.24 1329 1120.79 1331.47 1142 1312.81C1146.65 1308.72 1150.75 1303.87 1152.91 1298C1157.06 1286.71 1155.33 1273.77 1160.99 1263C1168.43 1248.81 1185.3 1247.93 1194.61 1236C1204.43 1223.4 1191.65 1212.03 1179 1211L1179 1204C1183.38 1204 1187.71 1204.14 1192 1203.1C1194.77 1202.43 1197.57 1201.53 1200 1200.01C1222.14 1186.08 1188.32 1157.98 1200.65 1141.04C1205.84 1133.92 1215.36 1133.27 1223 1130.46C1232.24 1127.05 1239.97 1119.58 1242.7 1110C1248.34 1090.19 1233 1076.92 1224.31 1061C1215.7 1045.23 1211.42 1027.37 1207.5 1010C1205.49 1001.09 1205.58 992.411 1209.49 984C1215.67 970.718 1228.67 959.313 1229.91 944C1231.6 923.066 1222.71 903.727 1212.57 886C1208.47 878.837 1202.51 871.87 1200 864C1207.03 863.694 1213.42 861.288 1220 859C1237.62 852.87 1257.66 843.333 1270.91 829.911C1280.49 820.199 1282.98 804.682 1275.44 793.015C1265.22 777.2 1247.41 783.473 1232 782.957C1225.22 782.73 1218.85 779.921 1213 776.688C1203.83 771.62 1195.87 764.115 1188 757.282C1182.14 752.19 1175.5 747.605 1170.17 741.961C1163.68 735.094 1158.88 726.622 1151.96 720.174C1143.73 712.501 1132.69 709.326 1124.01 702.331C1115.99 695.859 1112.04 685.049 1102 681.119C1090.33 676.549 1077.06 679.853 1065 679.996C1055.59 680.108 1046.35 679.244 1037 679.015C1021.71 678.64 1006.13 679.21 991 676.536C969.417 672.722 952.648 658.972 930 665.427C911.723 670.637 894.816 679.471 877 685.946C867.24 689.493 856.548 690.554 847 694.677C833.851 700.354 822.685 712.058 808 713.816C796.188 715.229 784.102 708.826 773 705.745C760.797 702.359 747.609 702 735 702C698.201 702 661.687 704.354 625 705.961C595.017 707.274 563.573 707.321 535 718.065C510.139 727.413 492.082 746.031 470 759.946C457.519 767.811 443.325 772.603 432 782.3C418.625 793.752 410.122 809.907 401.576 825C392.052 841.819 381.946 857.095 377.015 876C372.818 892.089 374.584 911.42 382.666 926C384.833 929.909 387.457 933.58 390.438 936.911C392.055 938.717 394.905 940.595 395.463 943.089C396.25 946.608 392.083 951.025 390.609 954C387.938 959.39 387.049 965.043 387 971z"/>
</svg>
