<?xml version="1.0" encoding="UTF-8" standalone="no"?>
<!-- Created with Inkscape (http://www.inkscape.org/) -->

<svg
   xmlns:osb="http://www.openswatchbook.org/uri/2009/osb"
   xmlns:dc="http://purl.org/dc/elements/1.1/"
   xmlns:cc="http://creativecommons.org/ns#"
   xmlns:rdf="http://www.w3.org/1999/02/22-rdf-syntax-ns#"
   xmlns:svg="http://www.w3.org/2000/svg"
   xmlns="http://www.w3.org/2000/svg"
   xmlns:xlink="http://www.w3.org/1999/xlink"
   xmlns:sodipodi="http://sodipodi.sourceforge.net/DTD/sodipodi-0.dtd"
   xmlns:inkscape="http://www.inkscape.org/namespaces/inkscape"
   width="210mm"
   height="297mm"
   viewBox="0 0 210 297"
   version="1.1"
   id="svg8"
   inkscape:version="0.92.4 (5da689c313, 2019-01-14)"
   sodipodi:docname="theShawshankRedemption.svg">
  <defs
     id="defs2">
    <linearGradient
       inkscape:collect="always"
       id="linearGradient2677">
      <stop
         style="stop-color:#0b0b0b;stop-opacity:0.96086955"
         offset="0"
         id="stop2673" />
      <stop
         style="stop-color:#202020;stop-opacity:0;"
         offset="1"
         id="stop2675" />
    </linearGradient>
    <linearGradient
       id="linearGradient2634"
       osb:paint="solid">
      <stop
         style="stop-color:#803300;stop-opacity:1;"
         offset="0"
         id="stop2632" />
    </linearGradient>
    <linearGradient
       inkscape:collect="always"
       xlink:href="#linearGradient2677"
       id="linearGradient2679"
       x1="1073.7319"
       y1="1558.401"
       x2="-240.30757"
       y2="-346.91919"
       gradientUnits="userSpaceOnUse" />
  </defs>
  <sodipodi:namedview
     id="base"
     pagecolor="#ffffff"
     bordercolor="#666666"
     borderopacity="1.0"
     inkscape:pageopacity="0.0"
     inkscape:pageshadow="2"
     inkscape:zoom="0.9899495"
     inkscape:cx="186.1315"
     inkscape:cy="286.99514"
     inkscape:document-units="mm"
     inkscape:current-layer="layer1"
     showgrid="false"
     inkscape:window-width="1366"
     inkscape:window-height="691"
     inkscape:window-x="0"
     inkscape:window-y="0"
     inkscape:window-maximized="1"
     showguides="false"
     inkscape:guide-bbox="true">
    <inkscape:grid
       type="xygrid"
       id="grid1082" />
    <sodipodi:guide
       position="163.70259,188.02411"
       orientation="0.70710678,0.70710678"
       id="guide2664"
       inkscape:locked="false" />
    <sodipodi:guide
       position="59.601105,108.47802"
       orientation="0.70710678,0.70710678"
       id="guide2666"
       inkscape:locked="false" />
  </sodipodi:namedview>
  <metadata
     id="metadata5">
    <rdf:RDF>
      <cc:Work
         rdf:about="">
        <dc:format>image/svg+xml</dc:format>
        <dc:type
           rdf:resource="http://purl.org/dc/dcmitype/StillImage" />
        <dc:title></dc:title>
      </cc:Work>
    </rdf:RDF>
  </metadata>
  <g
     inkscape:label="Layer 1"
     inkscape:groupmode="layer"
     id="layer1">
    <rect
       style="fill:#803300;fill-opacity:1;stroke:#000000;stroke-width:6.0683465;stroke-miterlimit:4;stroke-dasharray:none;stroke-opacity:0.39393945;paint-order:fill markers stroke;opacity:1"
       id="rect885"
       width="177.20641"
       height="261.79474"
       x="19.000483"
       y="21.496426"
       rx="0"
       ry="0" />
    <path
       style="fill:url(#linearGradient2679);stroke:none;stroke-width:0.99999994px;stroke-linecap:butt;stroke-linejoin:miter;stroke-opacity:1;opacity:0.62;fill-opacity:1"
       d="M 627.05273 420.21094 L 225.26367 712.52344 L 583.44727 1070.707 L 741.57031 1070.707 L 741.57031 534.72852 L 627.05273 420.21094 z "
       id="path2668"
       transform="scale(0.26458333)" />
    <path
       inkscape:connector-curvature="0"
       style="fill:#ffffff;stroke:none;stroke-width:2.54699993;stroke-miterlimit:4;stroke-dasharray:none;stroke-opacity:0.30303034"
       d="m 173.43829,138.25 c -0.38798,-0.42792 -0.50893,-0.9641 -0.80182,-1.45503 -0.38813,-0.65011 -0.96583,-1.17232 -1.59033,-1.60053 0.34581,1.03409 0.66412,1.95032 0.58458,3.05556 -0.0954,1.32698 -0.66756,2.5914 -0.72825,3.92857 -0.29768,6.56072 -0.31936,13.94353 -3.48551,19.93388 -1.22971,2.3266 -4.85277,1.39101 -5.53872,4.21959 -0.69118,2.85039 0.22053,6.11693 1.00829,8.87567 0.48261,1.68928 1.24811,4.03188 0.20154,5.66879 -0.86999,1.36045 -3.20203,1.16111 -4.60069,0.90793 -0.54033,-0.0989 -1.53711,-0.46561 -2.04559,-0.16441 -0.46228,0.27354 -0.34641,1.00251 -0.34656,1.44484 -6.2e-4,1.21349 -0.10436,2.46045 -0.43761,3.63757 -0.30635,1.08254 -1.02668,2.06177 -2.10404,2.51283 -0.4587,0.19207 -1.19473,0.13241 -1.55445,0.48453 -0.34252,0.33611 -0.22621,0.9414 -0.24549,1.36772 -0.0422,0.9254 -0.25238,1.83916 -0.29319,2.76456 -2.02211,0.0422 -3.07017,1.36335 -3.40133,3.20106 -0.44031,2.44444 0.22112,5.76045 -2.57903,7.07143 -2.85293,1.33426 -5.6492,-0.5049 -8.37251,-1.19603 -3.54307,-0.89921 -7.76416,-0.9414 -11.21318,0.35357 -1.60916,0.60384 -3.14118,1.40119 -3.9883,2.9377 -0.73065,1.32553 -0.49697,2.91006 -0.49697,4.36509 -0.74202,-0.34193 -1.42138,-0.81045 -2.09313,-1.26879 -0.34776,-0.23717 -0.75531,-0.64748 -1.19607,-0.6955 -0.64035,-0.0713 -1.41825,0.67222 -1.94362,0.96468 -1.37234,0.76098 -2.83768,1.25133 -4.33577,1.71402 -3.78287,1.1713 -7.93444,0.88175 -11.66172,-0.27791 v 2.61906 c -2.378691,-1.29062 -3.714249,-3.62157 -5.681493,-5.35888 -1.013221,-0.89483 -2.052756,-1.85224 -3.139539,-2.65833 -2.11077,-1.56561 -4.363864,-2.95662 -5.956593,-5.07805 -2.211243,-2.94498 -3.25122,-7.05688 -6.452656,-9.22196 -1.777665,-1.20041 -3.935075,-0.96323 -5.980362,-0.96323 -3.923124,0 -9.238167,0.35939 -12.409259,-2.35569 -0.695209,-0.59511 -1.308195,-1.3008 -1.631139,-2.1549 -0.620466,-1.64272 -0.361815,-3.52553 -1.20804,-5.0926 -1.112347,-2.06468 -3.634562,-2.19273 -5.026491,-3.92857 -1.468181,-1.83334 0.442549,-3.48771 2.333838,-3.63757 v -1.01852 c -0.654847,0 -1.302224,0.0204 -1.943621,-0.13096 -0.414138,-0.0975 -0.832765,-0.22843 -1.19607,-0.4496 -3.310129,-2.02685 1.746263,-6.11548 -0.09721,-8.5803 -0.775952,-1.03598 -2.199282,-1.13056 -3.34153,-1.53942 -1.381468,-0.49616 -2.537176,-1.58307 -2.945333,-2.97698 -0.843226,-2.88242 1.45024,-4.81324 2.749475,-7.12964 1.287274,-2.29458 1.927171,-4.89326 2.513245,-7.42064 0.300513,-1.29643 0.287052,-2.55925 -0.297522,-3.78308 -0.923969,-1.93257 -2.867591,-3.59202 -3.052978,-5.82011 -0.252671,-3.04595 1.076465,-5.85983 2.592488,-8.43916 0.612996,-1.04224 1.504063,-2.05596 1.879329,-3.20106 -1.051044,-0.0445 -2.006414,-0.39461 -2.990175,-0.72752 -2.63435,-0.89193 -5.630515,-2.27959 -7.611508,-4.23253 -1.4323,-1.41312 -1.804576,-3.67088 -0.677279,-5.36847 1.527985,-2.30113 4.190735,-1.38838 6.494672,-1.46347 1.013672,-0.033 1.966042,-0.44175 2.840669,-0.91216 1.370997,-0.73741 2.561097,-1.82941 3.737736,-2.82362 0.876117,-0.7409 1.868858,-1.40803 2.665742,-2.22925 0.97031,-0.99917 1.68795,-2.23187 2.722564,-3.17007 1.230451,-1.11644 2.88103,-1.57841 4.178774,-2.596204 1.19906,-0.9417 1.789625,-2.51458 3.290688,-3.08641 1.744773,-0.66495 3.728756,-0.18421 5.531842,-0.1634 1.40688,0.0163 2.788348,-0.10942 4.186256,-0.14274 2.285996,-0.0546 4.615344,0.0284 6.877408,-0.3607 3.226868,-0.55495 5.733978,-2.55561 9.120062,-1.61639 2.732574,0.75807 5.260327,2.04344 7.92397,2.98557 1.45921,0.5161 3.05778,0.67048 4.4853,1.27039 1.96589,0.82602 3.63531,2.528984 5.83085,2.784784 1.766,0.20559 3.57297,-0.72606 5.23282,-1.174364 1.82446,-0.49267 3.79619,-0.54491 5.68134,-0.54491 5.50178,0 10.96096,0.34252 16.44599,0.57634 4.48273,0.19104 9.1839,0.19789 13.45582,1.761174 3.71694,1.36016 6.41663,4.06913 9.71809,6.09379 1.86602,1.14438 3.98815,1.84163 5.68134,3.25258 1.99969,1.6663 3.27096,4.01689 4.54867,6.21297 1.42393,2.44721 2.93486,4.66991 3.6721,7.42064 0.62748,2.341 0.36345,5.15371 -0.84488,7.27514 -0.32399,0.56877 -0.71629,1.10291 -1.16199,1.58758 -0.24176,0.26278 -0.66785,0.53603 -0.75128,0.89892 -0.11766,0.51202 0.50534,1.15471 0.72572,1.58758 0.39934,0.78426 0.53225,1.60679 0.53958,2.47355 z"
       id="path1057" />
    <path
       style="fill:#5b2907;stroke:none;stroke-width:0.11778338;fill-opacity:1"
       d="m 88.000108,131.49858 c -0.02486,-2.6652 -0.994383,-5.30417 -1.002652,-7.9697 2.136525,-0.14914 4.256115,-0.56739 6.391885,-0.75613 3.37127,-0.29791 6.767489,-0.49732 10.151799,-0.57054 11.94105,-0.25833 24.16972,1.57962 35.46868,4.97978 4.09595,1.23265 8.16093,2.69055 12.03178,4.39994 0.88859,0.3924 1.94213,0.72115 2.74362,1.24117 0.37612,0.24408 0.64583,0.69514 0.38565,1.09429 -0.22973,0.35255 -0.71752,0.35731 -1.12398,0.34402 -1.02872,-0.0336 -2.11546,-0.25259 -3.13327,-0.39295 -4.18129,-0.5768 -8.43941,-1.06473 -12.65843,-1.36414 -5.34963,-0.37978 -10.69275,-0.69204 -16.04238,-1.01559 -1.83521,-0.11102 -3.67194,-0.21153 -5.51456,-0.21153 -0.62465,0 -1.40119,-0.14688 -2.00529,-0.0301 -0.70686,0.1366 -1.3933,0.63548 -2.0053,0.95991 -1.50421,0.79752 -2.99115,1.63279 -4.38659,2.57399 -0.51034,0.34425 -1.00877,0.70355 -1.50397,1.0644 -0.24802,0.18076 -0.52813,0.44774 -0.87731,0.44033 -0.34591,-0.007 -0.63091,-0.27407 -0.87733,-0.45616 -0.49078,-0.36284 -0.99035,-0.71384 -1.50397,-1.05122 -1.86717,-1.22656 -3.996169,-2.63643 -6.141219,-3.45498 -0.6497,-0.24784 -1.55597,-0.0462 -2.25594,-0.0462 -2.0503,0 -4.09483,0.2164 -6.141223,0.22138 m 21.556932,2.76729 c -0.19163,2.14141 -0.62529,4.27873 -0.85602,6.42004 -0.46248,4.29179 -0.60635,8.74498 -0.39241,13.06146 0.23625,4.76278 1.49908,9.51062 1.49908,14.27905 h -9.7758 c 0,-4.76788 1.26283,-9.51583 1.49907,-14.27905 0.21395,-4.31648 0.0701,-8.76967 -0.39241,-13.06146 -0.23085,-2.14252 -0.6645,-4.27663 -0.85601,-6.42004 1.18551,0.49755 2.24982,1.32729 3.2586,2.0605 0.36547,0.26555 0.86392,0.84877 1.37865,0.84888 0.50484,1.2e-4 1.02107,-0.56939 1.37864,-0.83349 1.00627,-0.74318 2.06746,-1.57601 3.25861,-2.07589 m 0.37599,34.42469 c 0,1.55564 0.16883,3.09833 0.24576,4.64899 0.1756,3.54254 0.32575,7.08529 0.50134,10.62627 0.25592,5.16327 0.25505,10.33272 0.5111,15.49665 0.14993,3.02173 0.10085,6.05255 0.25065,9.0766 0.0832,1.67585 0.46248,3.65621 0.0554,5.31314 -0.31985,1.30205 -1.71078,2.06559 -3.06823,2.41925 -2.52818,0.65872 -6.04759,0.79597 -8.39717,-0.43712 -1.798129,-0.94374 -1.754649,-2.33202 -1.754649,-3.97456 0,-2.68811 0.0317,-5.40146 0.23951,-8.08039 0.0856,-1.10281 -0.0386,-2.21646 0.0161,-3.32071 0.2286,-4.60914 0.27286,-9.22593 0.501325,-13.83629 0.18111,-3.65134 0.32021,-7.30545 0.501327,-10.95834 0.11519,-2.32295 0.3711,-4.64512 0.3711,-6.97349 z"
       id="path1149"
       inkscape:connector-curvature="0" />
    <flowRoot
       xml:space="preserve"
       id="flowRoot2656"
       style="fill:black;fill-opacity:1;stroke:none;font-family:sans-serif;font-style:normal;font-weight:normal;font-size:40px;line-height:1.25;letter-spacing:0px;word-spacing:0px"><flowRegion
         id="flowRegion2658"><rect
           id="rect2660"
           width="2.8571429"
           height="112.85714"
           x="1041.4286"
           y="-46.051743" /></flowRegion><flowPara
         id="flowPara2662" /></flowRoot>    <flowRoot
       xml:space="preserve"
       id="flowRoot3816"
       style="font-style:normal;font-variant:normal;font-weight:normal;font-stretch:normal;font-size:40px;line-height:1.25;font-family:'LEMON MILK';-inkscape-font-specification:'LEMON MILK';text-align:end;letter-spacing:0px;word-spacing:0px;text-anchor:end;fill:#f4e3d7;fill-opacity:1;stroke:none"
       transform="matrix(0.26458333,0,0,0.27185795,-8.9202382,3.6872274)"><flowRegion
         id="flowRegion3818"
         style="font-style:normal;font-variant:normal;font-weight:normal;font-stretch:normal;font-family:'LEMON MILK';-inkscape-font-specification:'LEMON MILK';text-align:end;text-anchor:end;fill:#f4e3d7"><rect
           id="rect3820"
           width="682.4729"
           height="604.13049"
           x="71.812851"
           y="81.24633"
           style="font-style:normal;font-variant:normal;font-weight:normal;font-stretch:normal;font-family:'LEMON MILK';-inkscape-font-specification:'LEMON MILK';text-align:end;text-anchor:end;fill:#f4e3d7" /></flowRegion><flowPara
         style="font-style:normal;font-variant:normal;font-weight:300;font-stretch:normal;line-height:0.25;font-family:'LEMON MILK';-inkscape-font-specification:'LEMON MILK Light';fill:#f4e3d7"
         id="flowPara3828">GET BUSY </flowPara><flowPara
         style="font-style:normal;font-variant:normal;font-weight:300;font-stretch:normal;line-height:0.25;font-family:'LEMON MILK';-inkscape-font-specification:'LEMON MILK Light';fill:#f4e3d7"
         id="flowPara3832">LIVING</flowPara><flowPara
         style="font-style:normal;font-variant:normal;font-weight:300;font-stretch:normal;line-height:0.25;font-family:'LEMON MILK';-inkscape-font-specification:'LEMON MILK Light';fill:#f4e3d7"
         id="flowPara3834">OR</flowPara><flowPara
         style="font-style:normal;font-variant:normal;font-weight:300;font-stretch:normal;line-height:0.25;font-family:'LEMON MILK';-inkscape-font-specification:'LEMON MILK Light';fill:#f4e3d7"
         id="flowPara3846">GET BUSY</flowPara><flowPara
         style="font-style:normal;font-variant:normal;font-weight:300;font-stretch:normal;line-height:0.25;font-family:'LEMON MILK';-inkscape-font-specification:'LEMON MILK Light';fill:#f4e3d7"
         id="flowPara3850">DYING</flowPara><flowPara
         style="font-style:normal;font-variant:normal;font-weight:300;font-stretch:normal;line-height:0.25;font-family:'LEMON MILK';-inkscape-font-specification:'LEMON MILK Light';fill:#f4e3d7"
         id="flowPara3836" /></flowRoot>    <flowRoot
       xml:space="preserve"
       id="flowRoot3880"
       style="font-style:normal;font-weight:normal;font-size:40px;line-height:1.25;font-family:sans-serif;letter-spacing:0px;word-spacing:0px;fill:#000000;fill-opacity:1;stroke:none"
       transform="matrix(0,0.20744733,-0.17155122,0,189.11967,145.66835)"><flowRegion
         id="flowRegion3882"><rect
           id="rect3884"
           width="606.09155"
           height="76.771591"
           x="112.12693"
           y="926.55011" /></flowRegion><flowPara
         id="flowPara3886"
         style="font-style:normal;font-variant:normal;font-weight:normal;font-stretch:normal;font-family:Alcubierre;-inkscape-font-specification:Alcubierre;fill:#f9f9f9">THE SHAWSHANK REDEMPTION</flowPara></flowRoot>    <path
       style="opacity:1;fill:none;fill-opacity:1;fill-rule:nonzero;stroke:#fffdfd;stroke-width:0.4912301;stroke-miterlimit:4;stroke-dasharray:none;stroke-opacity:1;paint-order:fill markers stroke"
       id="path174"
       sodipodi:type="arc"
       sodipodi:cx="28.191929"
       sodipodi:cy="-26.684061"
       sodipodi:rx="2.0562763"
       sodipodi:ry="2.2401388"
       sodipodi:start="0"
       sodipodi:end="3.1415927"
       d="m 30.248205,-26.684061 a 2.0562763,2.2401388 0 0 1 -1.028138,1.940017 2.0562763,2.2401388 0 0 1 -2.056276,0 2.0562763,2.2401388 0 0 1 -1.028138,-1.940017"
       sodipodi:open="true"
       transform="rotate(90)" />
    <rect
       style="opacity:0.62000002;fill:none;fill-opacity:1;fill-rule:nonzero;stroke:none;stroke-width:0.4912301;stroke-miterlimit:4;stroke-dasharray:none;stroke-opacity:1;paint-order:fill markers stroke"
       id="rect987"
       width="3.0195384"
       height="3.1310015"
       x="27.680254"
       y="23.911274" />
    <rect
       style="opacity:1;fill:#ffffff;fill-opacity:1;fill-rule:nonzero;stroke:none;stroke-width:0.4171378;stroke-miterlimit:4;stroke-dasharray:none;stroke-opacity:1;paint-order:fill markers stroke"
       id="rect993"
       width="5.2522097"
       height="0.47063935"
       x="26.674177"
       y="25.901037" />
    <path
       transform="rotate(-90)"
       sodipodi:open="true"
       d="m -28.238544,26.671408 a 2.0562763,2.2401388 0 0 1 -1.028139,1.940017 2.0562763,2.2401388 0 0 1 -2.056276,0 2.0562763,2.2401388 0 0 1 -1.028138,-1.940017"
       sodipodi:end="3.1415927"
       sodipodi:start="0"
       sodipodi:ry="2.2401388"
       sodipodi:rx="2.0562763"
       sodipodi:cy="26.671408"
       sodipodi:cx="-30.294821"
       sodipodi:type="arc"
       id="path995"
       style="opacity:1;fill:none;fill-opacity:1;fill-rule:nonzero;stroke:#fffdfd;stroke-width:0.4912301;stroke-miterlimit:4;stroke-dasharray:none;stroke-opacity:1;paint-order:fill markers stroke" />
    <rect
       y="-32.585938"
       x="-26.724091"
       height="0.47063935"
       width="3.2525589"
       id="rect997"
       style="opacity:1;fill:#ffffff;fill-opacity:1;fill-rule:nonzero;stroke:none;stroke-width:0.32826245;stroke-miterlimit:4;stroke-dasharray:none;stroke-opacity:1;paint-order:fill markers stroke"
       transform="scale(-1)" />
    <path
       style="opacity:1;fill:none;fill-opacity:1;fill-rule:nonzero;stroke:#fffdfd;stroke-width:0.4912301;stroke-miterlimit:4;stroke-dasharray:none;stroke-opacity:1;paint-order:fill markers stroke"
       id="path174-3"
       sodipodi:type="arc"
       sodipodi:cx="-27.801804"
       sodipodi:cy="31.853781"
       sodipodi:rx="1.6654449"
       sodipodi:ry="1.8143605"
       sodipodi:start="0"
       sodipodi:end="3.1415927"
       d="m -26.136359,31.853781 a 1.6654449,1.8143605 0 0 1 -0.832722,1.571282 1.6654449,1.8143605 0 0 1 -1.665445,0 1.6654449,1.8143605 0 0 1 -0.832722,-1.571282"
       sodipodi:open="true"
       transform="rotate(-90)" />
    <rect
       style="opacity:1;fill:#ffffff;fill-opacity:1;fill-rule:nonzero;stroke:#fffdfd;stroke-width:0.25524548;stroke-miterlimit:4;stroke-dasharray:none;stroke-opacity:1;paint-order:fill markers stroke"
       id="rect1014"
       width="0.46672827"
       height="3.9885817"
       x="10.676482"
       y="36.02747"
       transform="matrix(1,0,0.58066049,0.81414581,0,0)" />
    <rect
       transform="matrix(1,0,0.58066049,0.81414581,0,0)"
       y="36.02747"
       x="8.7720881"
       height="3.9885817"
       width="0.46672827"
       id="rect1016"
       style="opacity:1;fill:#ffffff;fill-opacity:1;fill-rule:nonzero;stroke:#fffdfd;stroke-width:0.25524548;stroke-miterlimit:4;stroke-dasharray:none;stroke-opacity:1;paint-order:fill markers stroke" />
    <rect
       style="opacity:1;fill:#ffffff;fill-opacity:1;fill-rule:nonzero;stroke:#fffdfd;stroke-width:0.3292;stroke-miterlimit:4;stroke-dasharray:none;stroke-opacity:1;paint-order:fill markers stroke"
       id="rect1018"
       width="0.020270972"
       height="2.1460958"
       x="26.701824"
       y="28.242735"
       ry="0"
       transform="matrix(0.9999973,-0.0023243,0.00275854,0.9999962,0,0)" />
    <rect
       transform="matrix(0.99974889,-0.02240895,2.8605361e-4,0.99999996,0,0)"
       ry="0"
       y="28.657278"
       x="26.650331"
       height="2.3373775"
       width="0.0022899718"
       id="rect1022"
       style="opacity:1;fill:#ffffff;fill-opacity:1;fill-rule:nonzero;stroke:#fffdfd;stroke-width:0.11547224;stroke-miterlimit:4;stroke-dasharray:none;stroke-opacity:1;paint-order:fill markers stroke" />
    <flowRoot
       xml:space="preserve"
       id="flowRoot1024"
       style="font-style:normal;font-weight:normal;font-size:40px;line-height:1.25;font-family:sans-serif;letter-spacing:0px;word-spacing:0px;fill:#ffffff;fill-opacity:1;stroke:none"
       transform="matrix(0.02061251,0,0,0.01827096,15.232575,23.384837)"><flowRegion
         id="flowRegion1026"
         style="fill:#ffffff"><rect
           id="rect1028"
           width="616.59705"
           height="149.90662"
           x="379.00925"
           y="586.98065"
           style="fill:#ffffff" /></flowRegion><flowPara
         id="flowPara1032"
         style="text-align:center;text-anchor:middle" /></flowRoot>    <text
       xml:space="preserve"
       style="font-style:normal;font-weight:normal;font-size:0.7805953px;line-height:1.25;font-family:sans-serif;letter-spacing:0.56963938px;word-spacing:0px;fill:#ffffff;fill-opacity:1;stroke:none;stroke-width:0.01951488"
       x="21.971041"
       y="35.769428"
       id="text1038"
       transform="scale(1.0680822,0.93625752)"><tspan
         sodipodi:role="line"
         id="tspan1036"
         x="21.971041"
         y="35.769428"
         style="font-style:normal;font-variant:normal;font-weight:normal;font-stretch:normal;font-family:'LEMON MILK';-inkscape-font-specification:'LEMON MILK';letter-spacing:0.56963938px;fill:#ffffff;stroke-width:0.01951488">Soumya Roy</tspan></text>
    <flowRoot
       transform="matrix(0,0.20744733,-0.17155122,0,189.11967,145.66835)"
       style="font-style:normal;font-weight:normal;font-size:40px;line-height:1.25;font-family:sans-serif;letter-spacing:0px;word-spacing:0px;fill:#000000;fill-opacity:1;stroke:none"
       id="flowRoot1482"
       xml:space="preserve"><flowRegion
         id="flowRegion1478"><rect
           y="926.55011"
           x="112.12693"
           height="76.771591"
           width="606.09155"
           id="rect1476" /></flowRegion><flowPara
         style="font-style:normal;font-variant:normal;font-weight:normal;font-stretch:normal;font-family:Alcubierre;-inkscape-font-specification:Alcubierre;fill:#f9f9f9"
         id="flowPara1480">THE SHAWSHANK REDEMPTION</flowPara></flowRoot>    <flowRoot
       xml:space="preserve"
       id="flowRoot1490"
       style="font-style:normal;font-weight:normal;font-size:40px;line-height:1.25;font-family:sans-serif;letter-spacing:0px;word-spacing:0px;fill:#000000;fill-opacity:1;stroke:none"
       transform="matrix(0,0.20744733,-0.17155122,0,189.11967,145.66835)"><flowRegion
         id="flowRegion1486"><rect
           id="rect1484"
           width="606.09155"
           height="76.771591"
           x="112.12693"
           y="926.55011" /></flowRegion><flowPara
         id="flowPara1488"
         style="font-style:normal;font-variant:normal;font-weight:normal;font-stretch:normal;font-family:Alcubierre;-inkscape-font-specification:Alcubierre;fill:#f9f9f9">THE SHAWSHANK REDEMPTION</flowPara></flowRoot>  </g>
</svg>
