<?xml version="1.0" encoding="UTF-8" standalone="no"?>
<!-- Created with Inkscape (http://www.inkscape.org/) -->

<svg
   xmlns:dc="http://purl.org/dc/elements/1.1/"
   xmlns:cc="http://creativecommons.org/ns#"
   xmlns:rdf="http://www.w3.org/1999/02/22-rdf-syntax-ns#"
   xmlns:svg="http://www.w3.org/2000/svg"
   xmlns="http://www.w3.org/2000/svg"
   xmlns:sodipodi="http://sodipodi.sourceforge.net/DTD/sodipodi-0.dtd"
   xmlns:inkscape="http://www.inkscape.org/namespaces/inkscape"
   width="210mm"
   height="297mm"
   viewBox="0 0 210 297"
   version="1.1"
   id="svg2381"
   inkscape:version="0.92.5 (2060ec1f9f, 2020-04-08)"
   sodipodi:docname="shanknaadsvg.svg"
   inkscape:export-filename="/home/soumya/Pictures/Paid work/shanknaadsvg.png"
   inkscape:export-xdpi="100"
   inkscape:export-ydpi="100">
  <defs
     id="defs2375" />
  <sodipodi:namedview
     id="base"
     pagecolor="#ffffff"
     bordercolor="#666666"
     borderopacity="1.0"
     inkscape:pageopacity="0.0"
     inkscape:pageshadow="2"
     inkscape:zoom="0.24748737"
     inkscape:cx="390.69245"
     inkscape:cy="384.70511"
     inkscape:document-units="mm"
     inkscape:current-layer="layer1"
     showgrid="false"
     inkscape:window-width="1366"
     inkscape:window-height="664"
     inkscape:window-x="0"
     inkscape:window-y="27"
     inkscape:window-maximized="1" />
  <metadata
     id="metadata2378">
    <rdf:RDF>
      <cc:Work
         rdf:about="">
        <dc:format>image/svg+xml</dc:format>
        <dc:type
           rdf:resource="http://purl.org/dc/dcmitype/StillImage" />
        <dc:title />
      </cc:Work>
    </rdf:RDF>
  </metadata>
  <g
     inkscape:label="Layer 1"
     inkscape:groupmode="layer"
     id="layer1">
    <rect
       style="opacity:0.78580005;fill:#00ccff;fill-opacity:1;fill-rule:evenodd;stroke:none;stroke-width:0.24694444;stroke-linejoin:miter;stroke-miterlimit:4;stroke-dasharray:none;stroke-dashoffset:142.29919434;stroke-opacity:1;paint-order:fill markers stroke"
       id="rect2408"
       width="66.498611"
       height="26.458336"
       x="-1300.6161"
       y="204.39584"
       rx="42.333332"
       ry="42.333332" />
    <path
       style="fill:#005544;fill-opacity:1;stroke:none;stroke-width:0.15593386"
       d="m 71.333481,55.427097 c 6.274038,-0.01886 9.266284,-0.974733 13.422368,-4.582952 7.4866,-6.445198 11.33594,-9.650814 23.514601,-10.888967 -5.30437,2.44187 -10.338361,5.454791 -14.874431,10.281075 -4.53606,4.826285 -13.701263,10.079887 -22.062538,5.190844 z"
       id="path126"
       inkscape:connector-curvature="0"
       sodipodi:nodetypes="ccczc"
       inkscape:export-xdpi="100"
       inkscape:export-ydpi="100" />
    <path
       d="M 87.221829,168.85887 C 108.09246,158.66534 108.00437,138.92847 105.15842,125.90873 97.684409,94.059213 60.324836,94.682401 72.591933,58.761962 c 0,0 -16.389577,19.660395 -5.191638,35.951664 13.564424,16.044454 52.768395,45.172134 19.821534,74.145244"
       style="fill:#005544;fill-opacity:1;fill-rule:nonzero;stroke:none;stroke-width:0.02068967"
       id="path14"
       inkscape:connector-curvature="0"
       sodipodi:nodetypes="ccccc" />
    <path
       sodipodi:nodetypes="ccccc"
       inkscape:connector-curvature="0"
       id="path2439"
       style="fill:#005544;fill-opacity:1;fill-rule:nonzero;stroke:none;stroke-width:0.01586699"
       d="m 109.96889,42.825279 c 12.7758,9.793874 14.6205,24.533563 12.87838,37.042818 -4.57517,30.600773 -27.444551,30.002023 -19.93534,64.514083 0,0 -11.551661,-17.48176 -4.696921,-33.1343 8.303361,-15.415372 31.922031,-40.585441 11.753881,-68.422601" />
    <path
       inkscape:export-ydpi="100"
       inkscape:export-xdpi="100"
       sodipodi:nodetypes="cccccccc"
       inkscape:connector-curvature="0"
       id="path3248"
       d="m 67.008655,51.298512 c 2.216231,0.0019 4.346468,0.101222 6.424447,-0.761591 1.839844,-0.763868 3.029369,-1.6419 4.408634,-2.816177 3.533736,-3.008278 6.050683,-6.754202 11.631693,-8.257041 2.25839,-0.459825 5.26734,-0.729203 7.38309,-0.306817 -5.0075,1.200936 -7.68646,2.979709 -10.31193,5.841328 -3.11765,3.469633 -6.86373,7.43863 -12.035718,7.996034 -2.646626,0.127732 -5.488901,-0.445508 -7.500216,-1.695736 z"
       style="fill:#005544;fill-opacity:1;stroke:none;stroke-width:0.12518577" />
    <path
       style="opacity:1;fill:#005544;fill-opacity:1;fill-rule:evenodd;stroke:none;stroke-width:0.16253196;stroke-linejoin:miter;stroke-miterlimit:4;stroke-dasharray:none;stroke-dashoffset:142.29919434;stroke-opacity:1;paint-order:fill markers stroke"
       d="m 65.91915,32.940449 a 8.2913602,8.2910313 0 0 0 -2.196578,11.517739 8.2913602,8.2910313 0 0 0 11.518202,2.1965 8.2913602,8.2910313 0 0 0 1.99308,-1.92671 c -3.597894,-0.639165 -7.095525,-0.388897 -11.728072,1.210945 1.815941,-1.940786 5.074769,-3.705747 7.72142,-4.735343 1.973813,-0.614501 3.831881,-0.829789 5.622037,-0.812468 A 8.2913602,8.2910313 0 0 0 77.437352,35.136947 8.2913602,8.2910313 0 0 0 65.91915,32.940449 Z"
       id="path3252"
       inkscape:connector-curvature="0" />
    <path
       sodipodi:nodetypes="ccczc"
       inkscape:connector-curvature="0"
       id="path3269"
       style="fill:#005544;fill-opacity:1;fill-rule:nonzero;stroke:none;stroke-width:0.03234749"
       d="m 118.2399,41.726355 c 28.02648,18.555205 32.07326,46.480626 28.25154,70.180375 -10.03664,57.97539 -54.707991,62.49887 -38.23489,127.88456 0,0 -25.121946,-37.47727 -11.636311,-68.09985 C 110.10592,141.06889 162.48318,94.465918 118.2399,41.726355" />
  </g>
</svg>
