<?xml version="1.0" standalone="yes"?>
<svg xmlns="http://www.w3.org/2000/svg" width="1000" height="1080">
<path style="fill:#ffffff; stroke:none;" d="M0 0L0 1000L1000 1000L1000 0L0 0z"/>
<path style="fill:#05060b; stroke:none;" d="M366 272C345.151 273.648 321.353 279.237 303 289.439C282.206 300.998 265.767 317.534 249.925 335C241.026 344.811 228.224 356.995 227.093 371C226.613 376.948 226.394 384.012 233 386C234.75 408.18 244.426 426.729 266 435.546C274.167 438.884 283.201 440.557 292 440.961C296.387 441.162 301.307 440.772 302.682 446.019C303.909 450.7 302.781 456.316 302.13 461C300.637 471.745 298.539 482.369 296.4 493C291.108 519.29 287.245 546.064 289.09 573C290.443 592.76 294.035 612.313 300.692 631C305.393 644.195 312.185 656.552 316.279 670C325.801 701.274 329.511 733.702 333.718 766C335.718 781.351 338.519 796.613 340.166 812C340.969 819.505 342.162 828.396 337.347 834.956C331.343 843.137 318.763 840.416 310 842.503C298.212 845.311 289.664 854.561 284.258 865C282.097 869.174 277.924 875.05 279.758 879.957C281.737 885.252 289.122 887.195 294 888.572C307.925 892.502 323.775 891.653 338 890.05C353.912 888.258 370.066 882.948 381.961 871.826C402.452 852.667 407 817.565 407 791C410.623 795.106 412.194 801.14 414.782 806C418.229 812.476 422.975 818.704 428.09 823.961C437.472 833.605 451.143 838.236 460 848C439.16 847.943 411.687 843.363 395.465 860.3C391.237 864.714 388.439 870.278 386.44 876C385.505 878.674 384.467 881.958 386.607 884.348C390.111 888.26 398.162 888.574 403 889.155C418.464 891.012 434.427 890.006 450 890C470.928 889.992 492.077 888.527 513 888.015C541.074 887.327 569.074 888.582 597 885.286C617.23 882.897 641.208 874.765 650 854C682.48 863.127 717.038 849.553 739.985 826C746.688 819.12 752.308 810.35 754.841 801C755.713 797.781 756.955 793.265 755.687 790.015C754.14 786.049 749.428 783.382 746 781.229C736.71 775.395 726.062 771.228 715 771C744.412 699.289 704.563 616.563 660.21 560C649.946 546.911 639.161 533.473 626.999 522.089C612.795 508.794 598.046 496.08 582 485.026C570.005 476.762 557.241 469.388 544 463.309C531.315 457.485 517.947 453.347 506 445.934C488.306 434.957 473.878 419.016 465.312 400C456.859 381.237 456 360.191 456 340C456 328.465 456.428 316.164 462.454 306C471.853 290.145 487.047 281.343 500 268.961C515.981 253.684 529.112 235.332 541.333 217C554.945 196.582 567.632 176.711 564.826 151C564.417 147.246 562.899 140.644 557.985 140.752C553.684 140.846 549.158 146.3 546 148.789C537.672 155.354 528.815 161.123 520 167C487.228 188.848 448.157 205.193 429.753 242C426.562 248.382 423.067 254.876 422 262C420.441 256.576 421.859 250.517 422.754 245C423.998 237.326 424.913 229.586 426.651 222C430.154 206.717 436.136 192.155 440.116 177C443.949 162.403 445.521 147.905 447.285 133C448.542 122.386 448.23 111.609 447.169 101C446.778 97.092 447.091 92.6056 444.86 89.1481C440.856 82.9419 433.668 88.5867 430 92.0432C418.505 102.875 406.98 114.353 397.475 127C371.874 161.064 361.186 206.681 363.039 249C363.378 256.722 365.028 264.351 366 272z"/>
<path style="fill:#ffffff; stroke:none;" d="M420 262L420 265C420.696 263.446 420.696 263.554 420 262z"/>
<path style="fill:#05060b; stroke:none;" d="M0 1000L0 1080L1000 1080L1000 1000L0 1000z"/>
<path style="fill:#ffffff; stroke:none;" d="M211 1030C216.813 1025.89 220.456 1029.73 218 1036C224.488 1029.62 215.31 1022.19 211 1030M30 1028L39 1054C43.3448 1052.59 43.9351 1049.05 45.3441 1045C47.3124 1039.34 49.6458 1033.85 51 1028C45.197 1031.97 42.5501 1045.3 41 1052C37.9224 1045.06 36.7303 1032.1 30 1028M86 1028C86 1035.84 82.9476 1050.68 92 1054C88.7508 1047.57 88 1043.25 88 1036L92 1036L92 1034L88 1034L88 1028L86 1028M126 1049L125 1053C127.654 1053.34 130.318 1053.91 133 1053.95C139.254 1054.02 147.633 1047.74 141.566 1041.42C138.852 1038.59 132.825 1039 130.921 1035.61C129.945 1033.88 131.479 1032.35 133.078 1031.85C136.005 1030.93 139.317 1033.05 142 1034L143 1031C138.067 1028.41 122.588 1026.2 126.619 1036.9C128.449 1041.75 134.521 1041.04 137.623 1044.43C139.698 1046.69 138.56 1049.05 135.937 1050.09C132.635 1051.4 129.168 1050 126 1049M147 1028C147 1034.48 145.64 1042.68 147.318 1048.96C148.444 1053.17 152.564 1054.63 155 1051C149.188 1048.07 150 1042.79 150 1037L155 1037L155 1034L150 1034L150 1028L147 1028M194 1028L194 1054L198 1054L198 1045C202.157 1048.69 204.005 1053.53 210 1054C208.146 1050.74 203.108 1045.96 203.73 1042C204.186 1039.09 207.365 1036.34 209 1034C204.486 1034.69 201.586 1037.31 198 1040L198 1028L194 1028M214 1028L214 1034C215.848 1032.92 215.966 1033.05 218 1034L218 1029L214 1028z"/>
<path style="fill:#05060b; stroke:none;" d="M215 1029L215 1031L217 1031L217 1029L215 1029z"/>
<path style="fill:#ffffff; stroke:none;" d="M211 1033L212 1034L211 1033M65 1051C58.6261 1052.18 54.3116 1051.72 52 1045L65 1045C64.9252 1041.91 64.88 1038.7 62.5664 1036.32C57.6289 1031.24 51.0501 1036.3 50.2176 1042C49.0476 1050.02 59.1178 1059.33 65 1051M83 1051C80.3855 1051.48 77.5691 1052.25 75.0548 1050.96C70.1956 1048.45 69.3493 1042.03 73.2793 1038.32C75.9832 1035.76 79.6117 1036.38 83 1036C81.3504 1034.87 80.0721 1034.21 77.9815 1034.15C76.3056 1034.1 74.5885 1034.36 73.1049 1035.18C67.3248 1038.38 66.8279 1047.12 71.419 1051.57C74.7829 1054.82 80.4896 1054.87 83 1051M100.019 1034.75C89.475 1038.78 94.697 1057.54 105.985 1053.25C116.662 1049.2 111.248 1030.45 100.019 1034.75M115 1034L115 1054L117 1054C117 1049.73 116.005 1043.95 118.023 1040.05C119.232 1037.72 121.549 1036.16 123 1034C120.646 1034.75 119.05 1035.6 117 1037C116.594 1034.91 116.783 1034.98 115 1034M162.044 1034.74C152.026 1038.77 157.351 1057.92 168.956 1053.26C178.974 1049.23 173.649 1030.08 162.044 1034.74M191 1053L191 1051L190 1050C184.098 1050.77 176.636 1045.47 182.518 1039.45C184.69 1037.22 188.175 1037.55 191 1037L191 1035C188.337 1034.37 185.745 1033.79 183.043 1034.66C176.612 1036.72 175.169 1045.97 179.434 1050.77C182.567 1054.3 186.867 1054.21 191 1053M213 1035C214.543 1036.27 215.048 1036.49 217 1037C215.623 1036.09 214.56 1035.6 213 1035z"/>
<path style="fill:#05060b; stroke:none;" d="M52 1043L64 1043C61.2959 1035.35 53.8494 1033.94 52 1043M100.214 1036.75C92.3499 1040.19 96.8722 1055.16 105.786 1051.25C113.65 1047.81 109.128 1032.84 100.214 1036.75M163.228 1038.05C157.405 1041.32 161.013 1053.75 167.772 1049.95C173.595 1046.68 169.987 1034.25 163.228 1038.05z"/>
<path style="fill:#ffffff; stroke:none;" d="M724 1039L729 1053L731 1053L736 1039C732.344 1041.23 731.679 1045.21 730 1049C728.321 1045.21 727.656 1041.23 724 1039M791 1048L791 1050C788.498 1050.4 786.511 1050.36 784 1050C787.174 1054.49 795.262 1051.45 791.243 1046.7C789.949 1045.17 787.793 1044.64 786 1044L786 1042L793 1041C790.143 1039.06 782.215 1039.14 785.236 1044.59C786.371 1046.63 788.979 1047.28 791 1048M823 1039L823 1053L825 1053L825 1048C827.013 1049.85 828.607 1051.68 831 1053C829.516 1049.05 829.256 1046.89 831 1043C828.695 1043.67 827.035 1044.7 825 1046L825 1039L823 1039M881 1039C879.829 1044.06 877.761 1048.85 877 1054C880.502 1050.03 881.818 1044.11 883 1039L881 1039M885 1042C887.511 1041.64 889.498 1041.6 892 1042C889.34 1045.75 885.973 1048.38 885 1053L895 1053L895 1051L887 1051C889.131 1049.12 892.564 1046.94 893.248 1043.98C894.635 1037.99 887.454 1039.51 885 1042M897 1039L897 1041L901 1041L899 1046L903 1047C901.194 1050.2 899.58 1050.4 896 1050C900.307 1056.09 908.183 1049 901 1045C902.639 1043.02 903.85 1041.29 905 1039L897 1039M909 1045C911.239 1042.5 912.68 1041.51 916 1041L916 1039C912.703 1039.25 909.896 1039.88 908.18 1043.06C906.309 1046.52 907.41 1052.05 911.975 1052.53C915.414 1052.9 917.468 1049.03 915.354 1046.33C913.665 1044.18 911.322 1044.62 909 1045M919 1039L918 1046C924.937 1045.23 924.938 1050.77 918 1050C922.463 1056.29 930.263 1048.28 924.59 1044.18C923.215 1043.18 921.603 1043.18 920 1043C922.166 1041.8 923.553 1041.31 926 1041L926 1039L919 1039M934 1039C932.273 1042.7 930.158 1046.06 929 1050C932.108 1050.23 933.746 1050.85 936 1053C938.372 1048.84 937.013 1043.66 937 1039L934 1039M943 1045C945.239 1042.5 946.679 1041.51 950 1041L950 1039C946.703 1039.25 943.896 1039.88 942.18 1043.06C940.309 1046.52 941.41 1052.05 945.975 1052.53C949.414 1052.9 951.468 1049.03 949.354 1046.33C947.665 1044.18 945.322 1044.62 943 1045M952 1043C953.797 1043 953.522 1042.99 955 1042C954.986 1046.06 954.448 1049.22 953 1053L959 1053C957.175 1048.24 957 1044.07 957 1039C954.643 1040.1 953.624 1040.96 952 1043M964.323 1040.09C959.75 1042.7 960.871 1056.2 967.679 1051.95C971.522 1049.56 970.142 1036.76 964.323 1040.09z"/>
<path style="fill:#05060b; stroke:none;" d="M964 1041C964.839 1043.63 965.374 1044.16 968 1045L968 1041L964 1041z"/>
<path style="fill:#ffffff; stroke:none;" d="M759 1042C758.232 1046.56 758.743 1050.65 763 1053C761.786 1049.8 760.9 1047.9 763 1045L761 1042L759 1042M795 1042C794.236 1046.52 794.346 1051.13 799 1053C797.786 1049.8 796.9 1047.9 799 1045L797 1042L795 1042z"/>
<path style="fill:#05060b; stroke:none;" d="M934 1042L931 1048L935 1048C934.953 1045.75 934.874 1044.05 934 1042z"/>
<path style="fill:#ffffff; stroke:none;" d="M746 1051C742.973 1050.45 741.207 1050.16 739 1048L746 1048C745.742 1047.15 745.669 1045.88 744.971 1045.16C738.666 1038.61 733.266 1052.92 742.877 1052.51C744.232 1052.45 744.954 1051.7 746 1051M757 1052C751.659 1049.5 748.784 1045.63 757 1045C749.797 1039.63 744.689 1051.2 752.999 1052.68C754.436 1052.93 755.657 1052.37 757 1052M768.225 1043.79C763.297 1045.75 765.659 1053.83 770.957 1052.29C776.991 1050.53 774.142 1041.43 768.225 1043.79M777 1043L777 1053L779 1053C779.125 1049.07 780.328 1046.48 782 1043L777 1043M804.225 1043.79C798.785 1045.95 802.26 1054.41 807.775 1052.21C813.215 1050.05 809.74 1041.59 804.225 1043.79M822 1050C814.878 1051.17 815.249 1045.52 822 1045C820.941 1044.21 820.32 1043.4 818.877 1043.38C808.595 1043.21 816.043 1058.4 822 1050M847 1052C841.659 1049.5 838.784 1045.63 847 1045C839.797 1039.63 834.689 1051.2 842.999 1052.68C844.436 1052.93 845.657 1052.37 847 1052M851.225 1043.79C846.297 1045.75 848.659 1053.83 853.957 1052.29C859.991 1050.53 857.142 1041.43 851.225 1043.79M860 1043L860 1053L862 1053C862.139 1048.73 862.708 1046.3 867 1045L867 1053L869 1053C869.125 1049.12 869.502 1046.93 873 1045L873 1053L875 1053C874.988 1048.9 874.862 1040.68 869 1045C865.931 1043.39 863.406 1043.26 860 1043z"/>
<path style="fill:#05060b; stroke:none;" d="M739 1045L739 1047L744 1047L744 1045L739 1045M768.603 1046.08C766.132 1047.87 768.918 1051.71 771.397 1049.92C773.868 1048.13 771.082 1044.29 768.603 1046.08M804.603 1046.08C802.132 1047.87 804.918 1051.71 807.397 1049.92C809.868 1048.13 807.082 1044.29 804.603 1046.08M851.603 1046.08C849.132 1047.87 851.918 1051.71 854.397 1049.92C856.868 1048.13 854.082 1044.29 851.603 1046.08M910.643 1047.07C908.453 1048.69 911.404 1051.38 913.357 1049.93C915.547 1048.31 912.596 1045.62 910.643 1047.07M944.643 1047.07C942.453 1048.69 945.404 1051.38 947.357 1049.93C949.547 1048.31 946.596 1045.62 944.643 1047.07M964 1046C963.453 1049.55 964.453 1050.55 968 1050L968 1048L964 1046z"/>
<path style="fill:#ffffff; stroke:none;" d="M833 1051L833 1053L835 1053L835 1051L833 1051z"/>
</svg>
