<?xml version="1.0" standalone="yes"?>
<svg xmlns="http://www.w3.org/2000/svg" width="900" height="1100">
<path style="fill:#f9f9f9; stroke:none;" d="M0 0L0 984C4.08952 974.893 5.04199 964.312 9.30864 955C17.0187 938.173 27.1252 922.159 36.1397 906C50.241 880.723 64.0992 855.312 78.1389 830C122.655 749.741 167.127 669.444 211.306 589C232.387 550.614 253.525 512.244 274.86 474C282.072 461.073 289.613 448.234 296.247 435C298.929 429.65 303.165 423.812 304.582 418C305.943 412.417 305 405.72 305 400L305 366L305 257L305 145L305 108C305 102.235 305.814 95.7818 304.852 90.0934C304.096 85.6235 299 83.0701 296.093 79.9854C291.003 74.5825 287.405 67.4982 287.04 60C286.639 51.75 285.964 42.1522 287.326 34C289.684 19.8755 301.366 3.61023 316 1C308.121 -2.30615 295.534 0 287 0L223 0L0 0z"/>
<path style="fill:#020202; stroke:none;" d="M316 0.467651C301.326 3.23608 290.508 17.9844 287.518 32C286.291 37.7515 287 44.1469 287 50C287 58.0496 286.641 65.5979 290.377 73C292.266 76.7421 294.922 80.0011 298.014 82.8156C300.171 84.7792 303.222 86.381 304.397 89.1844C305.708 92.3152 305 96.6781 305 100L305 124L305 205L305 349L305 394C305 401.244 306.303 409.941 304.582 417C303.165 422.812 298.929 428.65 296.247 434C288.932 448.591 280.551 462.694 272.694 477C203.387 603.198 133.002 728.801 63.6944 855C51.2306 877.695 38.7551 900.386 26.1397 923C9.98077 951.965 -5.36376 979.726 2.01466 1014C10.5878 1053.82 48.109 1090.07 88 1098.19C99.8984 1100.62 111.92 1100 124 1100L177 1100L612 1100L745 1100C767.836 1100 793.806 1103.4 816 1097.25C868.274 1082.77 909.921 1030.16 897.575 975C894.096 959.457 886.181 945.729 878.424 932C871.117 919.066 864.098 905.973 856.86 893C829.593 844.122 802.636 795.058 775.694 746C733.537 669.237 691.584 592.284 648.576 516C634.775 491.522 620.415 467.084 607.752 442C603.301 433.182 595.089 423.025 594.105 413C593.013 401.874 594 390.181 594 379L594 313L594 111C594 104.916 592.027 94.548 595.028 89.1042C596.557 86.3301 599.684 84.8564 601.96 82.7909C605.53 79.5517 608.236 75.4205 610.12 71C612.993 64.261 613 57.1831 613 50C613 35.343 611.5 22.6287 601.381 11.0903C591.338 -0.361572 578.959 0 565 0L529 0L386 0L340 0C332.217 0 323.669 -0.979248 316 0.467651z"/>
<path style="fill:#f9f9f9; stroke:none;" d="M584 0C589.029 3.18445 594.375 5.0625 598.829 9.30017C612.455 22.2625 614.153 40.2799 612.911 58C612.376 65.6309 609.595 73.1056 604.671 78.9962C601.394 82.9168 595.008 85.6496 594.148 91.0154C593.127 97.3894 594 104.548 594 111L594 151L594 274L594 371L594 401C594 406.131 593.224 412.019 594.637 417C596.599 423.912 601.067 430.775 604.576 437C609.228 445.253 613.521 453.72 618.14 462C632.24 487.276 646.039 512.724 660.14 538C705.039 618.483 748.96 699.515 793.86 780C818.719 824.56 843.112 869.38 867.861 914C880.053 935.981 897.881 960 899 986C902.004 978.841 900 967.744 900 960L900 902L900 700L900 0L584 0M340 74L340 336L340 412C340 422.141 342.59 436.54 338.637 446C332.05 461.759 322.451 476.98 314.309 492L268.309 577C221.078 664.32 174.005 751.725 126.691 839L86.6914 913C71.7266 940.667 57.7556 969.263 69.814 1001C72.9659 1009.3 77.5191 1017.25 83.3002 1024C97.6754 1040.8 118.287 1053.18 140 1057.55C151.153 1059.79 162.679 1059 174 1059L226 1059L674 1059C725.52 1059 787.489 1068.26 823.335 1022C829.422 1014.14 833.662 1004.78 835.539 995C841.321 964.866 827.158 938.604 813.309 913C797.81 884.346 782.656 855.493 766.861 827C724.989 751.463 684.78 674.965 643.691 599L591.691 503C581.65 484.478 570.791 466.067 561.824 447C557.408 437.611 560 423.204 560 413L560 339L560 74C565.899 73.9961 571.49 73.8688 575.57 68.895C578.986 64.7302 578.992 59.1017 579 54C579.016 44.2299 579.542 32.9799 568 29.6382C562.181 27.9535 555.01 29 549 29L512 29L389 29L347 29C340.566 29 332.622 27.7844 327.043 31.7029C319.163 37.2374 320.997 47.6274 321 56C321.002 61.0221 320.897 65.7344 324.533 69.6705C328.769 74.2559 334.26 73.9994 340 74z"/>
<path style="fill:#020202; stroke:none;" d="M501 78.6528C494.669 80.6362 490.623 86.575 490.093 93C488.684 110.096 490 127.842 490 145L490 355L490 391C490 397.09 489.087 404.049 490.533 410C492.602 418.513 501.572 423.641 510 421.442C518.588 419.202 521.896 411.116 521.996 403C522.229 384.006 522 364.995 522 346L522 137L522 107C522 101.406 522.574 95.4489 521.072 90C518.664 81.2687 509.936 75.8534 501 78.6528M550 519.465C527.84 523.453 508.136 539.816 489 550.719C460.118 567.175 429.478 579.618 396 581.911C376.407 583.252 355.798 579.937 337 574.573C331.771 573.08 319.281 566.008 314.39 569.644C309.126 573.556 305.793 584.279 302.691 590L277.691 636C246.822 693.071 215.614 749.959 184.691 807C168.412 837.03 151.971 866.97 135.691 897C121.415 923.335 106.969 950.872 119.873 981C122.166 986.354 125.066 991.42 128.669 996C143.009 1014.23 164.998 1026.72 188 1029.71C200.001 1031.27 212.902 1030 225 1030L282 1030L585 1030L679 1030C696.631 1030 715.698 1032.02 733 1028.11C766.077 1020.64 796.821 996.395 796.821 960C796.821 949.5 793.86 938.787 790.305 929C785.491 915.75 777.997 903.368 771.309 891C760.748 871.473 750.44 851.727 740.258 832C705.384 764.432 669.704 697.25 634.219 630C618.44 600.096 603.862 569.043 586.547 540C578.536 526.564 566.494 516.496 550 519.465z"/>
<path style="fill:#f9f9f9; stroke:none;" d="M504 647.529C483.453 652.238 480.724 683.212 502 689.362C505.879 690.483 511.087 690.412 515 689.467C541.116 683.161 530.131 641.541 504 647.529M364 774C357.701 781.964 352.402 790.899 350.461 801C347.756 815.073 348.89 830.039 355.37 843C372.453 877.165 417.262 887.249 448 865.561C485.075 839.402 480.291 781.279 441 759.9C420.538 748.767 399.331 752.547 379 761C385.072 750.557 387.066 738.484 382.535 727C373.434 703.929 343.027 696.229 324.015 712.329C305.682 727.853 307.972 758.531 328 771.451C338.847 778.449 352.256 778.377 364 774M0 1003L0 1100L96 1100C88.5128 1096.64 79.6918 1096.15 72 1092.69C46.1039 1081.02 23.6241 1061.3 10.3202 1036C6.8793 1029.46 4.25817 1022.17 2.47531 1015C1.49609 1011.06 1.56341 1006.69 0 1003M899 1006C897.501 1040.4 868.123 1070.81 840 1086.85C828.974 1093.14 815.859 1098.73 803 1099C811.118 1102.41 824.203 1100 833 1100L900 1100L900 1035C900 1026.47 902.306 1013.88 899 1006z"/>
</svg>
