<?xml version="1.0" standalone="yes"?>
<svg xmlns="http://www.w3.org/2000/svg" width="380" height="380">
<path style="fill:#fefefe; stroke:none;" d="M0 0L0 380L380 380L380 0L0 0z"/>
<path style="fill:#030303; stroke:none;" d="M224 19C227.647 26.0207 238.148 29.6669 244 35.0903C257.797 47.8755 267.928 64.9803 269.829 84C271.023 95.9402 269.665 108.713 265.564 120C262.22 129.206 257.135 137.614 250.711 145C220.885 179.291 168.631 181.301 136.001 149.961C127.984 142.261 122.11 133.174 117.721 123C113.399 112.983 111.195 101.934 111.594 91C112.324 71.0124 120.834 51.2598 135.17 37.2855C138.517 34.0226 142.135 30.7281 146 28.0934C149.716 25.5605 153.744 24.0042 156 20C142.394 23.2318 129.748 32.2955 120 42.0008C101.073 60.844 88.9267 85.172 87.0895 112C86.0542 127.118 90.8456 140.412 93 155C55.0706 158.098 21.9534 190.861 11.2052 226C6.44949 241.548 5.97381 257.967 8 274L10 274C10.0018 257.353 12.6447 240.202 21.865 226C29.1695 214.749 40.1776 205.047 52 198.782C62.837 193.038 74.7704 190 87 190C124.094 190 157.126 215.512 165.5 252C175.312 294.755 142.96 345.93 97 347.961C83.3023 348.566 70.5599 347.634 58 341.68C50.8263 338.279 44.7509 331.821 37 330C42.282 339.888 56.2085 346.597 66 351.219C95.8393 365.304 130.978 363.005 160 348.244C170.165 343.074 184.049 334.617 189 324L191 324C195.673 333.007 205.601 339.6 214 344.946C242.235 362.919 279.256 365.721 310 352.573C318.322 349.014 326.517 344.744 334 339.656C337.948 336.971 341.619 334.707 343 330C335.556 332.821 329.171 338.322 322 341.88C311.913 346.885 299.186 349.075 288 348.151C273.318 346.939 260.218 343.043 248 334.653C237.836 327.673 229.013 318.756 222.873 308C195.191 259.508 227.981 197.047 283 190.286C292.35 189.137 301.931 190.309 311 192.63C320.822 195.143 329.85 199.323 338 205.378C346.545 211.727 354.168 219.751 359.535 229C367.686 243.046 369.671 260.049 370 276C375.716 268.736 373.508 252.681 372.271 244C367.852 213.003 351.469 186.016 325 168.865C317.579 164.056 309.428 160.637 301 158.025C297.987 157.092 291.824 156.714 290.212 153.57C288.634 150.493 291.656 145.114 292.332 142C294.161 133.566 295.497 123.62 294.91 115C292.746 83.2194 279.048 55.7576 254 35.8009C245.183 28.7765 235.131 21.6439 224 19M253 136C247.082 128.731 237.558 124.234 229 120.8C206.239 111.667 183.42 111.256 160 118.144C151.816 120.551 144.112 124.391 137 129.079C134.723 130.579 130.316 132.895 130.345 136.09C130.389 140.94 140 150.65 145 149.561C150.732 148.313 156.478 142.773 162 140.428C173.837 135.401 187.227 133.934 200 135.17C208.706 136.012 217.215 138.889 225 142.809C228.817 144.731 233.604 149.697 238 149.734C244.236 149.786 249.588 140.233 253 136M267 198C267 206.671 267.932 215.395 266.384 224C261.865 249.119 243.232 274.731 218 282C218.599 289.339 221.371 296.185 224 303C232.361 301.51 241.105 296.106 248 291.279C270.417 275.586 284.404 250.804 288.13 224C289.456 214.467 290.427 203.152 287 194L267 198M94 195C89.8559 227.791 99.6296 260.107 124.015 283.086C132.568 291.146 144.132 299.884 156 302C157.858 297.185 162.836 288.445 161.223 283.213C160.403 280.554 157.239 279.404 154.999 278.245C150.674 276.006 146.772 273.476 143 270.384C132.184 261.518 124.067 250.069 119.065 237C116.09 229.229 114.309 220.334 114.043 212C113.929 208.41 116.143 202.652 113.968 199.513C110.684 194.771 99.1048 195.014 94 195z"/>
<path style="fill:#fefefe; stroke:none;" d="M186.001 196.638C167.14 202.115 176.396 231.498 195 226.21C214.843 220.569 205.916 190.855 186.001 196.638z"/>
</svg>
