<?xml version="1.0" standalone="yes"?>
<svg xmlns="http://www.w3.org/2000/svg" width="900" height="1343">
<path style="fill:#ffffff; stroke:none;" d="M0 0L0 787C7.25961 783.18 18.9039 778.477 22.9722 770.911C25.027 767.089 24 761.199 24 757C24 747.312 23.3267 737.169 27.0941 728C32.4273 715.021 46.8575 715.802 54.1497 705C57.7495 699.668 59.0599 693.052 61.7739 687.286C65.2845 679.827 69.5795 672.861 72.3287 665C75.6749 655.432 82.5368 642.735 94 641.268C99.7603 640.53 105.525 644.7 111 646C109.449 639.487 110 632.659 110 626C108.985 627.139 108.691 627.612 108 629C107.45 623.964 108.784 619.042 109 614C107.077 614.902 107.001 615.076 106 617C105.514 608.452 107.651 600.586 105.625 592C104.483 587.16 100.982 583.4 99.6736 578.83C98.949 576.299 100.284 573.63 99.3573 571.133C98.3401 568.391 95.325 567.709 93.6026 565.586C91.4868 562.978 92.0024 559.138 92 556L96 556L96 551C90.9447 551.159 87.7365 552.234 83 554C83.001 544.693 85.4712 536.013 87.4861 527C88.5951 522.04 88.6485 516.909 90.0039 512C91.1926 507.695 94.6657 498.332 91 495L94 477C92.6859 477.768 92.7678 477.686 92 479C91.7222 474.675 93.9339 471.229 94.2948 467C94.5315 464.225 93.2513 461.729 93.0849 459C92.8828 455.685 93.9036 452.33 93.9853 449C94.08 445.145 95.0709 439.683 92 437C93.794 429.718 94.9213 421.504 94.9213 414C94.9213 408.619 93.6778 403.435 94 398L92 398C94.0681 391.875 96.5287 385.532 96.9051 379.004C97.1228 375.227 95.7486 371.772 96 368C94.1167 364.273 97.0472 360.923 97.6574 357C98.9319 348.806 98.2257 340.254 98.7809 332C99.234 325.263 101.108 319.555 102.575 313C104.241 305.554 105.225 298.117 108.199 291C113.754 277.704 122.49 265.433 127.545 252C134.594 233.266 140.331 210.709 157 198L156 194C157.797 194 157.521 193.986 159 193L158 189C163.363 188.032 167.542 185.005 172 182L171 178C174.904 178.919 177.422 178.859 181 177L181 175C179.365 174.455 179.545 174.635 179 173L184 173C183.109 168.945 181.405 166.325 179 163C181.624 163.975 182.811 166.017 185.194 167.25C187.602 168.495 188.746 166.872 191 169C192.481 167.402 193.061 166.892 195 166L195 161L199 161C201.155 156.677 205.73 152.251 210 150L210 145L213 145L213 141L220 140L220 135L224 135L224 130C226.209 129.316 226.703 128.92 228 127C229.478 127.986 229.203 128 231 128L231 123L235 123L236 118C237.478 118.986 237.203 119 239 119L242 114C243.478 114.986 243.203 115 245 115C246.731 110.114 251.617 108.015 253 103C254.479 103.986 254.203 104 256 104C254.99 101.049 252.553 99.6449 251 97C244.462 96.0844 242.18 91.1567 242 85C246.119 86.1221 249.78 84.474 254 85C256.996 81.1609 264.175 84.6145 268 80L276 82C277.586 78.257 277.986 75.0424 278 71C289.125 73.5505 299.18 77.1765 309 83C309.986 81.5217 310 81.7965 310 80C307.488 76.6667 308.848 74.0613 308.572 70.1698C307.859 60.1102 307.639 51.1104 309 41C315.71 42.6169 326.18 44.6884 330 51C341.572 52.7827 352.826 67.3115 358 77C363.123 73.2562 370.217 70.8224 371 64L378 62L378 58L384 57C385.226 54.9652 385.703 54.6735 388 54L388 50L392 50L392 45L401 48L400 52C403.43 50.4961 405.689 47.65 409 46C409.812 43.2181 410.453 42.3726 413 41L413 36C418.856 35.3317 422.486 30.5023 424 25C426.396 25.5746 426.487 25.4751 427 23C428.478 23.9855 428.203 24 430 24L430 19L434 20L434 15L437 15L437 10C440.225 10.3712 443.099 11.2676 443.523 15.0046C443.716 16.7023 442.69 18.8427 443.907 20.3472C445.203 21.948 447.295 21.0656 448.736 20.2546C452.171 18.3226 457.046 15.3853 459 12C465.996 15.2532 465.21 22.9141 465.126 30C465.018 39.1357 461.918 48.125 460.245 57C458.589 65.7766 458.139 74.5779 455 83C457.402 82.8319 458.46 82.8031 460 81C465.073 82.083 470.27 80.2161 472 75C474.932 76.3359 477.179 77.8136 478 74C479.478 74.9856 479.203 75 481 75L485 70C486.479 70.9857 486.203 71 488 71C490.691 67.7833 494.958 65.5376 497 62C498.479 62.9857 498.203 63 500 63L500 59C501.186 60.1863 501.584 60.528 503 61C504.221 58.5571 506.373 58.8792 507 56C508.479 56.9857 508.203 57 510 57C511.428 55.2438 512.415 54.1747 513 52C515.917 53.3472 521.397 51.6857 523.393 53.6573C525.404 55.6437 523.998 58.7296 523.414 61C521.866 67.0221 518.408 71.9519 517 78L533 78.4552C536.201 78.5236 538.746 79.5665 541 77C546.629 78.2023 552.084 76.7802 558 78C560.7 76.0311 562.757 76.4315 566 77C567.794 73.2885 571.069 77.2341 572 73C576.079 74.491 578.158 72.7927 582.083 72.7222C585.45 72.6616 588.058 75.3743 589 71L598 73C599.956 71.6805 600.608 71.7006 603 72C604.643 68.3733 608.148 70.8971 609 67C615.754 69.8269 620.325 65.5184 626.995 66.4336C631.764 67.0879 633.297 70.6997 631.281 74.8302C628.671 80.1774 624.729 82.4366 620.005 85.6743C618.527 86.6874 616.755 87.74 615.812 89.3241C614.567 91.4167 615.495 93.8297 616 96C626.689 98.7798 636.824 103.252 648 104.997C651.68 105.572 657.057 106.408 657.792 110.965C658.284 114.012 655.176 115.432 653.285 117.125C647.872 121.97 642.365 126.374 636 130C637.637 138.437 643.098 139.907 650.05 142.823C660.491 147.202 670.712 149.876 682 151.917C686.611 152.75 699.713 153.672 701.11 159.039C702.069 162.725 696.687 165.207 695 168C693.521 167.014 693.797 167 692 167C690.701 168.617 689.61 169.672 688 171C689.974 172.241 692.437 173.607 694.866 173.611C697.621 173.616 700.727 171.8 703.412 171.134C708.422 169.891 715.146 169.939 718 165C719.478 165.985 719.203 166 721 166C724.365 163.367 728.501 163.514 730 159C731.478 159.986 731.203 160 733 160C736.145 158.232 740.88 159.461 740.28 164.019C739.836 167.395 736.905 169.895 735.734 173C734.764 175.571 734.865 178.37 733.737 180.911C731.849 185.162 728.962 189.072 726.731 193.155C724.722 196.833 723.255 200.908 719 202C717.945 205.595 716.193 207.096 713 209L713 212C716.288 212.89 718.619 213.537 721 216C722.894 215.535 724.277 214.934 726 214L727 218C733.865 218.872 745.13 220.921 741.407 230.871C739.907 234.881 735.538 236.745 734 241C741.261 245.744 764.009 246.411 752.97 259.137C751.731 260.564 750.648 261.163 749 262C748.007 269.752 743.421 271.75 737 275C740.598 277.307 743.657 279.661 748 280L748 283C750.205 282.906 751.894 282.644 754 282L753 285C762.904 287.614 766.092 283.504 774 278C771.294 281.978 768.381 285.821 766 290C775.334 287.228 777.825 278.504 785 273C780.321 280.459 774.438 286.249 769 293C770.661 292.387 771.484 291.957 773 291L771 296C772.733 297.757 773.341 298.642 774 301C775.416 300.528 775.814 300.186 777 299C777.315 301.33 777.902 302.918 779 305L776 306C777.094 309.997 777.658 312.276 782 313C780.814 314.186 780.416 314.528 779 315C781.323 315.922 782.581 315.687 785 315C783.701 316.617 782.61 317.672 781 319C782.895 321.708 784.801 322.288 788 323C779.851 344.463 765.608 361.376 746 373.066C737.573 378.09 729.284 382.413 719 381.959C708.361 381.49 698.922 373.256 689 370C692.067 378.429 690.035 387.368 690.794 396C691.818 407.646 694.44 419.228 693.961 431C692.975 455.264 685.157 476.892 678.745 500C675.112 513.095 676.203 527.502 670.482 540C668.896 543.462 665.988 546.251 664.704 549.83C663.468 553.274 663.968 556.815 661.486 559.856C659.577 562.194 656.734 562.891 654.465 564.723C651.407 567.191 649.694 570.903 647.392 574C644.723 577.589 641.157 580.435 640.214 585C637.831 596.524 639.716 607.526 640.83 619C641.962 630.65 642.466 642.501 644.807 654C647.183 665.67 653.536 679.265 647.95 691C646.737 693.548 644.979 695.791 642.907 697.696C635.896 704.141 625.871 704.37 617 702.076C610.162 700.308 602.111 696.882 595.059 700.009C590.881 701.862 590.912 706.048 590.245 710C588.815 718.476 585.249 725.84 583 734C587.292 736.485 586.282 741.713 589.847 745.215C602.416 757.56 613.293 773.063 622.765 788C625.443 792.221 627.188 796.78 630.16 800.87C634.227 806.468 638.327 811.919 642.134 817.714C643.832 820.3 646.277 822.791 646.663 825.996C647.274 831.068 641.319 833.223 639 837C634.544 835.629 631.118 835.599 629 831L624 831C620.113 818.77 604.886 809.418 604 796L601 796L602 793C593.882 785.329 588.279 774.323 581.999 765.13C578.906 760.602 574.482 756.89 572 752C567.501 761.038 560.1 765.867 552 771.846C548.326 774.558 542.029 777.789 540.157 782.17C539.065 784.724 540.651 787.594 541.465 790C542.852 794.1 543.941 798.644 543.921 803C543.835 820.985 527.008 832.392 512 838.525C500.727 843.131 490.717 842.057 479 842.001C472.165 841.968 464.726 842.841 458 841.486C442.494 838.363 427.077 831.143 411 832.043C398.841 832.724 390.986 842.793 382.896 850.421C364.454 867.808 343.102 881.995 334 907C348.424 917.99 357.112 935.217 365.258 951C373.175 966.337 381.496 981.685 387.308 998C390.804 1007.81 392.745 1018.58 397.323 1027.96C401.524 1036.56 408.801 1044 414.062 1052C420.446 1061.71 425.735 1072.5 430.681 1083C436.327 1094.99 440.455 1107.73 445.452 1120C451.605 1135.1 458.988 1149.65 464.564 1165C470.954 1182.59 475.822 1200.67 483.012 1218C486.942 1227.47 491.944 1236.37 495.575 1246C502.071 1263.22 506.5 1281.28 511.424 1299C515.296 1312.93 519.96 1327.42 520 1342L900 1342L900 0L0 0z"/>
<path style="fill:#010101; stroke:none;" d="M437 10L437 15L434 15L434 20L430 19L430 24L427 23C426.026 24.996 426.262 24.7808 424 25C421.934 30.0753 418.547 34.8539 413 36L413 41C410.036 41.9683 409.497 42.9337 409 46C405.418 47.1007 403.155 49.9983 400 52L401 48C398.074 46.5662 395.149 45.8234 392 45L392 50L388 50L388 54C385.261 54.2107 384.578 54.3026 384 57C382.521 56.0143 382.797 56 381 56C379.777 57.1951 379.58 57.3165 378 58L378 62C375.488 62.3337 373.38 63.1456 371 64C369.615 70.6626 362.5 72.4604 358 77C354.304 67.0819 341.201 51.8534 330 51C328.948 47.3867 326.296 47.2617 323.134 45.6945C318.155 43.2263 314.527 42.0425 309 41C306.135 54.8901 307.812 68.9602 309 83C300.616 76.3065 288.588 72.5579 278 71C277.956 74.9592 277.174 78.238 276 82L268 80C266.194 81.8182 262.772 83.3824 260 83.3889C256.779 83.3964 254.894 80.8479 254 85C249.795 84.1018 246.182 85.7452 242 85C242.072 91.4534 243.912 96.5012 251 97C252.029 99.8737 254.51 101.346 256 104L253 103C250.9 107.721 246.102 109.817 245 115L242 114C240.573 115.756 239.585 116.825 239 119L236 118L235 123L231 123L231 128L228 127C226.519 128.598 225.938 129.108 224 130L224 135L220 135L220 140L213 141L213 145L210 145L210 150C205.54 151.449 200.378 156.517 199 161L195 161L195 166C192.791 166.684 192.296 167.08 191 169C190.014 167.522 190 167.797 190 166C185.336 167.37 183.288 164.238 179 163C180.709 166.435 182.824 169.27 184 173L179 173C179.768 174.314 179.686 174.232 181 175L181 177C177.361 178.382 174.861 178.676 171 178L172 182C167.222 184.26 163.116 187.495 158 189L159 193L156 194L157 198C145.345 204.05 139.932 219.646 134.769 231C131.528 238.13 129.972 245.971 126.685 253C120.718 265.762 112.768 277.774 107.81 291C105.103 298.221 104.106 305.558 102.346 313C100.883 319.181 98.7264 324.586 98.5841 331C98.3975 339.412 98.973 348.752 97.4313 357C96.7519 360.635 92.9114 365.01 96 368C95.2836 371.929 97.0874 375.099 96.8079 379.004C96.3395 385.547 93.4937 391.694 92 398L94 398C93.1321 403.453 94.821 408.567 94.821 414C94.821 421.608 93.4063 429.536 92 437C96.0591 442.358 93.5819 450.811 92.858 457C92.4487 460.5 94.1337 463.565 93.9005 467C93.6251 471.055 91.5974 474.955 91 479L94 477L91 495C94.2052 499.966 90.6646 507.647 89.4514 513C86.4795 526.112 83 540.569 83 554C87.5699 552.94 91.2737 551.486 96 551L96 556L92 556C92.0003 558.943 91.3496 562.992 93.0278 565.586C94.7279 568.213 98.2622 568.787 99.2269 572.055C99.9675 574.563 98.7306 577.188 99.5988 579.714C101.06 583.968 104.099 587.526 105.37 592C107.719 600.262 106.539 608.716 105 617L109 614L107 629C108.195 627.777 108.316 627.58 109 626C110.933 632.539 109.067 639.461 111 646C105.245 644.041 99.3181 640.191 93 641.232C81.2055 643.174 75.572 655.169 71.9823 665C69.1365 672.793 64.6321 679.737 61.3912 687.286C58.8763 693.143 57.2902 699.829 53.4429 705C45.4446 715.751 31.0354 715.052 26.3627 729C23.3441 738.01 24 747.649 24 757C24 761.867 25.0187 767.822 21.6821 771.829C18.1654 776.053 12.7114 779.402 8 782.128C5.27011 783.707 1.88471 784.971 0.603395 788.105C-1.0056 792.04 0 797.819 0 802L0 833L0 939L0 1343L900 1343C896.301 1341.45 891.983 1342 888 1342L866 1342L789 1342L520 1342C519.99 1326.64 515.131 1311.7 511.151 1297C506.439 1279.6 501.941 1261.88 495.575 1245C492.069 1235.7 487.321 1227.1 483.427 1218C475.909 1200.42 471.074 1181.92 464.564 1164C458.988 1148.65 451.605 1134.1 445.452 1119C440.455 1106.73 436.327 1093.99 430.681 1082C425.567 1071.14 420.104 1059.96 413.388 1050C407.884 1041.83 400.216 1034.16 396.454 1025C392.185 1014.6 389.941 1003.46 385.796 993C379.093 976.08 370.381 960.227 362.247 944C356.036 931.61 346.706 913.592 334 907C339.433 896.685 345.458 885.849 353.464 877.286C362.442 867.681 373.386 860.253 382.896 851.271C390.959 843.654 398.962 833.239 411 832.104C426.384 830.654 442.16 838.498 457 841.486C464.053 842.907 471.833 841.919 479 842.004C483.697 842.06 488.296 843.209 493 842.91C507.443 841.99 523.244 835.763 533.995 825.895C541.605 818.911 545.046 808.186 543.572 798C542.956 793.747 538.851 786.101 540.863 782.17C547.216 769.763 570.142 767.631 571 752C577.339 761.488 584.79 770.887 591.625 780.06C594.739 784.24 597.413 790.353 602 793C601.014 794.479 601 794.203 601 796L604 796C603.423 802.09 607.573 806.184 610.897 810.88C615.26 817.046 620.617 824.336 624 831L629 831C630.433 836.07 634.443 835.896 639 837C641.842 833.846 646.828 831.706 646.887 826.982C646.934 823.193 644.689 820.678 642.706 817.714C639.053 812.254 635.524 806.903 631.46 801.729C627.825 797.102 625.873 791.886 622.765 787.001C615.668 775.841 607.452 764.846 599.155 754.576C595.916 750.566 591.277 746.994 588.464 742.815C586.062 739.247 587.582 735.531 583 734C585.751 727.008 588.503 720.446 589.905 713C590.855 707.955 590.538 702.329 596.019 700.009C602.644 697.206 609.602 700.422 616 702.076C627.289 704.995 641.142 704.369 647.442 692.996C654.047 681.072 647.644 666.057 645.015 654C642.444 642.209 641.994 629.974 640.83 618C639.795 607.34 638.4 597.735 640.069 587C640.867 581.871 644.431 578.983 647.392 575C649.744 571.836 651.512 568.115 654.465 565.429C656.581 563.503 659.562 562.844 661.486 560.698C664.164 557.71 663.768 553.51 665.242 550C666.589 546.789 669.03 544.174 670.482 541C676.047 528.833 675.184 514.796 678.478 502C682.54 486.225 688.963 471.171 691.562 455C694.747 435.176 693.241 416.786 691.245 397C690.37 388.326 692.908 378.123 689 370C697.432 374.101 707.529 381.13 717 381.907C728.423 382.843 737.583 378.681 747 373.066C765.391 362.102 782.411 344.397 788 323C785.061 322.068 783.206 321.155 781 319C783.118 317.782 783.845 317.133 785 315L779 316L782 314C778.631 311.745 777.42 309.784 776 306C777.797 306 777.521 305.986 779 305L777 299C775.584 299.472 775.186 299.814 774 301C773.573 298.356 773.179 297.539 771 296C772.048 294.144 772.513 293.056 773 291L769 293C775.544 287.267 781.468 281.082 785 273C777.181 276.971 774.588 286.223 766 290C769.025 286.185 771.906 282.407 774 278C769.502 280.085 765.943 285.1 761 286.088C758.425 286.602 755.534 285.422 753 285C753.986 283.521 754 283.797 754 282L748 283L748 280C743.941 279.361 741.078 276.628 737 276C743.307 271.891 748.443 270.375 749 262C753.176 260.703 759.905 253.243 755.393 248.857C752.072 245.63 745.252 245.695 741.039 244.437C738.531 243.688 736.362 242.08 734 241C735.881 237.535 739.965 235.253 741.411 231.74C745.808 221.057 734.701 218.609 727 218L726 214L721 216C719.065 212.98 716.43 212.679 713 212L713 209C716.717 207.512 718.354 205.999 719 202C720.479 202.986 720.203 203 722 203C725.363 195.664 730.393 189.145 733.737 181.83C734.884 179.322 734.772 176.55 735.734 174C737.484 169.359 745.774 159.049 735.17 158.524C733.48 158.44 731.684 158.873 730 159C727.803 163.062 723.677 162.854 721 166L718 165C711.326 171.995 696.854 173.049 688 172C689.802 170.334 690.89 169.155 692 167L695 168C697.615 165.043 703.901 162.086 700.816 157.317C698.191 153.257 686.5 152.592 682 151.739C671.043 149.663 661.022 147.175 650.911 142.795C643.83 139.728 638.577 138.047 636 130C643.111 127.265 648.372 122.021 653.969 117.125C656.8 114.648 660.193 112.37 657.137 108.302C654.613 104.942 649.685 105.31 646 104.486C639.407 103.012 632.441 101.79 626.015 99.6914C622.515 98.5486 619.664 96.5459 616 96C615.73 94.0719 614.897 91.5615 615.978 89.7585C617.056 87.9626 619.313 86.7952 621.002 85.6705C625.603 82.6053 629.41 80.0803 631.739 74.8302C634.227 69.2231 630.651 65.9222 625 66.2107C619.002 66.5168 615.048 68.8503 609 67C607.339 70.2649 603.864 67.9702 603 72C600.538 71.3854 599.682 71.105 598 73L589 71C586.651 74.1837 575.977 73.9055 572 73C572 74.797 571.986 74.5214 571 76C568.345 74.3361 566.753 73.5051 566 77C562.89 76.2673 560.236 75.4539 558 78C551.841 76.2692 547.021 77.7505 541 77C535.491 81.0123 523.691 78.0554 517 78C518.953 72.0758 522.037 67.0507 523.695 61C524.343 58.6368 525.854 54.9397 523.41 53.0463C521.237 51.3618 515.89 52.8879 513 52C511.493 54.7627 510.122 55.6177 507 56C505.778 58.443 503.627 58.1206 503 61C501.813 59.8135 501.416 59.4722 500 59L500 63L497 62C494.283 65.2644 489.931 67.0441 488 71L485 70C483.215 71.9073 481.57 72.3269 481 75L478 74C476.2 76.3281 474.798 75.6973 472 75C469.489 79.6549 465.167 81.64 460 81C458.211 82.4215 457.294 82.6974 455 83C458.817 75.3948 458.684 66.2727 460.245 58C462.006 48.6625 465.73 38.6113 465.452 29C465.254 22.1395 466.394 14.3955 459 12C456.868 14.2557 447.905 22.4152 444.689 19.98C442.987 18.6908 443.988 15.8262 443.597 14.0579C442.835 10.6107 440.007 10.2294 437 10z"/>
<path style="fill:#ffffff; stroke:none;" d="M633.667 128.333C633.222 128.778 634.278 128.722 634.333 128.667C634.778 128.223 633.722 128.278 633.667 128.333z"/>
</svg>
