<?xml version="1.0" standalone="yes"?>
<svg xmlns="http://www.w3.org/2000/svg" width="900" height="1343">
<path style="fill:#ffffff; stroke:none;" d="M0 0L0 773C7.13538 764.986 11.6102 757.066 14.7307 747C15.9212 743.16 17.3517 740.064 17 736C20.1909 733.816 20.6673 730.44 22.1728 727C24.5901 721.477 30.377 715.028 30 709C36.052 705.406 37.1016 698.151 40.7076 692.59C47.5857 681.983 55.1992 671.936 64.7145 663.519C67.6227 660.946 70.9422 658.588 75 658.63C81.4803 658.696 88.4422 664.644 94.9599 663.096C98.6222 662.227 100.741 657.922 102.576 655C105.715 650.001 108.691 644.872 112.029 640.001C114.751 636.026 118.028 632.81 119 628L126 630C133.24 611.683 140.91 591.529 143.7 572C147.941 542.314 146.043 511.858 148.09 482C149.191 465.934 153.302 450.056 154.83 434C156.238 419.211 154.223 404.74 157 390C135.205 382.896 114.116 372.188 94 361.309C86.7128 357.368 78.7738 354.227 72 349.402C64.6282 344.151 59.9265 335.94 52.8264 330.818C49.328 328.294 44.8003 327.36 41 325.367C32.6767 321.001 19.8996 308.405 22.0177 298C25.226 282.24 43.9126 278.568 57 275.116C72.4873 271.031 90.0103 272 106 272C128.2 272 150.97 271.235 173 274C179.604 261.613 181.147 249.097 185.344 236C186.993 230.855 189.574 226.112 191.251 221C195.598 207.745 198.465 194.14 203.425 181C205.399 175.771 208.431 171.138 210.525 166C216.875 150.412 221.867 130.218 237 120.66C253.855 110.015 276.966 111.524 296.039 111.974C315.194 112.427 334.31 111.566 353.424 112.822C375.912 114.3 398.528 113.55 421 115.089C455.902 117.48 490.535 121.168 525 127.322C563.479 134.193 600.52 148.625 638.424 157.825C657.979 162.571 677.06 169.13 696 175.819C706.355 179.477 716.879 182.263 727 186.579C738.186 191.349 752.262 196.393 759.297 207C763.014 212.604 762.315 218.698 762.039 225C761.527 236.693 760.513 248.393 760.054 260.089C759.124 283.779 756.18 307.333 755.039 331C754.687 338.282 757.292 344.95 756.907 352C755.941 369.659 752.365 387.302 752 405C766.254 408.298 780.276 413.927 794 418.947C814.284 426.365 834.658 433.983 854 443.653C862.281 447.793 875.871 452.449 880.438 461.09C882.412 464.825 882.088 468.932 882 473L881 471C870.738 485.106 853.275 489.323 837 492.789C813.088 497.882 788.452 499.585 764 497.911C751.315 497.042 738.723 494.008 726 494C726 501.267 726.531 508.764 725.83 516C725.047 524.09 723.218 531.867 723.026 540.04C722.797 549.744 724.973 559.272 725 569C733.94 571.575 743.681 577.721 743.945 588C744.087 593.513 741.791 598.623 741 604C744.86 606.437 744.711 610.377 740.671 613.103C737.852 615.004 734.233 613.509 731.518 615.617C724.94 620.724 720.968 631.423 715.789 638C709.155 646.425 697.724 653.758 692.934 663.325C689.251 670.683 692.806 682.578 694.626 690C698.2 704.576 698.4 718.767 685.961 729.192C682.346 732.221 678.456 734.714 674 736.3C668.846 738.134 663.391 738.409 658 737.561C648.269 736.029 640.472 729.477 631 728C631.627 731.303 633.748 734.617 633.608 738C633.444 741.951 631.248 746.339 629.87 750C626.926 757.816 624.512 764.629 620.552 772C618.076 776.61 617.06 780.752 611.996 783.312C606.498 786.09 598.986 784.139 593 784C594.15 786.578 596.117 789.103 596.281 792.004C596.805 801.271 588.013 807.214 583.521 814.015C580.257 818.956 578.201 825.484 576.061 831C574.028 836.24 571.649 841.466 570.515 847C568.164 858.462 568.597 868.419 562.405 878.999C554.429 892.629 535.798 905.134 520 906.826C511.371 907.751 502.567 905.871 494 905.075C483.416 904.091 473.184 903.256 463 900C468.21 910.952 479.845 915.821 487.856 924.174C490.88 927.327 491.304 931.341 493.39 935C497.577 942.345 503.55 951.659 509.329 957.816C517.097 966.092 528.428 970.918 536.96 978.329C544.465 984.847 552.449 997.542 555.532 1007C560.316 1021.67 559.237 1037.05 561.59 1052C564.534 1070.7 570.935 1089.06 572.829 1108C576.097 1140.65 576.334 1173.68 582.389 1206C585.309 1221.58 587.514 1237.33 590.08 1253C590.878 1257.87 590.16 1266.66 594 1270C593.598 1271.94 593.598 1272.06 594 1274L592 1274C591.303 1278.18 590 1281.63 590 1286C590 1297.09 590.319 1307.27 593 1318C593.711 1320.85 593.636 1325.45 594 1328C594.105 1328.74 591.873 1328.37 595 1329C593.996 1332.49 593.221 1340.39 597.317 1342.4C602.237 1344.8 611.591 1343 617 1343L664 1343L900 1343L900 0L0 0z"/>
<path style="fill:#010101; stroke:none;" d="M173 274C165.396 272.426 157.703 273.298 150 272.961C138.314 272.449 126.741 272 115 272C95.8303 272 74.5883 270.213 56 275.116C42.777 278.604 24.6974 282.038 21.7199 298C19.8274 308.146 30.8572 320.224 39 324.826C43.1085 327.147 48.0313 328.122 51.9097 330.818C59.0604 335.788 63.6595 344.174 71 349.402C85.8766 359.998 104.441 367.76 121 375.374C132.569 380.694 144.543 387.117 157 390C152.564 408.007 155.613 427.594 153.83 446C152.136 463.495 147.999 480.335 147.095 498C145.847 522.39 147.801 547.865 143.536 572C139.998 592.025 131.639 610.508 126 630L119 628C117.568 632.293 114.574 635.315 112.029 639.004C108.451 644.188 105.341 649.696 101.946 655C100.032 657.991 97.8281 662.083 93.9853 662.731C83.8774 664.433 76.4745 654.112 66.4244 661.399C55.6732 669.195 46.8889 681.291 40.1852 692.59C36.7972 698.301 35.0974 704.428 30 709C29.1957 714.7 25.0658 719.802 22.6304 725C20.7984 728.91 20.0514 732.845 17 736C17.2082 741.842 14.2702 752.033 11.1813 757.039C8.04443 762.124 3.22225 766.353 1.0054 772C-2.48236 780.885 0 794.533 0 804L0 1343L596 1343C594.832 1338.26 593.952 1333.82 595 1329C592.238 1325.64 592.98 1320.18 592.424 1316C590.878 1304.37 585.9 1283.88 594 1274L594 1270C590.321 1265.17 590.889 1256.91 589.92 1251C587.402 1235.65 585.249 1220.27 582.389 1205C576.334 1172.68 576.097 1139.65 572.829 1107C570.899 1087.71 564.169 1069.09 561.428 1050C559.409 1035.93 559.677 1021.98 556.098 1008C553.602 998.254 545.376 985.043 537.907 978.329C529.717 970.966 519.254 966.112 511.093 958.675C507.205 955.131 504.903 950.292 501.971 946C499.214 941.964 495.813 938.249 493.39 934C491.77 931.157 491.38 927.751 489.436 925.09C486.129 920.565 480.367 917.338 476.015 913.88C471.11 909.984 466.624 905.106 463 900C472.361 904.028 482.986 904.144 493 905.075C502.25 905.935 511.678 907.825 521 906.826C536.082 905.211 553.725 893.734 561.791 880.985C568.599 870.226 568.086 859.842 570.515 848C571.582 842.793 573.805 837.939 575.684 833C577.911 827.144 580.094 820.258 583.521 815.004C588.207 807.818 598.926 800.099 596.312 790.041C595.734 787.819 594.221 785.9 593 784C599.667 784.393 607.94 786.504 613.956 782.772C618.094 780.204 618.826 775.936 621.126 772C625.316 764.83 627.37 757.755 630.243 750C631.705 746.053 634.053 741.289 633.813 737C633.64 733.889 631.905 730.942 631 728C639.734 730.202 646.928 735.752 656 737.384C661.096 738.302 666.953 738.532 672 737.239C676.344 736.126 680.388 734.159 683.996 731.51C697.809 721.369 698.64 706.563 695.112 691C693.327 683.129 689.752 673.171 692.563 665.093C694.95 658.238 704.085 652.101 708.961 647C714.468 641.238 719.343 634.747 723.576 628C726.004 624.13 728.462 618.325 732.326 615.692C734.841 613.978 738.054 615.15 740.671 613.667C745.108 611.153 745.763 605.921 741 604C743.976 591.018 747.022 579.311 732.999 571.796C730.39 570.398 727.893 569.516 725 569C724.994 559.916 722.867 550.976 723.015 542C723.153 533.547 725.021 525.366 725.83 517C726.562 509.437 726 501.595 726 494C738.367 494.034 750.663 497.066 763 497.911C790.087 499.766 817.667 498.109 844 491.37C853.92 488.832 863.572 486.519 871.999 480.555C875.903 477.792 878.978 475.844 880 471L881 473C888.144 458.012 867.298 449.67 857 444.627C836.531 434.601 815.324 426.549 794 418.576C780.678 413.594 766.103 407.083 752 405C752.746 387.623 755.829 370.348 756.911 353C757.359 345.818 754.695 339.268 755.039 331.999C756.157 308.321 758.74 284.68 760.079 261.004C760.738 249.338 761.51 237.675 762.039 226C762.354 219.049 763.448 212.236 759.297 206.001C752.581 195.911 738.65 191.12 728 186.579C717.879 182.263 707.355 179.477 697 175.819C677.928 169.083 658.738 162.638 639.089 157.709C588.557 145.032 539.659 128.927 488 121.134C444.234 114.532 399.97 116.191 356 112.855C336.349 111.364 316.683 112.689 297.001 111.964C277.422 111.243 253.303 109.728 236 120.66C221.462 129.844 216.626 150.025 210.525 165C208.295 170.473 205.105 175.406 203.053 181C191.782 211.737 184.793 243.603 173 274M748 673L749 674L748 673M692 728L693 729L692 728M634 782L635 783L634 782M750 1209L751 1210L750 1209M761 1214L762 1215L761 1214M773 1215L774 1216L773 1215M745 1217L746 1218L745 1217M769 1224L770 1225L769 1224M750 1228L751 1229L750 1228M737 1230L738 1231L737 1230M759 1230C759.545 1231.64 759.365 1231.45 761 1232C760.455 1230.36 760.635 1230.55 759 1230M781 1231L782 1232L781 1231M769 1246L770 1247L769 1246M740 1247L741 1248L740 1247M736 1248L737 1249L736 1248M782 1248L783 1249L782 1248M751 1250L752 1251L751 1250z"/>
</svg>
