<?xml version="1.0" standalone="yes"?>
<svg xmlns="http://www.w3.org/2000/svg" width="1000" height="1080">
<path style="fill:#ffffff; stroke:none;" d="M0 0L0 1080L1000 1080L1000 914L622 914C633.639 910.56 648.874 913 661 913L740 913L1000 913L1000 0L0 0z"/>
<path style="fill:#aad1eb; stroke:none;" d="M440 168L441 169L440 168M448.667 169.333C448.222 169.778 449.278 169.722 449.333 169.667C449.778 169.222 448.722 169.278 448.667 169.333z"/>
<path style="fill:#dfb7ba; stroke:none;" d="M483 169C486.432 170.44 490.3 170 494 170C490.568 168.56 486.7 169 483 169z"/>
<path style="fill:#f47662; stroke:none;" d="M494 169C497.163 170.327 500.586 170 504 170C500.837 168.673 497.414 169 494 169z"/>
<path style="fill:#dfb7ba; stroke:none;" d="M504 169C507.432 170.44 511.3 170 515 170C511.568 168.56 507.7 169 504 169z"/>
<path style="fill:#aad1eb; stroke:none;" d="M515 169C516.248 169.685 516.549 169.749 518 170C516.752 169.315 516.452 169.251 515 169M551 169L551 171C552.635 170.455 552.455 170.635 553 169L551 169M456.667 170.333C456.222 170.778 457.278 170.722 457.333 170.667C457.778 170.222 456.722 170.278 456.667 170.333M465 171C468.41 172.049 472.391 171.03 476 171C472.393 169.487 468.741 170.109 465 171z"/>
<path style="fill:#dfb7ba; stroke:none;" d="M476.667 170.333C476.222 170.778 477.278 170.722 477.333 170.667C477.778 170.222 476.722 170.278 476.667 170.333z"/>
<path style="fill:#f47662; stroke:none;" d="M478.667 170.333C478.222 170.778 479.278 170.722 479.333 170.667C479.778 170.222 478.722 170.278 478.667 170.333z"/>
<path style="fill:#f0573d; stroke:none;" d="M397 193C402.462 195.292 410.113 194 416 194L456 194L551 194C569.202 194 587.941 192.718 606 195C601.669 191.412 596.148 189.718 591 187.576C579.956 182.981 568.596 179.511 557 176.627C503.811 163.394 446.461 169.503 397 193z"/>
<path style="fill:#f47662; stroke:none;" d="M520 170C521.248 170.685 521.549 170.749 523 171C521.752 170.315 521.452 170.251 520 170z"/>
<path style="fill:#dfb7ba; stroke:none;" d="M523.667 170.333C523.222 170.778 524.278 170.722 524.333 170.667C524.778 170.222 523.722 170.278 523.667 170.333z"/>
<path style="fill:#aad1eb; stroke:none;" d="M525 170C526.248 170.685 526.549 170.749 528 171C526.752 170.315 526.452 170.251 525 170z"/>
<path style="fill:#f47662; stroke:none;" d="M468 171C469.506 171.683 470.315 171.826 472 172C470.494 171.317 469.685 171.174 468 171M528 171C529.248 171.685 529.548 171.749 531 172C529.752 171.315 529.452 171.251 528 171z"/>
<path style="fill:#dfb7ba; stroke:none;" d="M531.667 171.333C531.222 171.778 532.278 171.722 532.333 171.667C532.778 171.222 531.722 171.278 531.667 171.333z"/>
<path style="fill:#aad1eb; stroke:none;" d="M555.667 171.333C555.222 171.778 556.278 171.722 556.333 171.667C556.778 171.222 555.722 171.278 555.667 171.333M443 172L444 173L443 172M448 172L449 173L448 172M459 172C460.248 172.685 460.548 172.749 462 173C460.752 172.315 460.452 172.251 459 172z"/>
<path style="fill:#f47662; stroke:none;" d="M462.667 172.333C462.222 172.778 463.278 172.722 463.333 172.667C463.778 172.222 462.722 172.278 462.667 172.333M536 172C537.248 172.685 537.549 172.749 539 173C537.752 172.315 537.452 172.251 536 172z"/>
<path style="fill:#aad1eb; stroke:none;" d="M542.667 172.333C542.222 172.778 543.278 172.722 543.333 172.667C543.778 172.222 542.722 172.278 542.667 172.333M558 172L558 175C560.006 173.873 560.006 173.127 558 172M440 173L441 174L440 173z"/>
<path style="fill:#f47662; stroke:none;" d="M456.667 173.333C456.222 173.778 457.278 173.722 457.333 173.667C457.778 173.222 456.722 173.278 456.667 173.333M542.667 173.333C542.222 173.778 543.278 173.722 543.333 173.667C543.778 173.222 542.722 173.278 542.667 173.333z"/>
<path style="fill:#dfb7ba; stroke:none;" d="M544.667 173.333C544.222 173.778 545.278 173.722 545.333 173.667C545.778 173.222 544.722 173.278 544.667 173.333M449 174C450.248 174.685 450.548 174.749 452 175C450.752 174.315 450.452 174.251 449 174z"/>
<path style="fill:#f47662; stroke:none;" d="M452.667 174.333C452.222 174.778 453.278 174.722 453.333 174.667C453.778 174.222 452.722 174.278 452.667 174.333M547 174C548.248 174.685 548.549 174.749 550 175C548.752 174.315 548.452 174.251 547 174z"/>
<path style="fill:#aad1eb; stroke:none;" d="M442 175C443.506 175.683 444.315 175.826 446 176C444.494 175.317 443.685 175.174 442 175z"/>
<path style="fill:#dfb7ba; stroke:none;" d="M446.667 175.333C446.222 175.778 447.278 175.722 447.333 175.667C447.778 175.222 446.722 175.278 446.667 175.333M552.667 175.333C552.222 175.778 553.278 175.722 553.333 175.667C553.778 175.222 552.722 175.278 552.667 175.333z"/>
<path style="fill:#aad1eb; stroke:none;" d="M424 176L425 177L424 176z"/>
<path style="fill:#f47662; stroke:none;" d="M442.667 176.333C442.222 176.778 443.278 176.722 443.333 176.667C443.778 176.222 442.722 176.278 442.667 176.333z"/>
<path style="fill:#dfb7ba; stroke:none;" d="M556.667 176.333C556.222 176.778 557.278 176.722 557.333 176.667C557.778 176.222 556.722 176.278 556.667 176.333z"/>
<path style="fill:#aad1eb; stroke:none;" d="M560 176C561.139 177.015 561.612 177.309 563 178C562.02 176.217 562.092 176.406 560 176M419 177L418 178L419 180L421 179C420.455 177.365 420.635 177.545 419 177M431.667 177.333C431.222 177.778 432.278 177.722 432.333 177.667C432.778 177.222 431.722 177.278 431.667 177.333z"/>
<path style="fill:#f47662; stroke:none;" d="M438.667 177.333C438.222 177.778 439.278 177.722 439.333 177.667C439.778 177.222 438.722 177.278 438.667 177.333z"/>
<path style="fill:#dfb7ba; stroke:none;" d="M560.667 177.333C560.222 177.778 561.278 177.722 561.333 177.667C561.778 177.222 560.722 177.278 560.667 177.333z"/>
<path style="fill:#aad1eb; stroke:none;" d="M423 178L422 182C424.689 181.582 425.554 181.283 427 179C425.286 178.874 424.567 178.698 423 178z"/>
<path style="fill:#dfb7ba; stroke:none;" d="M435 178L436 179L435 178z"/>
<path style="fill:#f47662; stroke:none;" d="M564 178L565 179L564 178z"/>
<path style="fill:#aad1eb; stroke:none;" d="M576 178C577.248 178.685 577.548 178.749 579 179C577.752 178.315 577.452 178.251 576 178z"/>
<path style="fill:#dfb7ba; stroke:none;" d="M431 179L432 180L431 179M568.667 179.333C568.222 179.778 569.278 179.722 569.333 179.667C569.778 179.222 568.722 179.278 568.667 179.333z"/>
<path style="fill:#aad1eb; stroke:none;" d="M583 179L584 180L583 179z"/>
<path style="fill:#dfb7ba; stroke:none;" d="M428 180L429 181L428 180z"/>
<path style="fill:#f47662; stroke:none;" d="M571 180L572 181L571 180z"/>
<path style="fill:#aad1eb; stroke:none;" d="M574 180C575.248 180.685 575.548 180.749 577 181C575.752 180.315 575.452 180.251 574 180M580.667 180.333C580.222 180.778 581.278 180.722 581.333 180.667C581.778 180.222 580.722 180.278 580.667 180.333z"/>
<path style="fill:#dfb7ba; stroke:none;" d="M574.667 181.333C574.222 181.778 575.278 181.722 575.333 181.667C575.778 181.222 574.722 181.278 574.667 181.333z"/>
<path style="fill:#aad1eb; stroke:none;" d="M583 181L583 184C583.696 182.446 583.696 182.554 583 181z"/>
<path style="fill:#f47662; stroke:none;" d="M422.667 182.333C422.222 182.778 423.278 182.722 423.333 182.667C423.778 182.222 422.722 182.278 422.667 182.333M577 182L578 183L577 182z"/>
<path style="fill:#dfb7ba; stroke:none;" d="M578 182L579 183L578 182M419 183L420 184L419 183M580 183L581 184L580 183z"/>
<path style="fill:#aad1eb; stroke:none;" d="M581 183L582 184L581 183M402 184L403 185L402 184M405 184C403.483 184.957 402.662 185.387 401 186L403 189L400 188C400.809 191.697 403.08 190.084 406 189C405.829 187.161 405.713 185.681 405 184M411 185C412.943 185.622 413.949 185.436 416 185C414.154 184.532 412.931 184.699 411 185z"/>
<path style="fill:#dfb7ba; stroke:none;" d="M416.667 184.333C416.222 184.778 417.278 184.722 417.333 184.667C417.778 184.222 416.722 184.278 416.667 184.333M582.667 184.333C582.222 184.778 583.278 184.722 583.333 184.667C583.778 184.222 582.722 184.278 582.667 184.333z"/>
<path style="fill:#aad1eb; stroke:none;" d="M586 186C587.58 185.317 587.777 185.195 589 184C586.908 184.406 586.98 184.217 586 186M600 184L601 185L600 184z"/>
<path style="fill:#dfb7ba; stroke:none;" d="M414 185L415 186L414 185z"/>
<path style="fill:#aad1eb; stroke:none;" d="M591 185C591.684 186.58 591.805 186.777 593 188L593 185L591 185z"/>
<path style="fill:#dfb7ba; stroke:none;" d="M411 186L412 187L411 186z"/>
<path style="fill:#f47662; stroke:none;" d="M412 186L413 187L412 186z"/>
<path style="fill:#dfb7ba; stroke:none;" d="M588 186L589 187L588 186z"/>
<path style="fill:#aad1eb; stroke:none;" d="M589 186L590 187L589 186M594 186L595 187L594 186M597 186C598.139 187.015 598.612 187.309 600 188C598.777 186.805 598.58 186.684 597 186z"/>
<path style="fill:#dfb7ba; stroke:none;" d="M409 187L410 188L409 187z"/>
<path style="fill:#f47662; stroke:none;" d="M590 187L591 188L590 187z"/>
<path style="fill:#dfb7ba; stroke:none;" d="M591 187L592 188L591 187M406 188L407 189L406 188z"/>
<path style="fill:#f47662; stroke:none;" d="M407 188L408 189L407 188z"/>
<path style="fill:#dfb7ba; stroke:none;" d="M593 188L594 189L593 188z"/>
<path style="fill:#aad1eb; stroke:none;" d="M594.667 188.333C594.222 188.778 595.278 188.722 595.333 188.667C595.778 188.222 594.722 188.278 594.667 188.333z"/>
<path style="fill:#dfb7ba; stroke:none;" d="M404 189L405 190L404 189z"/>
<path style="fill:#f47662; stroke:none;" d="M595 189L596 190L595 189z"/>
<path style="fill:#aad1eb; stroke:none;" d="M607.333 189.667C607.278 189.722 607.222 190.778 607.667 190.333C607.722 190.278 607.778 189.222 607.333 189.667z"/>
<path style="fill:#dfb7ba; stroke:none;" d="M402 190L403 191L402 190M598 190L599 191L598 190z"/>
<path style="fill:#aad1eb; stroke:none;" d="M399 191L400 192L399 191M600.667 191.333C600.222 191.778 601.278 191.722 601.333 191.667C601.778 191.222 600.722 191.278 600.667 191.333M603 191C604.334 192.902 604.663 192.966 607 193C605.542 191.919 604.752 191.564 603 191M392 197L396 193C392.954 192.312 392.451 194.242 392 197z"/>
<path style="fill:#dfb7ba; stroke:none;" d="M397 192L398 193L397 192z"/>
<path style="fill:#f47662; stroke:none;" d="M398 192L399 193L398 192M602 192L603 193L602 192z"/>
<path style="fill:#dfb7ba; stroke:none;" d="M395 193L396 194L395 193z"/>
<path style="fill:#f47662; stroke:none;" d="M394 226C402.923 223.876 412.866 225 422 225L472 225L557 225C573.536 225 590.582 223.827 607 226L607 194C590.503 195.843 572.653 194 556 194L452 194L411 194C407.205 194 398.817 192.288 395.603 194.349C393.196 195.893 394.001 200.603 394 203L394 226M604 193L605 194L604 193z"/>
<path style="fill:#aad1eb; stroke:none;" d="M607 194L607 218C609.165 212.841 609.758 198.828 607 194M609 197L610 198L609 197M393 198L394 199L393 198z"/>
<path style="fill:#f0573d; stroke:none;" d="M605 200C597.849 202.114 589.427 201 582 201L538 201L395 201L395 219L606 219C606 213.099 607.295 205.469 605 200z"/>
<path style="fill:#aad1eb; stroke:none;" d="M393 201L393 207C393.951 204.715 393.951 203.285 393 201M613 201L614 202L613 201M616 204L617 205L616 204M616 207L617 208L616 207M619 207L620 208L619 207M624 212L625 213L624 212M624 215L625 216L624 215M627 215L628 216L627 215M392 216L393 217L392 216M607 219L607 228C608.256 225.006 608.256 221.994 607 219M392 220L393 221L392 220M632 220L633 221L632 220M632 223L633 224L632 223M635 223L636 224L635 223z"/>
<path style="fill:#f0573d; stroke:none;" d="M395 225C398.835 228.384 405.041 228.61 408.397 232.557C410.709 235.277 410 239.694 410 243L410 269L591 269L591 243C591 239.626 590.315 235.205 592.603 232.394C595.506 228.828 601.806 227.419 606 226C599.849 223.733 591.528 225 585 225L542 225L395 225z"/>
<path style="fill:#8597a4; stroke:none;" d="M395 226L396 227L395 226M604 226L605 227L604 226z"/>
<path style="fill:#aad1eb; stroke:none;" d="M605 226C600.766 228.004 596.568 229.915 592 231C594.983 232.192 598.808 232.564 601 230C603.349 230.588 604.662 230.617 607 230C605.752 229.315 605.452 229.251 604 229C605.37 227.443 605.67 227.655 605 226M392 232C393.195 231.402 392.977 231.534 394 230C395.015 232.334 395.421 230.91 396 229C400.173 232.768 404.411 236.768 409 240C408.99 237.287 409.429 233.848 407.397 231.702C403.374 227.456 394.159 225.534 392 232z"/>
<path style="fill:#8597a4; stroke:none;" d="M398 227L399 228L398 227z"/>
<path style="fill:#f47662; stroke:none;" d="M601 227L602 228L601 227z"/>
<path style="fill:#dfb7ba; stroke:none;" d="M400 228L401 229L400 228z"/>
<path style="fill:#f47662; stroke:none;" d="M401 228L402 229L401 228z"/>
<path style="fill:#8597a4; stroke:none;" d="M599 228L600 229L599 228z"/>
<path style="fill:#aad1eb; stroke:none;" d="M640 228L641 229L640 228z"/>
<path style="fill:#8597a4; stroke:none;" d="M403 229L404 230L403 229z"/>
<path style="fill:#f47662; stroke:none;" d="M596 229L597 230L596 229z"/>
<path style="fill:#dfb7ba; stroke:none;" d="M597 229L598 230L597 229z"/>
<path style="fill:#f47662; stroke:none;" d="M406 230L407 231L406 230z"/>
<path style="fill:#8597a4; stroke:none;" d="M594 230L595 231L594 230z"/>
<path style="fill:#aad1eb; stroke:none;" d="M607 230L608 231L607 230M640 231L641 232L640 231M643 231L644 232L643 231z"/>
<path style="fill:#dfb7ba; stroke:none;" d="M409 232L409 257C409 261.993 409.589 266.199 406 270C407.51 270.25 408.435 270.18 410 270L410 245C410 240.74 410.661 235.959 409 232z"/>
<path style="fill:#aad1eb; stroke:none;" d="M591 232L591 258C591 261.092 590.191 265.684 592.028 268.387C593.75 270.922 597.279 271.995 600 273L600 266C598.125 266.547 596.745 267.11 595 268C594.711 265.616 595.09 265.613 593 266C591.649 258.721 592 251.377 592 244C592 240.017 592.552 235.699 591 232M648 236L649 237L648 236M648 239L649 240L648 239M651 239L652 240L651 239M656 244L657 245L656 244M656 247L657 248L656 247M659 247L660 248L659 247M664 252L665 253L664 252M664 255L665 256L664 255M667 255L668 256L667 255M672 260L673 261L672 260M672 263L673 264L672 263M675 263L676 264L675 263M404 264L405 265L404 264M408 265L408 269C408.71 267.241 408.71 266.759 408 265M400 266L401 267L400 266M403.667 267.333C403.222 267.778 404.278 267.722 404.333 267.667C404.778 267.222 403.722 267.278 403.667 267.333M402 268L403 269L402 268M680 268L681 269L680 268M401 269L402 270L401 269M403 269C402.806 270.857 402.79 272.153 403 274C404.627 272.412 405.774 270.922 407 269L403 269z"/>
<path style="fill:#f47662; stroke:none;" d="M404 272C404.408 274.64 404.242 278.311 406.389 280.233C408.763 282.358 413.065 281.95 416.015 281.989C423.674 282.091 431.34 282 439 282L548 282L577 282C580.707 282 585.418 282.955 588 280C593.83 282.494 600.296 276.795 594.681 271.514C591.2 268.239 585.371 269 581 269L550 269L449 269C435.371 269 416.316 265.544 404 272z"/>
<path style="fill:#dfb7ba; stroke:none;" d="M591.667 269.333C591.222 269.778 592.278 269.722 592.333 269.667C592.778 269.222 591.722 269.278 591.667 269.333M594 270L595 271L594 270M595 271L596 272L595 271z"/>
<path style="fill:#aad1eb; stroke:none;" d="M680 271L681 272L680 271M683 271L684 272L683 271z"/>
<path style="fill:#dfb7ba; stroke:none;" d="M596 272L597 273L596 272M403 274L403 278C403.71 276.241 403.71 275.759 403 274z"/>
<path style="fill:#f0573d; stroke:none;" d="M404 274L404 278C404.71 276.241 404.71 275.759 404 274z"/>
<path style="fill:#dfb7ba; stroke:none;" d="M597 274L597 277L599 276C598.455 274.365 598.635 274.545 597 274z"/>
<path style="fill:#aad1eb; stroke:none;" d="M401 275L401 277L403 277L403 275L401 275M688 276L689 277L688 276M597 277C595.401 279.079 592.672 280.979 591.603 283.375C589.41 288.289 591 296.684 591 302L591 346C591 351.681 588.549 365.111 593 369C591.161 361.276 592 352.9 592 345L592 304C592 298.173 589.68 285.906 597 284L598 283C598.386 281.045 599.017 279.765 600 278L597 277z"/>
<path style="fill:#dfb7ba; stroke:none;" d="M596 278L597 279L596 278z"/>
<path style="fill:#aad1eb; stroke:none;" d="M402.667 279.333C402.222 279.778 403.278 279.722 403.333 279.667C403.778 279.222 402.722 279.278 402.667 279.333z"/>
<path style="fill:#dfb7ba; stroke:none;" d="M404 279L405 280L404 279z"/>
<path style="fill:#aad1eb; stroke:none;" d="M688 279L689 280L688 279M691 279L692 280L691 279z"/>
<path style="fill:#dfb7ba; stroke:none;" d="M405 280L406 281L405 280z"/>
<path style="fill:#f0573d; stroke:none;" d="M588 280C584.112 282.945 578.716 282 574 282L543 282L455 282C440.66 282 423.976 284.327 410 281L410 369L535 369L570 369C577.115 369 584.335 368.176 591 371L591 303C591 296.716 593.55 284.003 588 280z"/>
<path style="fill:#dfb7ba; stroke:none;" d="M406.667 281.333C406.222 281.778 407.278 281.722 407.333 281.667C407.778 281.222 406.722 281.278 406.667 281.333z"/>
<path style="fill:#aad1eb; stroke:none;" d="M400.333 282.667C400.278 282.722 400.222 283.778 400.667 283.333C400.722 283.278 400.778 282.222 400.333 282.667M405.667 282.333C405.222 282.778 406.278 282.722 406.333 282.667C406.778 282.222 405.722 282.278 405.667 282.333z"/>
<path style="fill:#dfb7ba; stroke:none;" d="M409 282L409 345C409 351.828 411.236 363.409 407 369C409.903 369.479 409.928 366.514 409.995 364C410.13 359.008 410 353.994 410 349L410 302C410 296.061 411.583 287.349 409 282z"/>
<path style="fill:#aad1eb; stroke:none;" d="M599 282L600 283L599 282M408 283C408.031 284.832 407.92 284.559 409 286C408.749 284.548 408.685 284.248 408 283M696 284L697 285L696 284M400 285L400 288L402 288L402 285L400 285M599 285L600 286L599 285M594 286L595 287L594 286M696 287L697 288L696 287M699 287L700 288L699 287M704 292L705 293L704 292M704 295L705 296L704 295z"/>
<path style="fill:#f47662; stroke:none;" d="M438 307L438 357L563 357L563 307L438 307z"/>
<path style="fill:#f0573d; stroke:none;" d="M447 316L447 348L554 348L554 316L447 316z"/>
<path style="fill:#393939; stroke:none;" d="M450 319L450 344L550 344L550 319L450 319z"/>
<path style="fill:#635f5f; stroke:none;" d="M550 319L550 344C552.413 338.25 552.413 324.75 550 319M451 344C459.118 347.407 472.203 345 481 345L550 345C541.882 341.593 528.797 344 520 344L451 344z"/>
<path style="fill:#aad1eb; stroke:none;" d="M403 368L404 369L403 368M594 368C596.591 374.339 598.403 378.46 591 382L591 680C594.105 672.601 592 661.007 592 653L592 593L592 384L600 384L599 368L594 368z"/>
<path style="fill:#f47662; stroke:none;" d="M409 369C406.125 374.551 405.757 375.779 407 382L552 382C563.322 382 574.666 382.204 585.985 381.975C590.525 381.883 596.224 381.951 596.663 376.011C597.069 370.507 591.07 369.763 586.911 369.22C575.933 367.788 564.069 369 553 369L409 369z"/>
<path style="fill:#dfb7ba; stroke:none;" d="M591 369C592.248 369.685 592.548 369.749 594 370C592.752 369.315 592.452 369.251 591 369z"/>
<path style="fill:#aad1eb; stroke:none;" d="M400 371C402.684 372.36 403.816 371.996 406 370L400 371z"/>
<path style="fill:#f0573d; stroke:none;" d="M408 381C405.382 376.025 406.323 374.484 409 370C403.119 371.785 402.701 378.078 408 381z"/>
<path style="fill:#dfb7ba; stroke:none;" d="M594 370L595 371L594 370M596 372L597 373L596 372M403 373L403 378C403.83 375.97 403.83 375.031 403 373M597 374L597 377C597.696 375.446 597.696 375.554 597 374z"/>
<path style="fill:#aad1eb; stroke:none;" d="M400.333 377.667C400.278 377.722 400.222 378.778 400.667 378.333C400.722 378.278 400.778 377.222 400.333 377.667M402 378C402 379.797 402.014 379.521 403 381L401 381L402 384C403.195 383.402 402.977 383.534 404 382C404.768 383.314 404.686 383.232 406 384L407 383L407 381L402 378z"/>
<path style="fill:#dfb7ba; stroke:none;" d="M596 378L597 379L596 378z"/>
<path style="fill:#f0573d; stroke:none;" d="M592 381C593.58 380.317 593.777 380.195 595 379C593.42 379.684 593.223 379.805 592 381z"/>
<path style="fill:#dfb7ba; stroke:none;" d="M405 380L406 381L405 380z"/>
<path style="fill:#f0573d; stroke:none;" d="M590 381C583.701 382.862 576.537 382 570 382L533 382L410 382L410 609L410 665C410 669.779 407.86 681.612 411.603 685.142C414.108 687.503 418.839 687.023 422 687.745C432.495 690.143 443.334 690.896 454 692.282C485.317 696.349 518.67 694.814 550 691.83C563.739 690.522 577.258 687.085 591 686L591 471L591 409C591 400.729 593.206 388.639 590 381z"/>
<path style="fill:#dfb7ba; stroke:none;" d="M409 382L409 685C411.497 679.049 410 670.42 410 664L410 618L410 458L410 406C410 398.784 411.802 388.678 409 382z"/>
<path style="fill:#f47662; stroke:none;" d="M463 401L463 488L538 488L538 401L463 401z"/>
<path style="fill:#f0573d; stroke:none;" d="M529 408L529 480C531.085 475.031 530 468.35 530 463L530 427C530 421.113 531.292 413.462 529 408z"/>
<path style="fill:#ffffff; stroke:none;" d="M472 410L472 479L528 479L528 410L472 410z"/>
<path style="fill:#dfb7ba; stroke:none;" d="M528 410L528 479C530.189 473.784 529 466.619 529 461L529 427C529 421.65 530.085 414.969 528 410z"/>
<path style="fill:#f0573d; stroke:none;" d="M472 479C477.216 481.189 484.381 480 490 480L528 480C522.784 477.811 515.619 479 510 479L472 479z"/>
<path style="fill:#aad1eb; stroke:none;" d="M599 680L599 684C599.71 682.24 599.71 681.76 599 680M400.333 681.667C400.278 681.722 400.222 682.778 400.667 682.333C400.722 682.278 400.778 681.222 400.333 681.667M406 681L407 682L406 681M402 682L403 683L402 682M591 682L591 685L593 685L593 682L591 682M594 683C595.309 685.776 597.135 688.041 598 691C600.867 686.702 598.729 683.806 594 683M401 685L400 686L401 689C401.911 687.623 402.404 686.56 403 685L401 685z"/>
<path style="fill:#f47662; stroke:none;" d="M406.229 686.042C401.324 688.903 404.147 695.148 408.105 697.231C415.68 701.218 428.515 701.912 437 702.834C463.202 705.681 489.589 708.117 516 706.961C528.023 706.434 539.991 704.845 552 704.025C562.031 703.34 572.11 701.36 582 699.576C585.974 698.859 591.572 698.588 594.566 695.567C597.367 692.742 597.775 686.317 592.891 685.488C590.37 685.061 587.472 686.15 585 686.565C579.011 687.569 573.015 688.472 567 689.282C529.038 694.396 490.176 696.236 452 691.95C440.589 690.669 429.342 688.41 418 686.947C414.482 686.493 409.577 684.09 406.229 686.042z"/>
<path style="fill:#dfb7ba; stroke:none;" d="M403.333 687.667C403.278 687.722 403.222 688.778 403.667 688.333C403.722 688.278 403.778 687.222 403.333 687.667M596 687L597 692C597.916 689.7 597.879 688.623 596 687z"/>
<path style="fill:#aad1eb; stroke:none;" d="M401 690L400 694L404 694C403.157 692.231 402.459 691.312 401 690M597 692C597.545 693.635 597.365 693.455 599 694L599 692L597 692z"/>
<path style="fill:#8597a4; stroke:none;" d="M596 693L597 694L596 693z"/>
<path style="fill:#dfb7ba; stroke:none;" d="M404 694L405 695L404 694z"/>
<path style="fill:#aad1eb; stroke:none;" d="M595 695C596.769 695.779 598.036 695.912 600 696C598.072 694.909 597.23 694.835 595 695M402 695L403 696L402 695M404 695L403 697L405 697C405 695.147 405.3 695.65 404 695z"/>
<path style="fill:#dfb7ba; stroke:none;" d="M406 696L407 697L406 696z"/>
<path style="fill:#aad1eb; stroke:none;" d="M592 697L592 699L598 701L595 696L592 697M407 697C405.608 698.406 404.927 699.271 404 701C405.935 699.804 407.399 699.237 407 697z"/>
<path style="fill:#635f5f; stroke:none;" d="M395 707C404.422 710.535 415.087 711.744 425 713.275C438.997 715.436 452.852 717.42 467 718.039C513.601 720.08 560.588 719.02 606 707L606 819C609.507 810.643 607 797.06 607 788L607 734C607 726.408 608.718 716.431 606.682 709.105C605.397 704.482 596.303 700.011 592 698.714C588.119 697.544 583.852 699.079 580 699.75C572.011 701.141 564.027 702.419 556 703.572C533.235 706.84 509.981 707.27 487 706.996C470.175 706.796 452.672 704.986 436 702.572C428.03 701.418 416.946 696.868 409 698.6C404.22 699.641 398.642 703.835 395 707z"/>
<path style="fill:#8597a4; stroke:none;" d="M406 699L407 700L406 699M595 700L596 701L595 700M403 701L404 702L403 701M597 701L598 702L597 701M401 702L402 703L401 702M599 702L600 703L599 702z"/>
<path style="fill:#aad1eb; stroke:none;" d="M399 703L400 704L399 703z"/>
<path style="fill:#8597a4; stroke:none;" d="M600 703L601 704L600 703z"/>
<path style="fill:#aad1eb; stroke:none;" d="M601 703L602 704L601 703M397 704L398 705L397 704z"/>
<path style="fill:#8597a4; stroke:none;" d="M398 704L399 705L398 704M602 704L603 705L602 704z"/>
<path style="fill:#aad1eb; stroke:none;" d="M603 704L604 705L603 704M606 704L607 705L606 704z"/>
<path style="fill:#8597a4; stroke:none;" d="M396 705L397 706L396 705z"/>
<path style="fill:#f0573d; stroke:none;" d="M536 705C537.248 705.685 537.548 705.749 539 706C537.752 705.315 537.452 705.251 536 705z"/>
<path style="fill:#8597a4; stroke:none;" d="M604 705L605 706L604 705M394 706L395 707L394 706z"/>
<path style="fill:#aad1eb; stroke:none;" d="M606 706L607 707L606 706z"/>
<path style="fill:#393939; stroke:none;" d="M394 707L394 789L394 810C394.001 812.509 393.396 816.271 395.028 818.411C397.167 821.217 403.776 821.444 407 822.269C418.984 825.334 431.748 826.78 444 828.285C480.46 832.763 516.495 832.377 553 828.83C570.807 827.1 588.26 821.412 606 820L606 707C584.316 710.672 562.982 715.737 541 717.83C491.544 722.54 442.402 716.985 394 707z"/>
<path style="fill:#aad1eb; stroke:none;" d="M607 712L607 816C609.802 809.323 608 799.215 608 792L608 739C608 730.993 610.105 719.399 607 712z"/>
<path style="fill:#8597a4; stroke:none;" d="M394 819L395 820L394 819M606 819L607 820L606 819z"/>
<path style="fill:#aad1eb; stroke:none;" d="M396 820C397.75 821.255 398.857 821.614 401 822C399.307 820.938 397.96 820.48 396 820z"/>
<path style="fill:#635f5f; stroke:none;" d="M398.667 820.333C398.222 820.778 399.278 820.722 399.333 820.667C399.778 820.222 398.722 820.278 398.667 820.333z"/>
<path style="fill:#8597a4; stroke:none;" d="M601 820C602.248 820.685 602.548 820.749 604 821C602.752 820.315 602.452 820.251 601 820z"/>
<path style="fill:#aad1eb; stroke:none;" d="M604.667 820.333C604.222 820.778 605.278 820.722 605.333 820.667C605.778 820.222 604.722 820.278 604.667 820.333M393 821L394 822L393 821z"/>
<path style="fill:#8597a4; stroke:none;" d="M401.667 821.333C401.222 821.778 402.278 821.722 402.333 821.667C402.778 821.222 401.722 821.278 401.667 821.333z"/>
<path style="fill:#635f5f; stroke:none;" d="M403.667 821.333C403.222 821.778 404.278 821.722 404.333 821.667C404.778 821.222 403.722 821.278 403.667 821.333z"/>
<path style="fill:#8597a4; stroke:none;" d="M596.667 821.333C596.222 821.778 597.278 821.722 597.333 821.667C597.778 821.222 596.722 821.278 596.667 821.333z"/>
<path style="fill:#aad1eb; stroke:none;" d="M598 821C599.769 821.779 601.036 821.912 603 822C601.231 821.221 599.964 821.088 598 821M402 822C404.283 823.222 406.428 823.652 409 824C406.689 822.607 404.691 822.235 402 822z"/>
<path style="fill:#8597a4; stroke:none;" d="M406.667 822.333C406.222 822.778 407.278 822.722 407.333 822.667C407.778 822.222 406.722 822.278 406.667 822.333M592.667 822.333C592.222 822.778 593.278 822.722 593.333 822.667C593.778 822.222 592.722 822.278 592.667 822.333z"/>
<path style="fill:#aad1eb; stroke:none;" d="M592 823C593.809 823.574 594.069 823.465 596 823C594.341 822.594 593.758 822.691 592 823z"/>
<path style="fill:#8597a4; stroke:none;" d="M410 823C411.248 823.685 411.548 823.749 413 824C411.752 823.315 411.452 823.251 410 823z"/>
<path style="fill:#635f5f; stroke:none;" d="M586.667 823.333C586.222 823.778 587.278 823.722 587.333 823.667C587.778 823.222 586.722 823.278 586.667 823.333z"/>
<path style="fill:#aad1eb; stroke:none;" d="M587 824C588.659 824.406 589.242 824.309 591 824C589.191 823.426 588.931 823.535 587 824M607 823L608 824L607 823M399 824L400 825L399 824z"/>
<path style="fill:#8597a4; stroke:none;" d="M416 824C417.248 824.685 417.548 824.749 419 825C417.752 824.315 417.452 824.251 416 824M581 824C582.248 824.685 582.549 824.749 584 825C582.752 824.315 582.452 824.251 581 824z"/>
<path style="fill:#aad1eb; stroke:none;" d="M584.667 824.333C584.222 824.778 585.278 824.722 585.333 824.667C585.778 824.222 584.722 824.278 584.667 824.333M421 825L421 827L423 827C422.455 825.365 422.635 825.545 421 825z"/>
<path style="fill:#8597a4; stroke:none;" d="M422.667 825.333C422.222 825.778 423.278 825.722 423.333 825.667C423.778 825.222 422.722 825.278 422.667 825.333z"/>
<path style="fill:#635f5f; stroke:none;" d="M424.667 825.333C424.222 825.778 425.278 825.722 425.333 825.667C425.778 825.222 424.722 825.278 424.667 825.333z"/>
<path style="fill:#8597a4; stroke:none;" d="M576.667 825.333C576.222 825.778 577.278 825.722 577.333 825.667C577.778 825.222 576.722 825.278 576.667 825.333z"/>
<path style="fill:#aad1eb; stroke:none;" d="M577 826C579.266 826.9 581.553 826.897 584 827L584 825C581.472 825.052 579.418 825.278 577 826M416 826C417.248 826.685 417.548 826.749 419 827C417.752 826.315 417.452 826.251 416 826M426 826C429.719 828.337 433.657 828.907 438 829C434.363 827.063 430.07 826.526 426 826z"/>
<path style="fill:#635f5f; stroke:none;" d="M429 826C430.248 826.685 430.549 826.749 432 827C430.752 826.315 430.452 826.251 429 826M568.667 826.333C568.222 826.778 569.278 826.722 569.333 826.667C569.778 826.222 568.722 826.278 568.667 826.333z"/>
<path style="fill:#8597a4; stroke:none;" d="M570.667 826.333C570.222 826.778 571.278 826.722 571.333 826.667C571.778 826.222 570.722 826.278 570.667 826.333z"/>
<path style="fill:#aad1eb; stroke:none;" d="M572.667 826.333C572.222 826.778 573.278 826.722 573.333 826.667C573.778 826.222 572.722 826.278 572.667 826.333M402 827L403 828L402 827z"/>
<path style="fill:#8597a4; stroke:none;" d="M434 827C435.248 827.685 435.549 827.749 437 828C435.752 827.315 435.452 827.251 434 827z"/>
<path style="fill:#635f5f; stroke:none;" d="M562 827C563.248 827.685 563.548 827.749 565 828C563.752 827.315 563.452 827.251 562 827z"/>
<path style="fill:#aad1eb; stroke:none;" d="M565 827C566.248 827.685 566.548 827.749 568 828C566.752 827.315 566.452 827.251 565 827M570.667 827.333C570.222 827.778 571.278 827.722 571.333 827.667C571.778 827.222 570.722 827.278 570.667 827.333M416 828C417.248 828.685 417.548 828.749 419 829C417.752 828.315 417.452 828.251 416 828M440 828C441.75 829.255 442.857 829.614 445 830C443.249 828.745 442.143 828.386 440 828z"/>
<path style="fill:#635f5f; stroke:none;" d="M443 828C444.248 828.685 444.549 828.749 446 829C444.752 828.315 444.452 828.251 443 828z"/>
<path style="fill:#8597a4; stroke:none;" d="M555 828C557.052 828.874 558.747 828.953 561 829C558.948 828.126 557.253 828.047 555 828z"/>
<path style="fill:#aad1eb; stroke:none;" d="M563.667 828.333C563.222 828.778 564.278 828.722 564.333 828.667C564.778 828.222 563.722 828.278 563.667 828.333M448.667 829.333C448.222 829.778 449.278 829.722 449.333 829.667C449.778 829.222 448.722 829.278 448.667 829.333z"/>
<path style="fill:#8597a4; stroke:none;" d="M450.667 829.333C450.222 829.778 451.278 829.722 451.333 829.667C451.778 829.222 450.722 829.278 450.667 829.333z"/>
<path style="fill:#635f5f; stroke:none;" d="M452 829C453.506 829.683 454.315 829.826 456 830C454.494 829.317 453.685 829.174 452 829M544 829C545.248 829.685 545.548 829.749 547 830C545.752 829.315 545.452 829.251 544 829z"/>
<path style="fill:#8597a4; stroke:none;" d="M547 829C548.648 829.924 550.175 830.449 552 831C550.46 829.197 549.403 829.168 547 829z"/>
<path style="fill:#aad1eb; stroke:none;" d="M555 829C556.248 829.685 556.548 829.749 558 830C556.752 829.315 556.452 829.251 555 829M451 830C452.248 830.685 452.548 830.749 454 831C452.752 830.315 452.452 830.251 451 830M456 832C457.58 831.316 457.777 831.195 459 830C456.908 830.406 456.98 830.217 456 832z"/>
<path style="fill:#8597a4; stroke:none;" d="M459 830C460.769 830.779 462.036 830.912 464 831C462.231 830.221 460.964 830.088 459 830z"/>
<path style="fill:#635f5f; stroke:none;" d="M464 830C465.248 830.685 465.549 830.749 467 831C465.752 830.315 465.452 830.251 464 830M533 830C534.248 830.685 534.548 830.749 536 831C534.752 830.315 534.452 830.251 533 830z"/>
<path style="fill:#8597a4; stroke:none;" d="M536 830C537.506 830.683 538.315 830.826 540 831C538.494 830.317 537.685 830.174 536 830z"/>
<path style="fill:#aad1eb; stroke:none;" d="M540 830C541.506 830.683 542.315 830.826 544 831C542.494 830.317 541.685 830.174 540 830M546 830C547.248 830.685 547.548 830.749 549 831C547.752 830.315 547.452 830.251 546 830M464.667 831.333C464.222 831.778 465.278 831.722 465.333 831.667C465.778 831.222 464.722 831.278 464.667 831.333M469 831C470.248 831.685 470.548 831.749 472 832C470.752 831.315 470.452 831.251 469 831z"/>
<path style="fill:#8597a4; stroke:none;" d="M472 831C474.613 832.098 477.165 831.993 480 832C477.387 830.902 474.835 831.007 472 831z"/>
<path style="fill:#635f5f; stroke:none;" d="M480 831C481.506 831.683 482.315 831.826 484 832C482.494 831.317 481.685 831.174 480 831M515 831C516.769 831.779 518.036 831.912 520 832C518.231 831.221 516.964 831.088 515 831z"/>
<path style="fill:#8597a4; stroke:none;" d="M520 831C522.613 832.098 525.164 831.993 528 832C525.387 830.902 522.836 831.007 520 831z"/>
<path style="fill:#aad1eb; stroke:none;" d="M528 831C529.248 831.685 529.548 831.749 531 832C529.752 831.315 529.452 831.251 528 831M535 831L536 832L535 831M538.667 831.333C538.222 831.778 539.278 831.722 539.333 831.667C539.778 831.222 538.722 831.278 538.667 831.333M407 832L408 833L407 832M479 832C480.248 832.685 480.549 832.749 482 833C480.752 832.315 480.452 832.251 479 832M410 835L411 836L410 835M415 840L416 841L415 840M418 843L419 844L418 843M423 848L424 849L423 848M426 851L427 852L426 851M431 856L432 857L431 856M434 859L435 860L434 859M439 864L440 865L439 864M442 867L443 868L442 867M447 872L448 873L447 872M450 875L451 876L450 875M455 880L456 881L455 880M458 883L459 884L458 883M463 888L464 889L463 888M466 891L467 892L466 891M471 896L472 897L471 896M474 899L475 900L474 899M479 904L480 905L479 904M482 907L483 908L482 907M487 912L488 913L487 912M596 913C599.432 914.44 603.3 914 607 914C603.568 912.56 599.7 913 596 913M622 913C625.699 914.552 630.017 914 634 914L656 914L733 914L1000 914C996.301 912.448 991.983 913 988 913L966 913L889 913L622 913M587 914C588.769 914.779 590.036 914.912 592 915C590.231 914.221 588.964 914.088 587 914M490 915L491 916L490 915M581 915C582.248 915.685 582.549 915.749 584 916C582.752 915.315 582.452 915.251 581 915M576.667 916.333C576.222 916.778 577.278 916.722 577.333 916.667C577.778 916.222 576.722 916.278 576.667 916.333M570 917C571.248 917.685 571.549 917.749 573 918C571.752 917.315 571.452 917.251 570 917M564 918C565.248 918.685 565.548 918.749 567 919C565.752 918.315 565.452 918.251 564 918M559 919C560.248 919.685 560.549 919.749 562 920C560.752 919.315 560.452 919.251 559 919M495 920L496 921L495 920M554.667 920.333C554.222 920.778 555.278 920.722 555.333 920.667C555.778 920.222 554.722 920.278 554.667 920.333M548 921C549.248 921.685 549.548 921.749 551 922C549.751 921.315 549.452 921.251 548 921M542 922C543.248 922.685 543.548 922.749 545 923C543.752 922.315 543.452 922.251 542 922M498 923L499 924L498 923M537 923C538.248 923.685 538.548 923.749 540 924C538.752 923.315 538.452 923.251 537 923M532.667 924.333C532.222 924.778 533.278 924.722 533.333 924.667C533.778 924.222 532.722 924.278 532.667 924.333M526 925C527.248 925.685 527.549 925.749 529 926C527.752 925.315 527.452 925.251 526 925M520 926C521.248 926.685 521.548 926.749 523 927C521.752 926.315 521.452 926.251 520 926M515 927C516.248 927.685 516.548 927.749 518 928C516.752 927.315 516.452 927.251 515 927M503 928L504 929L503 928M509 928C510.248 928.685 510.548 928.749 512 929C510.752 928.315 510.452 928.251 509 928z"/>
</svg>
