<?xml version="1.0" standalone="yes"?>
<svg xmlns="http://www.w3.org/2000/svg" width="1000" height="618">
<path style="fill:#ffffff; stroke:none;" d="M0 0L0 618L1000 618L1000 0L0 0z"/>
<path style="fill:#070707; stroke:none;" d="M510 52C504.677 54.618 502.796 59.8977 500.247 65C494.753 75.9943 490.501 87.1932 487.14 99C482.856 114.053 477.854 129.523 475.325 145C470.148 176.685 471.898 210.777 478.662 242C481.782 256.4 488.162 269.201 495.234 282C497.58 286.247 501.214 293.525 506.155 295.199C511.559 297.03 514.845 287.539 516.769 284C520.75 276.679 525.989 269.041 528.367 261C530.074 255.226 530 248.955 530 243C530 214.348 524.689 186.101 519.389 158C516.996 145.314 513.397 132.888 512.17 120C510.01 97.3196 519.553 73.5833 510 52M86 498C88.9005 492.584 89.0965 485.938 90.4252 480C93.6307 465.674 95.8497 451.396 98.6119 437C102.392 417.299 106.922 395.646 114.453 377C121.281 360.094 131.772 343.932 142.117 329C149.978 317.652 156.363 304.963 168 297C169.365 314.29 169 331.631 169 349C169 358.671 170.084 369.701 166.892 379C163.418 389.122 155.796 398.193 151.309 408C145.476 420.747 142.944 434.338 140.389 448C138.883 456.052 136.138 470.883 141 478C149.585 453.245 148.173 425.393 171 408C173.83 421.016 165.241 435.507 162.425 448C156.878 472.613 154.829 495.911 158 521L160 521C160 500.663 161.033 480.319 168.054 461C171.929 450.337 178.2 441.148 183 431L185 431C191.503 450.993 194.285 471.898 205.576 490C208.628 494.893 211.586 500.254 216 504C220.042 495.552 214.399 484.266 211.414 476C205.317 459.124 200.82 440.662 197.614 423C194.175 404.053 191.054 385.042 188.714 366C187.591 356.861 184.79 348.325 185.015 339C185.661 312.193 193.765 286.301 202.09 261C212.091 230.604 230.298 201.237 256 181.769C266.677 173.681 279.33 165.533 293 164.171C303.305 163.143 315.377 166.557 325 170.054C352.983 180.224 371.032 203.22 393 221.866C406.462 233.292 424.448 239.718 435.471 254C442.097 262.585 441.196 269.94 442.17 280C443.115 289.768 445.269 299.849 448.811 309C459.389 336.332 478.096 360.051 489.536 387C493.768 396.969 498.528 407.46 501.102 418C503.618 428.305 503.761 439.147 508 449C512.189 447.004 514.456 443.83 516.996 440C520.247 435.098 523.427 429.86 524.532 424C526.208 415.117 524.642 405.984 526.449 397C527.721 390.678 529.676 384.491 529.961 378C530.351 369.092 528.634 360.919 530.31 352C532.337 341.212 536.468 330.801 538.539 320C540.634 309.08 540.669 297.083 539.911 286C538.825 270.155 538.246 253.676 541.4 238C542.788 231.101 544.481 223.732 550 219C548.642 229.69 545.09 240.18 545 251C552.234 246.807 557.974 239.791 564 234.039C570.831 227.519 578.449 221.559 586 215.895C612.981 195.657 647.606 179.364 681 173.464C692.267 171.473 701.137 176.563 711 181.219C724.151 187.427 737.344 193.52 750 200.719C773.506 214.091 797.201 232.837 811.627 256C819.504 268.647 820.432 284 824.427 298C832.75 327.166 842.61 355.26 841.741 386C841.517 393.894 839.921 402.109 839.17 410C837.613 426.358 836.802 442.648 834.714 459C833.351 469.681 830.91 480.203 830.375 491C829.966 499.254 831.646 507.757 832 516L834 516C835.208 500.817 839.615 485.779 842.989 471C846.161 457.108 847.837 443.403 853 430C864.69 442.222 871.505 457.495 877.6 473C880.184 479.572 880.653 491.159 887 495C886.95 476.906 881.767 457.723 875.078 441C870.411 429.333 863.97 418.067 860.424 406C857.778 396.994 854.737 387.407 854.089 378C853.176 364.729 855.091 351.245 853.83 338C852.486 323.876 846.115 311.106 845 297C857.177 299.817 867.441 307.026 878 313.399C890.31 320.828 901.752 328.83 911.999 339.004C916.106 343.082 921.252 347.729 923.825 353C927.634 360.803 925.51 372.541 926.089 381C927.637 403.598 926 426.296 926 449C926 458.749 924.733 469.479 927 479C933.679 466.712 932.885 451.448 934.17 438C936.15 417.275 941.6 396.717 943.025 376C943.56 368.211 945.991 360.869 946 353C946.003 350.222 946.418 346.931 944.972 344.424C942.735 340.545 938.263 337.778 935 334.83C927.974 328.485 921.101 321.978 914 315.715C907.39 309.885 901.645 303.086 894.83 297.478C875.265 281.379 853.955 266.977 836 249C824.269 237.254 815.453 223.019 803.961 211C780.706 186.681 752.027 165.477 721 152.15C713.218 148.808 705.24 144.578 697 142.514C686.883 139.98 676.202 141.462 666 142.715C632.33 146.85 601.166 165.971 572 182.139C562.706 187.291 552.984 191.729 544 197.436C540.8 199.468 535.987 201.841 534.028 205.209C532.414 207.982 533 211.926 533 215C533 222.716 534.088 230.284 533.996 238C533.796 254.843 529.674 267.4 521.424 282C518.662 286.889 514.625 298.481 507.999 299.114C501.239 299.761 494.515 286.774 491.615 282C483.501 268.643 478.259 254.008 474.152 239C472.32 232.304 472.477 222.075 468.825 216.228C466.006 211.717 458.606 212.256 454 211.573C445.767 210.351 438.881 206.884 432 202.251C421 194.845 412.182 184.855 402 176.464C382.739 160.59 359.624 145.1 336 136.692C325.381 132.913 314.221 130.854 303 130.09C275.835 128.24 253.109 143.138 234.17 160.675C220.284 173.533 208.188 187.671 198.453 204C192.671 213.698 188.604 224.259 182.985 234C166.277 262.968 135.979 280.876 118.425 309C109.119 323.91 98.7829 341.022 93.9097 358C86.6679 383.229 87.1246 410.005 86.9992 436C86.8996 456.667 86 477.228 86 498M544 260C565.045 260 586.022 260.034 607 260.961C617.757 261.436 632.394 261.626 642 267.088C654.196 274.023 662.208 288.462 670.92 299C677.6 307.081 688.953 318.273 690.775 329C694.815 352.77 685.995 377.135 681.286 400C677.205 419.811 677 439.864 677 460C680.482 451.929 680.947 440.736 682.414 432C683.78 423.859 686.359 416.079 687.996 408C691.899 388.745 694.89 369.753 709 355C712.476 364.421 720.178 371.609 720.911 382C721.627 392.172 720.128 401.936 719.17 412C717.781 426.579 716.913 441.376 715.911 456C715.16 466.955 712.842 480.316 716 491C721.427 478.419 719.501 461.458 721.428 448C724.017 429.919 731.025 412.531 736 395C745.337 405.167 756.006 418.419 761.819 431C767.091 442.413 769.706 454.91 772.884 467C775.551 477.144 779.09 486.946 782 497C785.058 489.644 781.209 477.923 781.015 470C780.706 457.386 780.391 445.495 778.439 433C777.917 429.66 778.178 426.222 777.031 423C774.999 417.292 770.998 412.006 767.667 407C757.463 391.667 744.421 378.719 734.707 363C726.46 349.655 724.542 332.98 717.215 319C708.237 301.869 694.101 287.968 681.089 274C673.166 265.494 666.206 256.428 657 249.211C641.877 237.357 624.224 234.816 606 231.537C597.325 229.976 586.641 227.107 578 230.109C569.929 232.912 564.213 240.245 558 245.715C553.033 250.087 546.865 253.906 544 260M196 363C208.391 342.421 223.625 323.579 239.975 306C246.216 299.291 251.107 290.886 260 287.285C271.493 282.633 285.212 286.509 297 288C288.087 303.493 275.084 316.462 266.012 332C258.439 344.971 254.822 359.809 247.691 373C236.073 394.493 222.911 415.426 229 441C231.344 435.414 230.691 428.058 232.427 422C236.989 406.084 247.346 389.619 261 380C261 388.252 261.625 396.784 260.83 405C260.202 411.487 257.866 417.577 257 424C262.686 418.141 264.547 408.708 266.474 401C272.027 378.788 269.213 354.591 286 337C286.004 342.38 286.156 347.91 288.14 353C292.221 363.465 300.249 371.808 303.104 383C304.606 388.886 306.244 394.94 306.83 401C307.273 405.57 306.309 410.06 309 414C313.577 398.659 309.466 380.8 304.484 366C300.493 354.143 295.414 345.055 297.3 332C298.976 320.399 308.703 310.662 315.92 302C322.837 293.698 329.726 284.29 339 278.465C353.314 269.473 367.613 268.033 384 266.91C397.563 265.982 413.747 263.653 427 267.802C430.595 268.928 433.65 271.343 437 273C436.989 256.837 420.956 239.859 405 236.39C396.603 234.565 385.456 237.177 377 238.289C346.333 242.322 316.414 249.649 287 258.971C277.968 261.834 267.298 261.51 259 266.272C245.849 273.819 235.4 286.321 226.001 298C216.98 309.208 207.391 320.069 199.33 332C196.925 335.56 193.783 339.028 192.089 343C189.878 348.182 189.962 360.996 196 363z"/>
</svg>
