<?xml version="1.0" encoding="UTF-8" standalone="no"?>
<svg
   xmlns:dc="http://purl.org/dc/elements/1.1/"
   xmlns:cc="http://creativecommons.org/ns#"
   xmlns:rdf="http://www.w3.org/1999/02/22-rdf-syntax-ns#"
   xmlns:svg="http://www.w3.org/2000/svg"
   xmlns="http://www.w3.org/2000/svg"
   xmlns:sodipodi="http://sodipodi.sourceforge.net/DTD/sodipodi-0.dtd"
   xmlns:inkscape="http://www.inkscape.org/namespaces/inkscape"
   width="1000"
   height="618"
   version="1.1"
   id="svg6083"
   sodipodi:docname="f145681f5678b8b54d3d2d03c06e9968_stranger-things-m.svg">
  <metadata
     id="metadata6089">
    <rdf:RDF>
      <cc:Work
         rdf:about="">
        <dc:format>image/svg+xml</dc:format>
        <dc:type
           rdf:resource="http://purl.org/dc/dcmitype/StillImage" />
      </cc:Work>
    </rdf:RDF>
  </metadata>
  <defs
     id="defs6087" />
  <sodipodi:namedview
     pagecolor="#ffffff"
     bordercolor="#666666"
     borderopacity="1"
     objecttolerance="10"
     gridtolerance="10"
     guidetolerance="10"
     inkscape:pageopacity="0"
     inkscape:pageshadow="2"
     inkscape:window-width="640"
     inkscape:window-height="480"
     id="namedview6085"
     showgrid="false" />
  <path
     style="fill:#ffffff; stroke:none;"
     d="M0 0L0 618L1000 618L1000 0L0 0z"
     id="path6079" />
  <path
     style="fill:#ff0000;stroke:none"
     d="m 611.91083,112.50955 c -5.323,2.618 -7.204,7.8977 -9.753,13 -5.494,10.9943 -9.746,22.1932 -13.107,34 -4.284,15.053 -9.286,30.523 -11.815,46 -5.177,31.685 -3.427,65.777 3.337,97 3.12,14.4 9.5,27.201 16.572,40 2.346,4.247 5.98,11.525 10.921,13.199 5.404,1.831 8.69,-7.66 10.614,-11.199 3.981,-7.321 9.22,-14.959 11.598,-23 1.707,-5.774 1.633,-12.045 1.633,-18 0,-28.652 -5.311,-56.899 -10.611,-85 -2.393,-12.686 -5.992,-25.112 -7.219,-38 -2.16,-22.6804 7.383,-46.4167 -2.17,-68 m -424,446 c 2.9005,-5.416 3.0965,-12.062 4.4252,-18 3.2055,-14.326 5.4245,-28.604 8.1867,-43 3.7801,-19.701 8.3101,-41.354 15.8411,-60 6.828,-16.906 17.319,-33.068 27.664,-48 7.861,-11.348 14.246,-24.037 25.883,-32 1.365,17.29 1,34.631 1,52 0,9.671 1.084,20.701 -2.108,30 -3.474,10.122 -11.096,19.193 -15.583,29 -5.833,12.747 -8.365,26.338 -10.92,40 -1.506,8.052 -4.251,22.883 0.611,30 8.585,-24.755 7.173,-52.607 30,-70 2.83,13.016 -5.759,27.507 -8.575,40 -5.547,24.613 -7.596,47.911 -4.425,73 h 2 c 0,-20.337 1.033,-40.681 8.054,-60 3.875,-10.663 10.146,-19.852 14.946,-30 h 2 c 6.503,19.993 9.285,40.898 20.576,59 3.052,4.893 6.01,10.254 10.424,14 4.042,-8.448 -1.601,-19.734 -4.586,-28 -6.097,-16.876 -10.594,-35.338 -13.8,-53 -3.439,-18.947 -6.56,-37.958 -8.9,-57 -1.123,-9.139 -3.924,-17.675 -3.699,-27 0.646,-26.807 8.75,-52.699 17.075,-78 10.001,-30.396 28.208,-59.763 53.91,-79.231 10.677,-8.088 23.33,-16.236 37,-17.598 10.305,-1.028 22.377,2.386 32,5.883 27.983,10.17 46.032,33.166 68,51.812 13.462,11.426 31.448,17.852 42.471,32.134 6.626,8.585 5.725,15.94 6.699,26 0.945,9.768 3.099,19.849 6.641,29 10.578,27.332 29.285,51.051 40.725,78 4.232,9.969 8.992,20.46 11.566,31 2.516,10.305 2.659,21.147 6.898,31 4.189,-1.996 6.456,-5.17 8.996,-9 3.251,-4.902 6.431,-10.14 7.536,-16 1.676,-8.883 0.11,-18.016 1.917,-27 1.272,-6.322 3.227,-12.509 3.512,-19 0.39,-8.908 -1.327,-17.081 0.349,-26 2.027,-10.788 6.158,-21.199 8.229,-32 2.095,-10.92 2.13,-22.917 1.372,-34 -1.086,-15.845 -1.665,-32.324 1.489,-48 1.388,-6.899 3.081,-14.268 8.6,-19 -1.358,10.69 -4.91,21.18 -5,32 7.234,-4.193 12.974,-11.209 19,-16.961 6.831,-6.52 14.449,-12.48 22,-18.144 26.981,-20.238 61.606,-36.531 95,-42.431 11.267,-1.991 20.137,3.099 30,7.755 13.151,6.208 26.344,12.301 39,19.5 23.506,13.372 47.201,32.118 61.627,55.281 7.877,12.647 8.805,28 12.8,42 8.323,29.166 18.183,57.26 17.314,88 -0.224,7.894 -1.82,16.109 -2.571,24 -1.557,16.358 -2.368,32.648 -4.456,49 -1.363,10.681 -3.804,21.203 -4.339,32 -0.409,8.254 1.271,16.757 1.625,25 h 2 c 1.208,-15.183 5.615,-30.221 8.989,-45 3.172,-13.892 4.848,-27.597 10.011,-41 11.69,12.222 18.505,27.495 24.6,43 2.584,6.572 3.053,18.159 9.4,22 -0.05,-18.094 -5.233,-37.277 -11.922,-54 -4.667,-11.667 -11.108,-22.933 -14.654,-35 -2.646,-9.006 -5.687,-18.593 -6.335,-28 -0.913,-13.271 1.002,-26.755 -0.259,-40 -1.344,-14.124 -7.715,-26.894 -8.83,-41 12.177,2.817 22.441,10.026 33,16.399 12.31,7.429 23.75197,15.431 33.99897,25.605 4.107,4.078 9.253,8.725 11.826,13.996 3.809,7.803 1.685,19.541 2.264,28 1.548,22.598 -0.089,45.296 -0.089,68 0,9.749 -1.267,20.479 1,30 6.679,-12.288 5.885,-27.552 7.17,-41 1.98,-20.725 7.43,-41.283 8.855,-62 0.535,-7.789 2.966,-15.131 2.975,-23 0,-2.778 0.418,-6.069 -1.028,-8.576 -2.237,-3.879 -6.709,-6.646 -9.972,-9.594 -7.026,-6.345 -13.899,-12.852 -21,-19.115 -6.61,-5.83 -12.355,-12.629 -19.16997,-18.237 -19.565,-16.099 -40.875,-30.501 -58.83,-48.478 -11.731,-11.746 -20.547,-25.981 -32.039,-38 -23.255,-24.319 -51.934,-45.523 -82.961,-58.85 -7.782,-3.342 -15.76,-7.572 -24,-9.636 -10.117,-2.534 -20.798,-1.052 -31,0.201 -33.67,4.135 -64.834,23.256 -94,39.424 -9.294,5.152 -19.016,9.59 -28,15.297 -3.2,2.032 -8.013,4.405 -9.972,7.773 -1.614,2.773 -1.028,6.717 -1.028,9.791 0,7.716 1.088,15.284 0.996,23 -0.2,16.843 -4.322,29.4 -12.572,44 -2.762,4.889 -6.799,16.481 -13.425,17.114 -6.76,0.647 -13.484,-12.34 -16.384,-17.114 -8.114,-13.357 -13.356,-27.992 -17.463,-43 -1.832,-6.696 -1.675,-16.925 -5.327,-22.772 -2.819,-4.511 -10.219,-3.972 -14.825,-4.655 -8.233,-1.222 -15.119,-4.689 -22,-9.322 -11,-7.406 -19.818,-17.396 -30,-25.787 -19.261,-15.874 -42.376,-31.364 -66,-39.772 -10.619,-3.779 -21.779,-5.838 -33,-6.602 -27.165,-1.85 -49.891,13.048 -68.83,30.585 -13.886,12.858 -25.982,26.996 -35.717,43.325 -5.782,9.698 -9.849,20.259 -15.468,30 -16.708,28.968 -47.006,46.876 -64.56,75 -9.306,14.91 -19.6421,32.022 -24.5153,49 -7.2418,25.229 -6.7851,52.005 -6.9105,78 -0.0996,20.667 -0.9992,41.228 -0.9992,62 m 458,-238 c 21.045,0 42.022,0.034 63,0.961 10.757,0.475 25.394,0.665 35,6.127 12.196,6.935 20.208,21.374 28.92,31.912 6.68,8.081 18.033,19.273 19.855,30 4.04,23.77 -4.78,48.135 -9.489,71 -4.081,19.811 -4.286,39.864 -4.286,60 3.482,-8.071 3.947,-19.264 5.414,-28 1.366,-8.141 3.945,-15.921 5.582,-24 3.903,-19.255 6.894,-38.247 21.004,-53 3.476,9.421 11.178,16.609 11.911,27 0.716,10.172 -0.783,19.936 -1.741,30 -1.389,14.579 -2.257,29.376 -3.259,44 -0.751,10.955 -3.069,24.316 0.089,35 5.427,-12.581 3.501,-29.542 5.428,-43 2.589,-18.081 9.597,-35.469 14.572,-53 9.337,10.167 20.006,23.419 25.819,36 5.272,11.413 7.887,23.91 11.065,36 2.667,10.144 6.206,19.946 9.116,30 3.058,-7.356 -0.791,-19.077 -0.985,-27 -0.309,-12.614 -0.624,-24.505 -2.576,-37 -0.522,-3.34 -0.261,-6.778 -1.408,-10 -2.032,-5.708 -6.033,-10.994 -9.364,-16 -10.204,-15.333 -23.246,-28.281 -32.96,-44 -8.247,-13.345 -10.165,-30.02 -17.492,-44 -8.978,-17.131 -23.114,-31.032 -36.126,-45 -7.923,-8.506 -14.883,-17.572 -24.089,-24.789 -15.123,-11.854 -32.776,-14.395 -51,-17.674 -8.675,-1.561 -19.359,-4.43 -28,-1.428 -8.071,2.803 -13.787,10.136 -20,15.606 -4.967,4.372 -11.135,8.191 -14,14.285 m -348,103 c 12.391,-20.579 27.625,-39.421 43.975,-57 6.241,-6.709 11.132,-15.114 20.025,-18.715 11.493,-4.652 25.212,-0.776 37,0.715 -8.913,15.493 -21.916,28.462 -30.988,44 -7.573,12.971 -11.19,27.809 -18.321,41 -11.618,21.493 -24.78,42.426 -18.691,68 2.344,-5.586 1.691,-12.942 3.427,-19 4.562,-15.916 14.919,-32.381 28.573,-42 0,8.252 0.625,16.784 -0.17,25 -0.628,6.487 -2.964,12.577 -3.83,19 5.686,-5.859 7.547,-15.292 9.474,-23 5.553,-22.212 2.739,-46.409 19.526,-64 0.004,5.38 0.156,10.91 2.14,16 4.081,10.465 12.109,18.808 14.964,30 1.502,5.886 3.14,11.94 3.726,18 0.443,4.57 -0.521,9.06 2.17,13 4.577,-15.341 0.466,-33.2 -4.516,-48 -3.991,-11.857 -9.07,-20.945 -7.184,-34 1.676,-11.601 11.403,-21.338 18.62,-30 6.917,-8.302 13.806,-17.71 23.08,-23.535 14.314,-8.992 28.613,-10.432 45,-11.555 13.563,-0.928 29.747,-3.257 43,0.892 3.595,1.126 6.65,3.541 10,5.198 -0.011,-16.163 -16.044,-33.141 -32,-36.61 -8.397,-1.825 -19.544,0.787 -28,1.899 -30.667,4.033 -60.586,11.36 -90,20.682 -9.032,2.863 -19.702,2.539 -28,7.301 -13.151,7.547 -23.6,20.049 -32.999,31.728 -9.021,11.208 -18.61,22.069 -26.671,34 -2.405,3.56 -5.547,7.028 -7.241,11 -2.211,5.182 -2.127,17.996 3.911,20 z"
     id="path6081"
     inkscape:connector-curvature="0" />
</svg>
