<?xml version="1.0" standalone="yes"?>
<svg xmlns="http://www.w3.org/2000/svg" width="900" height="1350">
<path style="fill:#c30101; stroke:none;" d="M0 0L0 1350L900 1350L900 0L0 0z"/>
<path style="fill:#030101; stroke:none;" d="M552 169C545.147 155.28 522.285 158.733 520 174C516.886 174.359 515.51 175.874 512.741 177.005C508.468 178.749 504.698 177.325 502 182L500 182C497.094 178.729 494.352 181.964 490.91 182.892C487.457 183.823 483.557 183.927 480 184C482.096 182.957 483.699 182.397 486 182C481.427 175.731 469.712 183.023 464.576 185.682C459.861 188.122 454.275 187.103 449.464 189.59C439.096 194.949 428.991 204.439 417 206L415 214C406.907 210.128 398.76 211.315 390 211.546C382.253 211.75 374.513 210.36 366.91 210.299C362.865 210.266 359.118 211.55 355 211.246C349.257 210.822 336.787 209.047 333 214C329.966 213.476 328.72 213.4 327 216C319.919 214.314 309.154 213.936 304 220C296.254 218.316 289.281 220.725 281.985 222.83C275.53 224.693 268.798 225.629 262.285 227.44C256.728 228.985 251.838 231.729 246 232C242.862 237.426 236.409 237.271 231.174 239.67C227.165 241.506 223.933 244.908 219.829 246.491C215.118 248.308 211.299 247.921 209 253L205 252C201.862 256.131 197.39 258.238 193.117 261.025C188.368 264.121 184.857 267.679 179 268L179 272C175.126 273.224 172.059 275.875 168 277L168 281C162.734 281.913 159.892 283.552 159 289L155 289L155 296L149 297C148.822 301.08 148.63 304.713 145 307L146 311C134.428 318.692 138.192 333.402 140.907 344.424C141.481 346.75 141.3 349.154 142.133 351.42C143.431 354.952 146.79 357.476 147.687 361.054C149.498 368.281 147.997 377.561 148 385C148.003 393.163 148.695 400.828 147.715 409C146.54 418.791 143.678 430.207 145.465 439.999C146.748 447.036 151.277 453.498 154.138 460C157.294 467.171 158.667 475.172 157.826 483C156.704 493.447 151.634 506.544 146.575 515.714C140.878 526.04 133.78 534.337 136.38 547C139.17 560.595 155.005 558.378 162.4 567.39C165.397 571.043 164.993 577.563 165 582C165.011 588.785 165.599 593.695 168 600C171.117 600.765 173.837 602.44 177.015 603.058C183.821 604.382 191.091 604.127 198 605C191.053 609.576 175.282 621.408 185.499 631.117C190.643 636.004 199.846 636.317 204.258 641.499C206.774 644.455 205.998 649.41 206 653C206.003 660.189 206.151 671.423 212.144 676.501C216.586 680.264 223.446 681.339 229 682.246C245.749 684.983 263.557 681.463 279 674.85C287.16 671.355 299.963 662.569 308.985 666.288C314.505 668.564 316.971 674.797 319.077 680C323.759 691.566 329.152 702.978 332.626 715C335.048 723.383 323.243 728.003 318.46 733.729C304.49 750.454 293.537 768.929 291.05 791C290.524 795.668 286.285 805.622 290 809C285.717 817.722 279.675 826.271 278 836C283.297 835.055 287.389 832.195 292 829.568C300.337 824.817 308.588 819.925 317 815.306C348.951 797.759 380.35 779.087 412 760.999C421.41 755.621 430.829 750.25 440 744.47C443.958 741.976 448.746 737.463 453.576 737.022C458.881 736.538 464.64 741.499 468.92 744.083C479.807 750.658 490.923 756.982 502.05 763.142C533.897 780.771 565.053 799.637 596.718 817.59C610.25 825.263 623.609 835.07 638 841C637.829 820.354 630.213 795.45 619.158 778.015C616.983 774.584 613.681 771.894 611.214 768.651C607.521 763.796 604.465 758.53 600.661 753.753C593.601 744.889 585.464 732.88 575 728C578.561 710.965 586.336 694.109 592.8 678C595.144 672.159 597.769 663.749 605.004 662.704C613.692 661.449 624.25 668.945 632 672.139C646.384 678.066 662.548 681.005 678 679.155C683.724 678.47 690.048 678.012 694.985 674.74C703.364 669.186 704.555 658.266 704.961 649C705.094 645.956 704.335 642.084 705.603 639.225C707.11 635.828 711.906 634.912 715 633.572C722.823 630.182 731.234 622.102 725.397 613.005C724.257 611.229 722.653 609.786 721.035 608.46C718.539 606.414 716.085 604.843 713 604C719.999 596.648 731.089 603 738.981 597.347C749.699 589.669 741.537 575.275 747.317 565.21C749.428 561.535 754.392 559.59 758 557.756C766.696 553.336 775.53 548.205 775.491 537C775.466 529.941 770.895 523.816 767.414 518.079C763.162 511.074 759.398 503.126 758 495C747.874 496.252 742.062 492.155 733 488.452C725.858 485.534 718.337 483.123 711 480.745C674.583 468.941 638.32 456.622 602 444.515C571.525 434.357 541.036 429.283 509 427.089C488.069 425.656 466.949 427.345 446 425.911C424.655 424.449 403.375 418.441 382 418C382.131 433.803 390.164 444.591 397 458C381.989 450.187 378.111 432.2 372 418L370 418C361.357 438.396 378.168 465.927 359 483C359.405 475.103 362.185 468.156 361.985 460C361.624 445.258 358 430.797 358 416C352.862 415.894 338.465 414.461 338.346 406.999C338.288 403.395 343.929 399.806 345 396L353 397C350.051 392.973 344.673 391.885 342.322 386.996C338.121 378.261 347.558 373.322 355 375.653C358.601 376.78 361.176 379.458 364 381.806C370.874 387.523 377.518 393.663 379 403C430.981 412.685 483.643 404.747 536 407.039C579.172 408.93 622.02 417.548 665 422.166C689.093 424.755 713.264 428.978 737 433.801C743.34 435.089 749.782 436.373 756 438.165C758.117 438.775 761.282 440.58 763.486 439.558C766.911 437.97 766.114 430.987 765.911 428C765.388 420.326 764.436 412.678 763.911 405C763.722 402.251 762.591 398.845 764.194 396.318C766.484 392.706 774.246 393.408 778 392.689C786.698 391.023 799.043 387.507 804.347 379.985C810.676 371.01 804.513 361.399 805.762 352C807.924 335.738 825.09 324.429 820.387 307C819.192 302.572 816.423 299.284 812.424 297.108C809.646 295.597 805.972 295.096 804.603 291.866C803.144 288.423 803.928 283.701 803.192 280C800.627 267.094 794.053 257.126 780 257C780 249.231 780.322 242.2 776.628 235.089C774.794 231.56 771.4 228.965 769.718 225.374C768.746 223.298 769.835 221.069 768.852 219.039C767.019 215.255 763.155 214.423 762 210C757.465 209.219 752.089 207.574 748.259 204.93C745.288 202.878 743.594 200.143 739.995 198.92C735.695 197.458 730.492 200.326 726.704 198.288C723.885 196.771 722.252 193.28 719.946 191.132C715.574 187.06 709.852 185.268 704 185C701.5 177.393 692.622 177.713 686.039 176.871C681.766 176.325 678.201 173.48 674 172.529C669.981 171.618 666.031 172.529 662 172.201C657.707 171.851 651.092 172.735 647.17 171.401C643.06 170.002 640.457 166.175 635.961 165.343C627.678 163.812 618.494 165.732 610.17 163.53C606.004 162.428 602.331 160.243 598 159.464C593.682 158.689 589.306 159.564 585.004 158.776C581.234 158.086 577.94 155.769 574 156.501C565.497 158.08 559.125 165.244 552 169z"/>
<path style="fill:#c30101; stroke:none;" d="M531 171C534.598 172.513 539.095 172.506 543 173C538.944 169.532 535.956 169.509 531 171M803 305C802.996 311.193 799.498 320.723 807 323C809.319 316.636 811.169 307.426 803 305z"/>
<path style="fill:#ede5cf; stroke:none;" d="M353 397C347.225 395.993 345.045 397.699 341.02 401.835C338.958 403.954 336.871 405.951 338.662 408.971C342.428 415.323 351.461 415.946 358 416C358 430.172 360.946 443.913 361.91 458C362.39 464.995 360.435 472.191 362 479L364 479C367.109 470.941 369.091 462.721 368.981 454C368.828 441.833 366.286 429.902 370 418L372 418C375.793 429.857 380.881 450.503 394 455C392.765 449.602 389.463 445.016 387.178 440C384.024 433.077 382.157 425.617 382 418C409.405 419.176 436.513 425.757 464 426.961C501.824 428.617 541.218 425.652 578 437.026C618.538 449.56 658.869 463.333 699 477.079C709.963 480.834 721.267 484.066 732 488.452C738.525 491.118 744.626 495.918 751.999 495.816C759.003 495.718 760.665 489.799 761.989 484C764.178 474.415 766.012 464.866 766 455C765.995 450.678 766.155 445.808 763.297 442.225C758.044 435.638 742.789 434.869 735 433.211C708.269 427.518 681.032 424.627 654 420.87C613.906 415.296 573.412 408.809 533 407.039C493.359 405.304 453.582 410.789 414 406.831C407.687 406.2 401.335 405.388 395 405.036C390.804 404.802 384.978 404.97 381.279 402.683C377.728 400.488 375.649 393.538 373.42 390.015C368.284 381.9 356.318 372.399 346.055 375.434C339.224 377.453 340.582 386.605 344.394 390.786C346.822 393.448 350.362 394.615 353 397z"/>
<path style="fill:#c30101; stroke:none;" d="M342 388L343 389L342 388M373 390L374 391L373 390M345 396L346 397L345 396M378 399L379 400L378 399M388 404L389 405L388 404M399 405L400 406L399 405M482 407C484.052 407.874 485.747 407.953 488 408C485.948 407.126 484.253 407.047 482 407M537 407C538.506 407.683 539.315 407.826 541 408C539.494 407.317 538.685 407.174 537 407M338 409L339 410L338 409M567.667 409.333C567.222 409.778 568.278 409.722 568.333 409.667C568.778 409.222 567.722 409.278 567.667 409.333M583 411L584 412L583 411M589 412L590 413L589 412M609 415L610 416L609 415M624 417L625 418L624 417M643 419L644 420L643 419M651 420L652 421L651 420M658 421L659 422L658 421M667 422L668 423L667 422M674 423L675 424L674 423M681 424L682 425L681 424M702 427L703 428L702 427M375 428L376 429L375 428M708 428L709 429L708 428M719 430L720 431L719 430M740 434L741 435L740 434M378 435L379 436L378 435M744 435L745 436L744 435M385 436L386 437L385 436M753 437L754 438L753 437M757 438L758 439L757 438M760 439L761 440L760 439M388 443L389 444L388 443M394 453L392 456C393.745 456.89 395.125 457.453 397 458C396.251 455.746 395.656 454.687 394 453M361 454L362 455L361 454M368 460L369 461L368 460M360 475C359.352 477.709 359.058 480.216 359 483C362.431 480.764 362.383 478.161 360 475z"/>
</svg>
