<?xml version="1.0" standalone="yes"?>
<svg xmlns="http://www.w3.org/2000/svg" width="564" height="797">
<path style="fill:#020210; stroke:none;" d="M0 0L0 797L238 797C238 778.259 234.339 757.469 224.957 741C219.786 731.923 210.929 724.791 204.051 717C198.461 710.669 194.007 703.457 188.561 697C182.77 690.134 176.17 683.931 170.464 677C157.623 661.402 150.449 642.488 137.565 627C131.319 619.493 124.699 612.266 119.436 604C115.544 597.887 113.296 590.188 107.956 585.184C103.323 580.843 89.8999 575.996 89.5579 568.985C89.3138 563.981 94.0571 559.779 98.0008 557.533C109.136 551.191 124.452 557.441 135 562.309C140.391 564.797 145.664 567.963 149.961 572.093C153.177 575.185 155.925 578.766 159 582C168.344 591.826 175.046 603.936 187 611.069C192.309 614.238 200.157 616.699 206 613.566C208.579 612.184 210.895 610.07 212.896 607.961C215.41 605.31 217.294 602.27 218.89 599C225.69 585.075 224.731 570.056 226.17 555C226.86 547.774 228.073 540.261 227.981 533C227.717 512.034 223.522 490.913 222.09 470C221.558 462.232 222.623 454.704 222.961 447C223.412 436.685 222.762 426.322 223.015 416C223.198 408.497 225.395 401.248 227.116 394C228.174 389.543 228.777 384.821 231.51 381.001C237.378 372.798 246.61 369.834 254.981 376.419C260.283 380.59 260.597 386.74 261.025 393C261.62 401.711 261.8 410.259 262.015 419C262.455 436.991 267.024 454.227 268.829 472C270.39 487.356 268.676 505.713 275 520C280.764 518.387 280.841 514.387 281.575 509C282.945 498.943 282.117 488.143 281.996 478C281.901 469.962 280.399 462.099 281.17 454C282.51 439.923 286.34 426.165 286.961 412C287.493 399.854 288.898 388.946 290.855 377C292.098 369.411 292.586 361.644 296.969 355.015C303.569 345.032 317.384 343.238 324.262 354.004C326.652 357.746 326.945 362.684 326.996 367C327.262 389.375 325.738 411.693 326.004 434C326.131 444.723 328.25 455.206 327.985 466C327.562 483.268 324.631 499.657 326 517C329.108 509.661 328.807 498.935 329.015 491C329.119 487.029 329.309 480.467 332.514 477.604C335.458 474.974 340.542 476.649 344 477.13C353.648 478.475 363.243 479.999 373 480C375.644 500.943 365 520.975 365 542C369.34 539.491 370.157 534.55 371.667 530C374.841 520.432 377.273 510.613 380.344 501C381.885 496.179 382.972 487.986 389.019 487.163C395.187 486.323 404.244 488.922 409.996 491.094C412.518 492.046 415.221 493.38 416.168 496.105C418.025 501.444 414.336 510.711 412.997 516C409.244 530.825 402.723 545.535 402.039 561C400.359 599.027 395.31 636.693 387.339 674C384.109 689.117 377.279 703.064 373.888 718C372.159 725.615 372.617 733.341 371.575 741C369.007 759.866 366 777.907 366 797L564 797L564 0L0 0z"/>
<path style="fill:#d4b2a6; stroke:none;" d="M205 40C203.484 43.5701 202.738 47.1991 202 51C204.717 50.1485 206.283 50.1485 209 51C208.186 47.0544 207.578 43.1458 205 40M214 40C212.919 43.6566 213 47.1993 213 51L215 51L216 40L214 40M220 40L220 51C221.431 47.5899 221.431 43.41 220 40M236 40L236 51C243.754 49.7057 239.538 43.7334 236 40M258 47C256.416 47.7825 255.4 48.8699 254 50L254 42L258 44C256.786 40.37 252.875 39.4483 252.153 44.108C251.359 49.226 255.991 53.0433 258 47M259 40L259 51L261 51L261 46L263 46L263 51L265 51L265 40L263 40L263 45L261 45L261 40L259 40M267 40L267 51C267.683 49.494 267.826 48.6852 268 47C269.666 48.4464 271.119 49.8699 273 51C271.621 45.809 273.53 41.0445 267 40M274 40L274 51L276 51C276 47.0101 276.474 43.2659 274 40M281 49L280 50C278.814 48.8137 278.472 48.4161 278 47C277.317 48.5062 277.174 49.3147 277 51C279.205 50.9059 280.894 50.6438 283 50C281.894 46.7191 280.307 44.5846 278 42C279.58 42.6835 279.777 42.8049 281 44C281.563 41.523 278.626 39.2545 277.745 42.3356C277 44.9442 279.533 47.2592 281 49M283 40C284.448 43.7798 284.986 46.942 285 51L287 51C287.014 46.942 287.552 43.7798 289 40L283 40M291.584 41.0864C288.611 43.1747 290.192 52.8801 294.416 49.9136C297.389 47.8253 295.808 38.1199 291.584 41.0864M297 40L297 51L299 51L299 47C305.034 44.9963 302.121 40.3989 297 40M304 40L304 51L306 51L306 46L308 46L308 51L310 51L310 40C308.579 41.7885 308.303 42.7058 308 45L306 45L306 40L304 40M312 40L312 51L317 51C315.494 50.317 314.685 50.1741 313 50L313 46L317 46L313 42L317 42L317 40L312 40M318 51L320 51L320 47L323 51C323.876 48.6229 324.551 44.8739 323.373 42.4383C322.557 40.7523 320.342 40.0889 319.023 41.6474C317.198 43.8035 318 48.3802 318 51M329 40L329 51L331 51L331 46C332.137 48.3939 332.77 49.6261 335 51L335 40L333 40L334 46L331 40L329 40M342 51C342 49.3319 342.057 47.6468 341.981 45.9799C341.94 45.094 342.004 43.9979 341.682 43.1528C339.309 36.9228 333.164 46.2988 337.579 49.9722C338.819 51.004 340.512 50.884 342 51M344 40L344 51C348.938 50.9456 353.085 50.4069 358 51L358 45C359.077 47.5869 359.7 49.4081 362 51L362 40C361.015 42.3317 361.019 44.4565 361 47L358 40C355.875 42.8038 356.012 45.5334 356 49C354.679 45.9349 353.936 42.7139 352 40C351.298 41.6486 349.535 50.1602 346.545 48.0787C344.471 46.6355 344.924 42.1968 344 40M217 41L218 42L217 41z"/>
<path style="fill:#020210; stroke:none;" d="M268 45C270.124 44.1007 270.101 44.1236 271 42C268.636 42.4825 268.482 42.6359 268 45M292 42L292 50L294 50L294 42L292 42M299 42L299 45C300.797 45 300.521 44.9857 302 44C300.777 42.8049 300.58 42.6836 299 42M320 42L320 45L322 45L322 42L320 42M338 42L338 50C341.089 47.998 340.959 45.5355 341 42L338 42z"/>
<path style="fill:#d4b2a6; stroke:none;" d="M217 43L217 51C218.161 48.2302 218.161 45.7698 217 43M222 43L222 51L224 51L224 45L226 45L226 51C227.009 48.767 227.405 46.3957 228 44C228.722 46.4181 228.948 48.4717 229 51L231 51C230.979 48.1503 230.81 45.7291 230 43L222 43M242 43C242.066 46.7028 242.394 50.308 242 54C245.786 51.6144 246.38 47.2618 246 43C245.221 44.7691 245.088 46.0358 245 48L242 43z"/>
<path style="fill:#020210; stroke:none;" d="M205 44L205 48C205.71 46.2406 205.71 45.7595 205 44M352 44C351.782 45.6865 351.776 46.3162 352 48C352.71 46.2405 352.71 45.7595 352 44M237 45C237.176 46.8779 237.438 48.1995 238 50C238.779 48.231 238.912 46.9641 239 45L237 45z"/>
<path style="fill:#d4b2a6; stroke:none;" d="M338 99C334.105 106.417 329.777 101.637 323.91 100.299C321.075 99.653 317.891 100 315 100C317.185 112.055 336.134 115.128 344.867 107.581C350.394 102.804 349.686 94.9318 342.985 91.804C338.019 89.4864 332.169 88.9265 327 87L327 85C332.137 83.795 334.394 85.9387 339.17 86.5316C341.984 86.881 345.145 86.0589 348 86C345.779 75.0309 328.101 73.1754 320.214 79.652C312.623 85.8853 318.375 94.0504 326 96.1003C329.958 97.1644 334.005 98.0863 338 99M432 107C432.946 111.413 438.233 110 442 110L442 91L423 91L423 98L431 98C429.523 99.8688 428.255 101.42 425.981 102.392C414.915 107.122 407.995 89.6959 419.043 85.01C424.684 82.6177 433.781 86 440 86C438.184 79.5864 433.165 77.6405 427 76.7299C419.518 75.6249 411.729 76.3678 406.133 82.108C398.595 89.8415 399.865 104.215 410.004 109.08C413.136 110.583 416.554 111.072 420 110.957C424.529 110.805 428.193 109.344 432 107M85 78L85 82L97 82L97 110L102 110L102 82L114 82L114 78L85 78M119 78L119 110L123 110L123 95L147 95L147 110L151 110L151 78L147 78L147 91L123 91L123 78L119 78M159 78L159 110L189 110L189 106L163 106L163 95L187 95L187 91L163 91L163 82L187 82L187 78L159 78M206 78L206 110L217 110L217 99C223.012 99 230.711 100.02 235.891 96.2723C241.062 92.5322 241.641 82.9323 235.786 79.4568C232.621 77.5778 228.526 78.0013 225 78L206 78M242 78L242 110L254 110L254 98L260 98C262.152 109.159 268.046 110 278 110L271 97C277.876 93.6079 279.637 83.1802 271.981 79.179C268.982 77.6118 265.269 78.0013 262 78L242 78M281 78L281 110L314 110L314 103L292 103L292 98L312 98L312 90L292 90L292 85L313 85L313 78L281 78M350 78L350 85L361 85L361 110L372 110L372 85L383 85C383.11 82.5579 383.428 80.3773 384 78L350 78M386 78L386 110L398 110L398 78L386 78M446 78L446 110L479 110L479 103L458 103L458 98L477 98C477.117 95.2699 477.499 92.6858 478 90L458 90L458 85L479 85L479 78L446 78z"/>
<path style="fill:#020210; stroke:none;" d="M217 85L217 91C219.76 91 226.081 92.116 227.863 89.4159C231.297 84.2162 219.066 85 217 85M254 85L254 91C256.525 90.9997 265.364 92.1544 265.364 88C265.364 83.8456 256.525 85.0003 254 85z"/>
<path style="fill:#d4b2a6; stroke:none;" d="M212.105 224.851C205.698 226.831 208.029 238.531 214.892 236.338C221.192 234.325 218.912 222.747 212.105 224.851M249 224C248.232 227.357 247.3 230.56 247 234C245.773 230.902 244.842 227.787 243 225C241.439 227.603 241.138 229.978 241 233L239 233C238.735 229.794 238.563 227.072 236 225C236.619 229.194 237.734 233.398 240 237C241.529 234.5 242.197 231.821 243 229C244.154 231.892 245.051 234.563 247 237C248.736 232.966 250.661 228.258 249 224M278 234C276.148 234.537 274.126 235.426 272.317 234.187C269.778 232.447 269.929 227.689 273.204 226.863C274.866 226.443 276.531 227.42 278 228C274.949 222.795 268.281 224.626 268.442 230.999C268.586 236.664 275.095 238.476 278 234M318 237L318 230L313 230L313 232L317 232C311.105 238.479 308.01 227.522 314.064 226.782C315.324 226.629 316.925 227.576 318 228C312.78 219.097 303.632 231.35 311.225 235.961C313.175 237.146 315.809 236.839 318 237M335 234C333.291 234.479 331.049 235.498 329.278 234.713C326.313 233.399 326.236 228.596 329.238 227.287C331.032 226.505 333.27 227.515 335 228C334.315 227.18 333.699 226.002 332.68 225.459C323.773 220.713 321.872 238.744 331.863 236.423C333.369 236.073 333.992 235.028 335 234M348.144 225.072C342.109 228.25 345.969 240.291 352.682 235.968C357.371 232.947 354.419 221.767 348.144 225.072M365 233C361.926 235.045 360.847 235.437 358 233C356.872 237.736 365.362 237.884 365.364 233.826C365.366 230.738 360.47 228.558 359 226L365 227C363.396 224.757 357.487 223.214 358.176 227.896C358.602 230.787 362.746 232.047 365 233M396 229C397.783 228.02 397.594 228.092 398 226L402 227C400.687 229.36 399.659 231.391 399 234C400.584 232.373 402.468 230.558 402.38 228.055C402.183 222.396 396.981 225.778 396 229M166 225C163.956 228.835 162.195 232.819 161 237C166.234 233.917 166.808 233.731 172 237L168 225L166 225M173 225L173 237L175 237L175 232C177.655 233.317 179.655 235.187 182 237C181.268 234.082 182.886 229.617 181.749 227.279C180.335 224.369 175.624 225.009 173 225M184 225L184 237L193 237C190.668 236.015 188.543 236.019 186 236L186 231C188.106 231.644 189.795 231.906 192 232L192 230L186 230L186 226L193 226C190.11 224.787 187.126 225.002 184 225M198 225C199.902 229.099 201.752 232.408 202 237L204 237C204.248 232.408 206.098 229.099 208 225C205.726 226.402 205.013 227.515 204 230L202 230C201.061 227.363 200.42 226.382 198 225M221 225C221 227.915 220.084 232.966 222.028 235.396C223.799 237.61 227.526 236.844 228.972 234.682C230.683 232.123 230 227.922 230 225C229.1 227.14 226.243 240.393 222.603 231.923C221.656 229.72 221.937 227.227 221 225M254 225L250 237C255.192 233.731 255.766 233.917 261 237C259.604 232.873 258.048 228.845 256 225L254 225M260 225C261.248 225.685 261.548 225.749 263 226L263 237L265 237C265 232.808 264.175 228.48 268 226C265.387 224.902 262.836 225.007 260 225M280 225L280 237L282 237L282 231L289 231L289 237C290.552 233.302 290 228.983 290 225C289.221 226.769 289.088 228.036 289 230L282 230L282 225L280 225M293 225L293 237C294.512 233.396 294.512 228.604 293 225M297 225L297 237C298.327 233.837 298 230.414 298 227C300.351 230.747 302.555 234.193 306 237L306 225C304.787 227.89 305.002 230.874 305 234C302.505 230.756 300.525 227.139 297 225M337 225L337 237L345 237C342.668 236.015 340.543 236.019 338 236C338 232.3 338.44 228.432 337 225M368 225L368 237L376 237C373.668 236.015 371.543 236.019 369 236L369 231L375 231C372.948 230.126 371.253 230.047 369 230L369 226L376 226C373.387 224.902 370.836 225.007 368 225M378 225L378 237L386 237C384.291 236.2 381.94 235.806 380.599 234.4C378.325 232.017 379.215 227.893 378 225M385 225C386.748 229.084 388.701 232.495 389 237L395 225C392.5 226.321 390.944 227.916 389 230C387.906 227.643 387.165 226.401 385 225z"/>
<path style="fill:#020210; stroke:none;" d="M175 226L175 230L181 230C179.901 226.679 178.41 226.263 175 226M211.599 227.047C208.206 229.585 211.502 237.812 215.401 234.338C218.47 231.604 215.9 223.829 211.599 227.047M348.419 227.047C344.736 229.485 347.08 237.594 351.582 234.914C355.599 232.522 353.231 223.862 348.419 227.047M166 227L165 232L169 232C168.142 230.038 167.366 228.631 166 227M255 227L253 232L257 232C256.52 230.04 256.062 228.693 255 227z"/>
<path style="fill:#d4b2a6; stroke:none;" d="M399.333 235.667C399.278 235.722 399.222 236.778 399.667 236.333C399.722 236.278 399.778 235.222 399.333 235.667M275 520C268.596 500.311 270.099 478.376 266.424 458C264.009 444.607 262.166 430.6 262.004 417C261.904 408.577 261.597 400.384 261.025 392C260.745 387.901 260.78 382.562 258.397 379.044C252.031 369.645 238.839 371.047 232.278 379.015C226.157 386.449 224.438 401.626 223.286 411C222.045 421.11 223.016 431.82 223 442C222.985 451.024 221.792 459.923 222.015 469C222.233 477.914 223.479 487.083 224.09 496C224.934 508.339 227.707 520.617 227.946 533C228.079 539.896 226.826 547.132 226.17 554C224.623 570.192 225.781 586.414 217.319 601C214.23 606.325 208.377 613.398 202 614.682C194.846 616.122 187.141 611.025 182 606.703C165.169 592.553 155.966 571.157 135 561.862C125.151 557.495 112.929 552.929 102 555.532C96.2015 556.914 89.7663 561.582 89.3079 567.996C88.7344 576.02 101.922 580.587 106.985 585.184C112.867 590.526 115.235 598.401 119.436 605C124.699 613.266 131.319 620.493 137.565 628C150.449 643.488 157.623 662.402 170.464 678C176.17 684.931 182.77 691.134 188.561 698C194.007 704.457 198.461 711.669 204.051 718C210.954 725.819 219.759 732.876 224.957 742C234.13 758.101 237.998 778.644 238 797L366 797C366 778.263 369.055 760.513 371.575 742C372.617 734.341 372.159 726.615 373.888 719C375.466 712.052 378.638 705.748 380.806 699C384.399 687.813 387.055 676.48 389.49 665C392.145 652.481 393.452 639.62 395.439 627C397.851 611.681 400.848 596.509 401.91 581C402.366 574.352 401.624 567.648 402.09 561C403.275 544.093 410.796 528.472 414.091 512C415.05 507.206 418.702 498.975 415.817 494.394C412.983 489.893 404.706 489.341 400 488.4C396.035 487.607 391.162 486.165 387.133 487.318C382.275 488.708 380.985 497.799 379.72 502C377.013 510.986 374.619 520.101 371.667 529C370.05 533.871 368.952 538.549 365 542C365.002 521.276 376.821 500.581 373 480C363.265 479.994 353.628 478.319 344 477C340.682 476.545 335.528 474.886 332.514 477.028C329.811 478.949 329.472 483.991 329.171 487C328.189 496.814 327.027 507.137 327 517C324.251 508.88 325.34 501.328 325.91 493C326.855 479.222 329.345 464.816 327.715 451C325.794 434.721 327 419.272 327 403L327 373C327 367.155 327.659 360.518 325.297 355.001C319.643 341.792 301.686 345 295.825 356.004C292.47 362.302 291.985 369.105 290.855 376C288.847 388.253 287.76 399.599 286.91 412C285.965 425.811 282.48 439.244 281.17 453C280.4 461.084 281.609 468.976 281.961 477C282.4 487.025 282.929 498.056 281.575 508C280.819 513.553 280.579 517.653 275 520z"/>
</svg>
