<?xml version="1.0" standalone="yes"?>
<svg xmlns="http://www.w3.org/2000/svg" width="612" height="298">
<path style="fill:#fcfcfc; stroke:none;" d="M0 0L0 298L306 298L306 0L0 0z"/>
<path style="fill:#121213; stroke:none;" d="M306 0L306 298L612 298L612 0L306 0M131 30.4244C113.513 32.7204 96.3083 32.7783 79 37.1266C72.7388 38.6995 63.6118 40.5945 59.6042 46.1852C56.8076 50.0863 59.0783 54.8859 60.1049 59C62.3233 67.8896 64.0028 77.0147 65.8002 86C71.3794 113.891 78 142.459 78 171C78 177.763 78.9376 185.303 77.8519 191.981C76.9222 197.699 70.5833 197.308 66 198.081C57.5117 199.512 39.3666 202.683 39.2137 214C39.0252 227.954 60.4405 236.098 71 240.189C106.333 253.877 147.778 256.212 185 250.728C203.947 247.937 224.134 243.526 241 234.138C247.765 230.372 255.782 225.589 258.757 218C264.577 203.155 239.289 199.264 230 197.615C225.129 196.75 220.593 197.017 220.059 190.995C217.137 158.07 224.98 123.032 231.789 91C233.984 80.6774 235.969 70.3126 238.211 60C238.993 56.4057 241.518 51.76 240.215 48.0934C237.34 40.0069 221.271 37.2849 214 35.8071C200.07 32.9757 186.112 31.8769 172 30.9105C158.631 29.9949 144.373 28.6685 131 30.4244z"/>
<path style="fill:#fcfcfc; stroke:none;" d="M443 30.4244C425.496 32.7226 408.321 32.7762 391 37.1266C384.477 38.7648 375.81 40.4641 371.449 46.1049C368.429 50.0121 370.798 53.8031 371.711 58C373.734 67.3054 375.531 76.6568 377.4 86C382.181 109.902 386.822 133.741 389.17 158C390.204 168.684 391.587 181.309 389.852 191.981C388.95 197.53 383.418 196.971 379 197.804C370.047 199.492 351.419 201.897 351.103 214C350.734 228.129 372.378 236.075 383 240.189C418.354 253.883 459.749 256.216 497 250.728C516.176 247.904 537.152 243.358 554 233.395C559.977 229.86 567.258 225.776 569.991 219C576.149 203.732 552.917 199.674 543 197.804C537.945 196.851 532.625 197.373 532.059 190.995C529.119 157.859 536.997 123.304 543.449 91C545.515 80.6542 547.977 70.3636 549.92 60C550.61 56.3178 552.693 51.7292 551.382 48.0154C548.4 39.571 533.49 37.6096 526 35.8873C512.174 32.7082 498.064 31.8736 484 30.9105C470.631 29.9949 456.373 28.6685 443 30.4244M78 197C78.0021 199.704 77.5001 203.216 79.0278 205.61C80.6815 208.2 84.3195 209.408 87 210.576C93.8346 213.553 100.782 216.209 108 218.116C136.011 225.515 165.117 225.378 193 217.421C199.578 215.544 205.771 213.122 212 210.306C214.269 209.28 217.452 208.479 218.972 206.351C220.7 203.933 220 199.805 220 197C209.465 200.035 199.672 205.561 189 208.572C169.992 213.935 148.507 215.366 129 212.572C118.483 211.065 107.991 208.577 98 204.946C91.2461 202.491 85.0055 198.664 78 197z"/>
<path style="fill:#121213; stroke:none;" d="M390 197C390.002 199.704 389.5 203.216 391.028 205.61C392.827 208.428 397.081 209.848 400 211.138C407.394 214.408 415.167 216.906 423 218.873C449.687 225.576 477.533 225.125 504 217.573C513.65 214.819 522.461 209.748 532 207L532 197C524.139 199.264 516.783 203.37 509 205.996C495.888 210.421 481.799 212.966 468 213.91C450.059 215.139 431.023 211.88 414 206.33C405.841 203.67 398.201 199.362 390 197z"/>
</svg>
