<?xml version="1.0" standalone="yes"?>
<svg xmlns="http://www.w3.org/2000/svg" width="338" height="600">
<path style="fill:#121319; stroke:none;" d="M0 0L0 600L338 600L338 0L206 0C205.998 19.7359 201.69 39.5908 198.435 59C194.315 83.5723 191.3 109.112 191.004 134C190.76 154.513 200.756 172.772 203.17 193C204.936 207.796 215.631 222.549 221.694 236C223.825 240.727 228.745 248.139 223.757 252.552C220.415 255.508 216.665 254.068 214.243 250.867C207.68 242.191 203.909 231.814 195 225C195.333 241.051 204.917 256.012 205.237 271.999C205.363 278.294 195.531 283.65 190.419 279.396C188.039 277.415 187.247 273.772 186.192 271C182.675 261.755 181.479 244.925 172 240C172 260.12 170.909 279.961 170.039 300C169.806 305.386 171.211 310.657 170.907 316C170.585 321.641 169.761 328.934 167.16 333.995C166.144 335.972 164.537 338.692 161.972 338.654C154.433 338.544 153.896 323.108 153.285 318C152.414 310.716 153.411 303.307 152.91 296C151.836 280.322 150.238 264.682 149 249C144.932 252.083 144.566 259.211 143.6 264C141.112 276.345 138.375 288.585 136.246 301C135.507 305.308 133.57 316.951 127.105 316.079C121.924 315.38 120.907 302.942 121.184 299C122.545 279.665 125.603 260.41 125.985 241C126.112 234.506 123.633 229.229 122.468 223C121.217 216.317 120.849 208.795 121.015 202C121.221 193.542 123.992 185.376 124.829 177C126.682 158.47 128.146 139.597 128.961 121C129.485 109.019 128.515 96.9812 129.039 85C129.565 73.0045 131.488 61.0516 130.961 49C130.245 32.6667 128.002 16.3849 128 0L0 0z"/>
<path style="fill:#aeaeae; stroke:none;" d="M128 0C128 16.7267 130.231 33.3284 130.961 50C131.458 61.3588 129.535 72.687 129.039 84C128.515 95.9812 129.485 108.019 128.961 120C128.146 138.597 126.682 157.471 124.829 176C124.025 184.042 121.395 191.895 121.039 200C120.698 207.775 121.036 216.349 122.468 224C123.629 230.206 126.323 235.505 125.91 242C125.172 253.597 124.931 265.445 123.83 277C123.104 284.63 121.199 292.333 121.054 300C120.976 304.127 121.889 317.179 128.029 316.534C134.749 315.828 135.738 305.048 136.586 300C138.505 288.584 141.113 277.345 143.4 266C144.541 260.338 145.119 253.443 149 249C149.688 265.017 151.815 281.02 152.91 297C153.411 304.307 152.414 311.716 153.285 319C153.874 323.92 154.627 340.906 162.899 339.168C169.912 337.695 170.744 321.539 170.96 316C171.157 310.952 169.843 306.048 170.04 301C170.834 280.629 172 260.454 172 240C180.873 246.964 181.685 260 185.424 270C186.513 272.912 187.378 277.198 189.702 279.397C194.404 283.844 205.397 279.346 205.562 272.996C205.984 256.815 195.705 241.169 195 225C199.331 229.703 203.5 234.601 206.946 240C209.496 243.996 211.542 249.107 214.904 252.486C217.561 255.156 221.861 255.296 224.562 252.566C229.183 247.897 223.83 239.738 221.694 235C215.631 221.549 204.936 206.796 203.17 192C200.851 172.57 190.772 154.633 191.004 135C191.298 110.112 194.315 84.5718 198.435 60C201.751 40.2251 206 20.1063 206 0L128 0M192 500C189.132 499.713 186.706 498.991 184 498C183.014 499.479 183 499.203 183 501C185.266 502.089 187.372 503.077 189.982 502.729C193.663 502.238 196.091 498.641 193.394 495.433C191.744 493.471 189.349 493.263 187 493L187 490C189.816 490.56 192.152 491.258 195 491C192.268 487.906 181.81 485.351 183.752 492.871C184.649 496.349 190.107 496.902 192 500M236 503L236 494L230 494C230.482 496.364 230.636 496.518 233 497C225.524 503.869 225.098 486.409 233 493L236 492C229.622 479.848 216.841 496.158 226.228 501.818C228.967 503.469 232.93 502.816 236 503M84 488L84 490L88 490L88 503L90 503L90 490L94 490L94 488L84 488M99 488L99 502C99.8742 499.948 99.9528 498.253 100 496L107 496L107 503L109 503L109 488L107 488L107 494L100 494C99.9528 491.747 99.8742 490.052 99 488M115 488L115 503L124 503L124 501L117 501L117 496L122 496L122 494L117 494L117 490L124 490L124 488L115 488M136 488L136 503L139 503L139 498C143.189 497.77 151.149 493.354 144.682 489.028C142.34 487.461 138.671 488.002 136 488M152 488L152 503L155 503L155 497C157.761 499.302 159.5 501.912 163 503C162.146 499.375 163.91 492.189 161.392 489.603C159.182 487.334 154.861 488.002 152 488M168 488L168 503L179 503L179 500L171 500L171 496L178 496L178 494L171 494L171 490L179 490L179 488L168 488M199 488L199 490L203 490L203 503L206 503L206 490L210 490L210 488L199 488M214 488L214 503L218 503L218 488L214 488M242 488L242 503L253 503L253 500L245 500L245 496L252 496L252 494L245 494L245 490L252 490L252 488L242 488z"/>
<path style="fill:#121319; stroke:none;" d="M139 490L139 495L144 495C143.423 491.526 142.474 490.577 139 490M155 490L155 495C159.992 494.168 159.992 490.832 155 490z"/>
</svg>
