<?xml version="1.0" encoding="UTF-8" standalone="no"?>
<!-- Created with Inkscape (http://www.inkscape.org/) -->

<svg
   xmlns:dc="http://purl.org/dc/elements/1.1/"
   xmlns:cc="http://creativecommons.org/ns#"
   xmlns:rdf="http://www.w3.org/1999/02/22-rdf-syntax-ns#"
   xmlns:svg="http://www.w3.org/2000/svg"
   xmlns="http://www.w3.org/2000/svg"
   xmlns:sodipodi="http://sodipodi.sourceforge.net/DTD/sodipodi-0.dtd"
   xmlns:inkscape="http://www.inkscape.org/namespaces/inkscape"
   version="1.1"
   id="svg2"
   xml:space="preserve"
   width="959.96002"
   height="961.12"
   viewBox="0 0 959.96002 961.12"
   sodipodi:docname="imasked.svg"
   inkscape:version="0.92.5 (2060ec1f9f, 2020-04-08)"
   inkscape:export-filename="/home/soumya/Pictures/Paid work/shankhnaad/imasked.png"
   inkscape:export-xdpi="300.04996"
   inkscape:export-ydpi="300.04996"><metadata
     id="metadata8"><rdf:RDF><cc:Work
         rdf:about=""><dc:format>image/svg+xml</dc:format><dc:type
           rdf:resource="http://purl.org/dc/dcmitype/StillImage" /><dc:title /></cc:Work></rdf:RDF></metadata><defs
     id="defs6"><clipPath
   clipPathUnits="userSpaceOnUse"
   id="clipPath898"><rect
     style="opacity:1;fill:#005522;fill-opacity:1;fill-rule:evenodd;stroke:none;stroke-width:28.58202362;stroke-linejoin:miter;stroke-miterlimit:4;stroke-dasharray:none;stroke-dashoffset:142.29919434;stroke-opacity:1;paint-order:fill markers stroke"
     id="rect900"
     width="164.61659"
     height="266.35526"
     x="-323.49197"
     y="-190.28807"
     transform="matrix(0.5897296,-0.80760077,-0.80760077,-0.5897296,0,0)" /></clipPath>
</defs><sodipodi:namedview
     pagecolor="#ffffff"
     bordercolor="#666666"
     borderopacity="1"
     objecttolerance="10"
     gridtolerance="10"
     guidetolerance="10"
     inkscape:pageopacity="0"
     inkscape:pageshadow="2"
     inkscape:window-width="1366"
     inkscape:window-height="662"
     id="namedview4"
     showgrid="false"
     showguides="false"
     inkscape:guide-bbox="true"
     inkscape:zoom="0.3472557"
     inkscape:cx="-151.33452"
     inkscape:cy="451.59282"
     inkscape:window-x="0"
     inkscape:window-y="27"
     inkscape:window-maximized="1"
     inkscape:current-layer="g10"><sodipodi:guide
       position="-161.26445,523.38953"
       orientation="-0.58778525,0.80901699"
       id="guide844"
       inkscape:locked="false"
       inkscape:label=""
       inkscape:color="rgb(0,0,255)" /><sodipodi:guide
       position="-338.00294,376.03372"
       orientation="1,0"
       id="guide861"
       inkscape:locked="false" /><sodipodi:guide
       position="-338.00294,376.03373"
       orientation="0.70710678,0.70710678"
       id="guide863"
       inkscape:locked="false" /><sodipodi:guide
       position="358.52012,537.91302"
       orientation="-0.58778525,0.80901699"
       id="guide865"
       inkscape:locked="false"
       inkscape:label=""
       inkscape:color="rgb(0,0,255)" /><sodipodi:guide
       position="-31.666155,547.13239"
       orientation="1,0"
       id="guide867"
       inkscape:locked="false" /><sodipodi:guide
       position="-469.36051,556.92017"
       orientation="-0.70710678,0.70710678"
       id="guide869"
       inkscape:locked="false" /><sodipodi:guide
       position="-351.32612,454.90614"
       orientation="1,0"
       id="guide871"
       inkscape:locked="false" /></sodipodi:namedview><g
     id="g10"
     inkscape:groupmode="layer"
     inkscape:label="ink_ext_XXXXXX"
     transform="matrix(1.3333333,0,0,-1.3333333,0,961.12)"><path
       inkscape:connector-curvature="0"
       id="path20"
       style="fill:#f47216;fill-opacity:1;fill-rule:evenodd;stroke:none;stroke-width:0.10545707"
       d="m 363.66428,662.64741 c 139.74222,0 253.09697,-113.35476 253.09697,-253.09697 0,-139.74222 -113.35475,-253.09697 -253.09697,-253.09697 -139.74116,0 -253.09697,113.35475 -253.09697,253.09697 0,139.74221 113.35581,253.09697 253.09697,253.09697 z m 0,-28.65269 c 123.92893,0 224.44534,-100.51535 224.44534,-224.44428 0,-123.92894 -100.51641,-224.44428 -224.44534,-224.44428 -123.92893,0 -224.44428,100.51534 -224.44428,224.44428 0,123.92892 100.51641,224.44428 224.44428,224.44428" /><path
       inkscape:connector-curvature="0"
       id="path22"
       style="fill:#005522;fill-opacity:1;fill-rule:evenodd;stroke:#ffffff;stroke-width:32.60533142;stroke-miterlimit:4;stroke-dasharray:none;stroke-opacity:1"
       d="m 363.66313,623.3535 c 118.0609,0 213.80421,-95.74331 213.80421,-213.80306 0,-118.05975 -95.74331,-213.80306 -213.80421,-213.80306 -118.0586,0 -213.80191,95.74331 -213.80191,213.80306 0,118.05975 95.74331,213.80306 213.80191,213.80306" /><circle
       style="opacity:1;fill:#ffffff;fill-opacity:1;fill-rule:evenodd;stroke:#ffffff;stroke-width:23.17819023;stroke-linejoin:miter;stroke-miterlimit:4;stroke-dasharray:none;stroke-dashoffset:142.29919434;stroke-opacity:1;paint-order:fill markers stroke"
       id="path880"
       cx="363.66431"
       cy="-409.55045"
       r="148.51152"
       transform="scale(1,-1)" /><path
       inkscape:connector-curvature="0"
       id="path22-3"
       style="fill:#003380;stroke:none;stroke-width:1.46360552"
       d="m 261.94369,513.21386 v -24.8813 c 43.81414,0 68.91575,-18.79899 92.95109,-42.83432 l 18.74256,13.61728 c -23.69691,32.90629 -63.92425,54.09834 -111.69365,54.09834 z m 203.44119,0 L 262.03579,365.4721 281.79624,345.71165 465.10097,478.89034 Z M 261.94369,463.45128 v -23.41769 c 31.00436,-4.26445 31.7018,-4.78071 55.28252,-21.90317 0,0 11.42133,8.53605 16.43417,11.65793 -15.76743,22.38144 -45.07173,33.1126 -71.71669,33.66293 z M 465.10097,451.64675 297.5755,329.93238 316.82658,310.68131 465.10097,419.70184 Z m -203.15728,-33.56725 0.0921,-23.15134 c 4.66159,-0.69815 10.64917,-2.9838 15.49412,-5.63878 6.88309,5.00084 13.46616,9.78372 20.45756,14.86327 -11.30051,6.96531 -22.44395,13.33409 -36.04377,13.92685 z m 203.15728,-27.02575 -132.43045,-96.21638 18.55983,-18.55985 113.87062,82.73184 z"
       sodipodi:nodetypes="ccccccccccccccccccccccccccccccc"
       clip-path="none" /><path
       clip-path="url(#clipPath898)"
       sodipodi:nodetypes="cccccccccccccccccccccccccccccc"
       d="m -204.1256,353.05589 v -17.97172 c 31.64688,0 49.77773,-13.57848 67.13842,-30.93916 l 13.53772,9.83574 c -17.11624,23.76816 -46.17238,39.07514 -80.67614,39.07514 z m 146.945247,0 -146.878727,-106.71363 14.27294,-14.27294 132.400717,96.19475 z M -204.1256,317.11246 V 300.1979 c 17.1505,-0.92095 26.08563,-6.74339 39.93047,-15.82062 0,0 8.24961,6.16557 11.87038,8.4205 -11.38879,16.16608 -32.55524,23.91718 -51.80085,24.31468 z m 146.740177,-8.52639 -121.003377,-87.91409 13.90502,-13.90502 107.098357,78.74535 z M -204.1256,284.3405 l 0.0665,-16.72218 c 3.36706,-0.50427 7.69188,-2.15519 11.19138,-4.07288 4.97164,3.6121 9.72658,7.06677 14.77646,10.73572 -8.16234,5.03103 -16.21123,9.63119 -26.03436,10.05934 z m 146.740177,-19.52066 -95.654307,-69.49693 13.40574,-13.40575 82.248567,59.75707 z"
       style="fill:#d40000;stroke:none;stroke-width:1.0571599"
       id="path892"
       inkscape:connector-curvature="0"
       transform="matrix(1.3844694,0,0,1.3844694,544.54934,24.418781)" /><text
       xml:space="preserve"
       style="font-style:normal;font-variant:normal;font-weight:normal;font-stretch:normal;font-size:100.60347748px;line-height:1.25;font-family:Gobold;-inkscape-font-specification:Gobold;letter-spacing:0px;word-spacing:0px;fill:#374548;fill-opacity:1;stroke:none;stroke-width:2.51508665"
       x="131.95453"
       y="-48.595798"
       id="text918"
       transform="scale(1,-1)"><tspan
         sodipodi:role="line"
         id="tspan916"
         x="131.95453"
         y="-48.595798"
         style="font-style:normal;font-variant:normal;font-weight:normal;font-stretch:normal;font-family:'LEMON MILK';-inkscape-font-specification:'LEMON MILK';fill:#374548;stroke-width:2.51508665"><tspan
   style="font-style:normal;font-variant:normal;font-weight:normal;font-stretch:normal;font-family:Gotham;-inkscape-font-specification:Gotham;fill:#374548;stroke-width:2.51508665"
   id="tspan943">i</tspan>MASKED</tspan></text>
</g></svg>