<?xml version="1.0" encoding="UTF-8" standalone="no"?>
<!-- Created with Inkscape (http://www.inkscape.org/) -->

<svg
   xmlns:dc="http://purl.org/dc/elements/1.1/"
   xmlns:cc="http://creativecommons.org/ns#"
   xmlns:rdf="http://www.w3.org/1999/02/22-rdf-syntax-ns#"
   xmlns:svg="http://www.w3.org/2000/svg"
   xmlns="http://www.w3.org/2000/svg"
   xmlns:sodipodi="http://sodipodi.sourceforge.net/DTD/sodipodi-0.dtd"
   xmlns:inkscape="http://www.inkscape.org/namespaces/inkscape"
   width="1000"
   height="1000"
   viewBox="0 0 264.58333 264.58334"
   version="1.1"
   id="svg913"
   inkscape:version="0.92.5 (2060ec1f9f, 2020-04-08)"
   sodipodi:docname="shanknaadlogo.svg"
   inkscape:export-filename="/home/soumya/Pictures/Paid work/shankhnaad/shanknaadlogo.png"
   inkscape:export-xdpi="300"
   inkscape:export-ydpi="300">
  <defs
     id="defs907" />
  <sodipodi:namedview
     id="base"
     pagecolor="#ffffff"
     bordercolor="#666666"
     borderopacity="1.0"
     inkscape:pageopacity="0.0"
     inkscape:pageshadow="2"
     inkscape:zoom="0.35"
     inkscape:cx="-102.85714"
     inkscape:cy="445.71429"
     inkscape:document-units="mm"
     inkscape:current-layer="layer1"
     showgrid="false"
     units="px"
     inkscape:window-width="1366"
     inkscape:window-height="662"
     inkscape:window-x="0"
     inkscape:window-y="27"
     inkscape:window-maximized="1" />
  <metadata
     id="metadata910">
    <rdf:RDF>
      <cc:Work
         rdf:about="">
        <dc:format>image/svg+xml</dc:format>
        <dc:type
           rdf:resource="http://purl.org/dc/dcmitype/StillImage" />
        <dc:title></dc:title>
      </cc:Work>
    </rdf:RDF>
  </metadata>
  <g
     inkscape:label="Layer 1"
     inkscape:groupmode="layer"
     id="layer1"
     transform="translate(0,-32.41665)">
    <g
       id="g1490"
       transform="matrix(2.1058532,0,0,2.1058532,-207.83608,-16.2672)">
      <path
         inkscape:export-ydpi="100"
         inkscape:export-xdpi="100"
         sodipodi:nodetypes="ccczc"
         inkscape:connector-curvature="0"
         id="path126"
         d="m 148.80864,38.093883 c 2.36801,-0.0061 3.49737,-0.367889 5.06601,-1.729744 2.82567,-2.432591 4.27853,-3.642532 8.87513,-4.109821 -2.00203,0.921648 -3.90201,2.058807 -5.61406,3.880403 -1.71205,1.821572 -5.17129,3.80444 -8.32708,1.959162 z"
         style="fill:#006680;fill-opacity:1;stroke:none;stroke-width:0.05885424" />
      <path
         sodipodi:nodetypes="ccccc"
         inkscape:connector-curvature="0"
         id="path14-3"
         style="fill:#006680;fill-opacity:1;fill-rule:nonzero;stroke:none;stroke-width:0.0078089"
         d="m 154.80539,80.906526 c 7.87722,-3.84733 7.84397,-11.29664 6.76982,-16.2107 -2.82092,-12.021 -16.92158,-11.7858 -12.29159,-25.343244 0,0 -6.18594,7.420414 -1.95949,13.569254 5.11963,6.05567 19.91641,17.04936 7.48126,27.98469" />
      <path
         d="m 163.39082,33.337568 c 4.82199,3.696526 5.51823,9.259737 4.8607,13.981108 -1.72681,11.54968 -10.35841,11.3237 -7.52421,24.34959 0,0 -4.35995,-6.59814 -1.77276,-12.50589 3.13394,-5.81824 12.04836,-15.318213 4.43627,-25.824808"
         style="fill:#006680;fill-opacity:1;fill-rule:nonzero;stroke:none;stroke-width:0.00598869"
         id="path2439"
         inkscape:connector-curvature="0"
         sodipodi:nodetypes="ccccc" />
      <path
         style="fill:#006680;fill-opacity:1;stroke:none;stroke-width:0.04724897"
         d="m 147.17631,36.535625 c 0.83647,8.07e-4 1.64049,0.03816 2.42479,-0.287571 0.69441,-0.288182 1.14337,-0.61968 1.66395,-1.062908 1.33374,-1.135397 2.28371,-2.549239 4.39016,-3.116454 0.85238,-0.173565 1.98805,-0.275216 2.78661,-0.115841 -1.88999,0.453271 -2.90111,1.124633 -3.89204,2.204702 -1.1767,1.30955 -2.59059,2.807551 -4.54266,3.017947 -0.99891,0.04807 -2.07168,-0.168293 -2.83081,-0.640034 z"
         id="path3248"
         inkscape:connector-curvature="0"
         sodipodi:nodetypes="cccccccc"
         inkscape:export-xdpi="100"
         inkscape:export-ydpi="100" />
      <path
         inkscape:connector-curvature="0"
         id="path3252"
         d="m 146.7651,29.606732 a 3.1294148,3.1292905 0 0 0 -0.82906,4.347152 3.1294148,3.1292905 0 0 0 4.34732,0.829037 3.1294148,3.1292905 0 0 0 0.75225,-0.727227 c -1.35795,-0.241344 -2.67806,-0.146715 -4.42653,0.457063 0.68539,-0.732487 1.91537,-1.39865 2.91431,-1.78726 0.74497,-0.231914 1.44626,-0.313186 2.12192,-0.306653 a 3.1294148,3.1292905 0 0 0 -0.53289,-1.983086 3.1294148,3.1292905 0 0 0 -4.34732,-0.829026 z"
         style="opacity:1;fill:#006680;fill-opacity:1;fill-rule:evenodd;stroke:none;stroke-width:0.06134458;stroke-linejoin:miter;stroke-miterlimit:4;stroke-dasharray:none;stroke-dashoffset:142.29919434;stroke-opacity:1;paint-order:fill markers stroke" />
      <path
         d="m 166.51256,32.922817 c 10.57806,7.003304 12.10544,17.543219 10.663,26.488229 -3.78813,21.88169 -20.64847,23.589 -14.43102,48.267554 0,0 -9.4818,-14.145044 -4.3919,-25.702964 5.08991,-11.55789 24.8587,-29.14728 8.15992,-49.052819"
         style="fill:#0088aa;fill-opacity:1;fill-rule:nonzero;stroke:none;stroke-width:0.01220895"
         id="path3269"
         inkscape:connector-curvature="0"
         sodipodi:nodetypes="ccczc" />
    </g>
    <g
       transform="matrix(1.087344,0,0,-1.087344,-100.15718,1091.5967)"
       id="g1122"
       inkscape:export-filename="/home/soumya/Pictures/Paid work/shankhnaad/header.png"
       inkscape:export-xdpi="100"
       inkscape:export-ydpi="100"
       style="fill:#006680">
      <text
         transform="scale(1,-1)"
         id="text1086"
         y="-770.88751"
         x="130.61005"
         style="font-style:normal;font-variant:normal;font-weight:normal;font-stretch:normal;font-size:44.81095505px;line-height:1.25;font-family:Gobold;-inkscape-font-specification:Gobold;letter-spacing:0px;word-spacing:0px;fill:#006680;fill-opacity:1;stroke:none;stroke-width:1.12027395"
         xml:space="preserve"><tspan
           id="tspan1088"
           style="font-style:normal;font-variant:normal;font-weight:normal;font-stretch:normal;font-family:Riesling;-inkscape-font-specification:Riesling;letter-spacing:2.25px;fill:#006680;stroke-width:1.12027395"
           y="-770.88751"
           x="130.61005"
           sodipodi:role="line">shankhnaad</tspan></text>
      <text
         transform="scale(1,-1)"
         id="text1114"
         y="-749.06384"
         x="179.8618"
         style="font-style:normal;font-variant:normal;font-weight:normal;font-stretch:normal;font-size:30px;line-height:1.25;font-family:Riesling;-inkscape-font-specification:Riesling;letter-spacing:0px;word-spacing:0px;fill:#006680;fill-opacity:1;stroke:none;stroke-width:0.75"
         xml:space="preserve"><tspan
           style="font-style:normal;font-variant:normal;font-weight:normal;font-stretch:normal;line-height:37.5px;font-family:Riesling;-inkscape-font-specification:Riesling;letter-spacing:2.25px;fill:#006680;stroke-width:0.75"
           y="-749.06384"
           x="179.8618"
           id="tspan1112"
           sodipodi:role="line">global</tspan></text>
    </g>
  </g>
</svg>
